<svg width="50" height="60" viewBox="0 0 50 60" fill="none" xmlns="http://www.w3.org/2000/svg">
<path d="M26.4134 39.6293C25.592 39.6293 24.8827 39.4853 24.2854 39.1973C23.6987 38.9093 23.2347 38.5146 22.8934 38.0133C22.5627 37.5013 22.3707 36.9253 22.3174 36.2853H24.3174C24.4134 36.744 24.648 37.128 25.0214 37.4373C25.3947 37.736 25.8587 37.8853 26.4134 37.8853C27.0107 37.8853 27.4961 37.6666 27.8694 37.2293C28.2534 36.792 28.4454 36.248 28.4454 35.5973C28.4454 34.9253 28.2534 34.392 27.8694 33.9973C27.4961 33.6026 27.0214 33.4053 26.4454 33.4053C25.9654 33.4053 25.5494 33.5226 25.1974 33.7573C24.8454 33.992 24.5947 34.2853 24.4454 34.6373H22.4774L23.4374 28.2373H29.6454V30.0293H24.9734L24.4614 32.6213C24.6961 32.3653 25.016 32.1573 25.4214 31.9973C25.8267 31.8266 26.28 31.7413 26.7814 31.7413C27.5814 31.7413 28.248 31.9226 28.7814 32.2853C29.3147 32.6373 29.7201 33.1066 29.9974 33.6933C30.2747 34.2693 30.4134 34.8986 30.4134 35.5813C30.4134 36.36 30.2427 37.0533 29.9014 37.6613C29.5707 38.2693 29.1014 38.7493 28.4934 39.1013C27.896 39.4533 27.2027 39.6293 26.4134 39.6293Z" fill="#224E43"/>
<path d="M18.0978 39.4373V30.5733L16.2578 31.0053V29.4373L18.9618 28.2373H20.2258V39.4373H18.0978Z" fill="#224E43"/>
<path d="M48.1994 58.9661V59.9661H49.1994V58.9661H48.1994ZM48.1994 8.22363H49.1994V7.22363H48.1994V8.22363ZM0.555589 7.51653C0.165064 7.90705 0.165064 8.54022 0.555589 8.93074L6.91955 15.2947C7.31007 15.6852 7.94324 15.6852 8.33376 15.2947C8.72429 14.9042 8.72429 14.271 8.33376 13.8805L2.67691 8.22363L8.33376 2.56678C8.72429 2.17625 8.72429 1.54309 8.33376 1.15257C7.94324 0.762041 7.31007 0.762041 6.91955 1.15257L0.555589 7.51653ZM1.2627 59.9661H48.1994V57.9661H1.2627V59.9661ZM49.1994 58.9661V8.22363H47.1994V58.9661H49.1994ZM48.1994 7.22363H1.2627V9.22363H48.1994V7.22363Z" fill="#224E43"/>
</svg>
