<?xml version="1.0" encoding="UTF-8"?><svg id="Layer_1" xmlns="http://www.w3.org/2000/svg" viewBox="0 0 48.94 59.11"><path d="m26.15,38.77c-.82,0-1.53-.14-2.13-.43-.59-.29-1.05-.68-1.39-1.18-.33-.51-.52-1.09-.58-1.73h2c.1.46.33.84.7,1.15.37.3.84.45,1.39.45.6,0,1.08-.22,1.46-.66.38-.44.58-.98.58-1.63s-.19-1.21-.58-1.6c-.37-.39-.85-.59-1.42-.59-.48,0-.9.12-1.25.35-.35.23-.6.53-.75.88h-1.97l.96-6.4h6.21v1.79h-4.67l-.51,2.59c.23-.26.55-.46.96-.62.41-.17.86-.26,1.36-.26.8,0,1.47.18,2,.54.53.35.94.82,1.22,1.41.28.58.42,1.21.42,1.89,0,.78-.17,1.47-.51,2.08-.33.61-.8,1.09-1.41,1.44-.6.35-1.29.53-2.08.53Z" fill="#bfffc2"/><path d="m17.84,38.58v-8.86l-1.84.43v-1.57l2.7-1.2h1.26v11.2h-2.13Z" fill="#bfffc2"/><path d="m47.94,58.11v1h1v-1h-1Zm0-50.74h1v-1h-1v1ZM.29,6.66c-.39.39-.39,1.02,0,1.41l6.36,6.36c.39.39,1.02.39,1.41,0,.39-.39.39-1.02,0-1.41L2.41,7.36,8.07,1.71c.39-.39.39-1.02,0-1.41-.39-.39-1.02-.39-1.41,0L.29,6.66Zm.71,52.45h46.94v-2H1v2Zm47.94-1V7.36h-2v50.74h2Zm-1-51.74H1v2h46.94v-2Z" fill="#bfffc2"/></svg>