<svg width="50" height="60" viewBox="0 0 50 60" fill="none" xmlns="http://www.w3.org/2000/svg">
<path d="M30.7788 39.6289C29.7442 39.6289 28.8588 39.3889 28.1228 38.9089C27.3868 38.4183 26.8162 37.7409 26.4108 36.8769C26.0162 36.0023 25.8188 34.9889 25.8188 33.8369C25.8188 32.6956 26.0162 31.6876 26.4108 30.8129C26.8162 29.9383 27.3868 29.2609 28.1228 28.7809C28.8588 28.2903 29.7442 28.0449 30.7788 28.0449C31.8135 28.0449 32.6988 28.2903 33.4348 28.7809C34.1708 29.2609 34.7362 29.9383 35.1308 30.8129C35.5362 31.6876 35.7388 32.6956 35.7388 33.8369C35.7388 34.9889 35.5362 36.0023 35.1308 36.8769C34.7362 37.7409 34.1708 38.4183 33.4348 38.9089C32.6988 39.3889 31.8135 39.6289 30.7788 39.6289ZM30.7788 37.7889C31.6215 37.7889 32.3095 37.4369 32.8428 36.7329C33.3762 36.0289 33.6428 35.0636 33.6428 33.8369C33.6428 32.6103 33.3762 31.6449 32.8428 30.9409C32.3095 30.2369 31.6215 29.8849 30.7788 29.8849C29.9255 29.8849 29.2322 30.2369 28.6988 30.9409C28.1762 31.6449 27.9148 32.6103 27.9148 33.8369C27.9148 35.0636 28.1762 36.0289 28.6988 36.7329C29.2322 37.4369 29.9255 37.7889 30.7788 37.7889Z" fill="#224E43"/>
<path d="M20.3192 39.6289C19.5832 39.6289 18.9166 39.5009 18.3192 39.2449C17.7219 38.9783 17.2419 38.5729 16.8792 38.0289C16.5166 37.4849 16.3246 36.8023 16.3032 35.9809H18.3192C18.3299 36.5249 18.5059 36.9836 18.8472 37.3569C19.1992 37.7196 19.6899 37.9009 20.3192 37.9009C20.9166 37.9009 21.3752 37.7356 21.6952 37.4049C22.0152 37.0743 22.1752 36.6583 22.1752 36.1569C22.1752 35.5703 21.9619 35.1276 21.5352 34.8289C21.1192 34.5196 20.5806 34.3649 19.9192 34.3649H19.0872V32.6849H19.9352C20.4792 32.6849 20.9326 32.5569 21.2952 32.3009C21.6579 32.0449 21.8392 31.6663 21.8392 31.1649C21.8392 30.7489 21.7006 30.4183 21.4232 30.1729C21.1566 29.9169 20.7832 29.7889 20.3032 29.7889C19.7806 29.7889 19.3699 29.9436 19.0712 30.2529C18.7832 30.5623 18.6232 30.9409 18.5912 31.3889H16.5912C16.6339 30.3543 16.9912 29.5383 17.6632 28.9409C18.3459 28.3436 19.2259 28.0449 20.3032 28.0449C21.0712 28.0449 21.7166 28.1836 22.2392 28.4609C22.7726 28.7276 23.1726 29.0849 23.4392 29.5329C23.7166 29.9809 23.8552 30.4769 23.8552 31.0209C23.8552 31.6503 23.6792 32.1836 23.3272 32.6209C22.9859 33.0476 22.5592 33.3356 22.0472 33.4849C22.6766 33.6129 23.1886 33.9223 23.5832 34.4129C23.9779 34.8929 24.1752 35.5009 24.1752 36.2369C24.1752 36.8556 24.0259 37.4209 23.7272 37.9329C23.4286 38.4449 22.9912 38.8556 22.4152 39.1649C21.8499 39.4743 21.1512 39.6289 20.3192 39.6289Z" fill="#224E43"/>
<path d="M1.32595 58.9661V59.9661H0.325947V58.9661H1.32595ZM1.32595 8.22363H0.325947V7.22363H1.32595V8.22363ZM48.9698 7.51653C49.3603 7.90705 49.3603 8.54022 48.9698 8.93074L42.6058 15.2947C42.2153 15.6852 41.5822 15.6852 41.1916 15.2947C40.8011 14.9042 40.8011 14.271 41.1916 13.8805L46.8485 8.22363L41.1916 2.56678C40.8011 2.17625 40.8011 1.54309 41.1916 1.15257C41.5822 0.762041 42.2153 0.762041 42.6058 1.15257L48.9698 7.51653ZM48.2627 59.9661H1.32595V57.9661H48.2627V59.9661ZM0.325947 58.9661V8.22363H2.32595V58.9661H0.325947ZM1.32595 7.22363H48.2627V9.22363H1.32595V7.22363Z" fill="#224E43"/>
</svg>
