<?xml version="1.0" encoding="UTF-8"?><svg id="Layer_1" xmlns="http://www.w3.org/2000/svg" viewBox="0 0 48.94 59.11"><path d="m30.45,38.77c-1.03,0-1.92-.24-2.66-.72-.74-.49-1.31-1.17-1.71-2.03-.39-.87-.59-1.89-.59-3.04s.2-2.15.59-3.02c.41-.87.98-1.55,1.71-2.03.74-.49,1.62-.74,2.66-.74s1.92.25,2.66.74c.74.48,1.3,1.16,1.7,2.03.41.87.61,1.88.61,3.02s-.2,2.17-.61,3.04c-.39.86-.96,1.54-1.7,2.03-.74.48-1.62.72-2.66.72Zm0-1.84c.84,0,1.53-.35,2.06-1.06.53-.7.8-1.67.8-2.9s-.27-2.19-.8-2.9c-.53-.7-1.22-1.06-2.06-1.06s-1.55.35-2.08,1.06c-.52.7-.78,1.67-.78,2.9s.26,2.19.78,2.9c.53.7,1.23,1.06,2.08,1.06Z" fill="#bfffc2"/><path d="m19.99,38.77c-.74,0-1.4-.13-2-.38-.6-.27-1.08-.67-1.44-1.22-.36-.54-.55-1.23-.58-2.05h2.02c.01.54.19,1,.53,1.38.35.36.84.54,1.47.54s1.06-.17,1.38-.5c.32-.33.48-.75.48-1.25,0-.59-.21-1.03-.64-1.33-.42-.31-.95-.46-1.62-.46h-.83v-1.68h.85c.54,0,1-.13,1.36-.38.36-.26.54-.63.54-1.14,0-.42-.14-.75-.42-.99-.27-.26-.64-.38-1.12-.38-.52,0-.93.15-1.23.46-.29.31-.45.69-.48,1.14h-2c.04-1.03.4-1.85,1.07-2.45.68-.6,1.56-.9,2.64-.9.77,0,1.41.14,1.94.42.53.27.93.62,1.2,1.07.28.45.42.94.42,1.49,0,.63-.18,1.16-.53,1.6-.34.43-.77.71-1.28.86.63.13,1.14.44,1.54.93.39.48.59,1.09.59,1.82,0,.62-.15,1.18-.45,1.7-.3.51-.74.92-1.31,1.23-.57.31-1.26.46-2.1.46Z" fill="#bfffc2"/><path d="m1,58.11v1H0v-1h1ZM1,7.36H0v-1h1v1Zm47.64-.71c.39.39.39,1.02,0,1.41l-6.36,6.36c-.39.39-1.02.39-1.41,0-.39-.39-.39-1.02,0-1.41l5.66-5.66-5.66-5.66c-.39-.39-.39-1.02,0-1.41.39-.39,1.02-.39,1.41,0l6.36,6.36Zm-.71,52.45H1v-2h46.94v2ZM0,58.11V7.36h2v50.74H0ZM1,6.36h46.94v2H1v-2Z" fill="#bfffc2"/></svg>