<svg width="47" height="47" viewBox="0 0 47 47" fill="none" xmlns="http://www.w3.org/2000/svg">
<circle cx="23.228" cy="23.3828" r="22" fill="#BFFFC2" stroke="#224E43" stroke-width="2"/>
<path d="M23.0991 27.0852L20.4922 34.2883C20.3641 34.6523 20.0932 34.9494 19.7408 35.1125C19.0126 35.4533 18.1446 35.1417 17.8038 34.4135C17.6407 34.064 17.6203 33.6591 17.7543 33.295L19.5718 28.2619C19.7175 27.8833 19.831 27.493 19.9126 27.0969C19.9854 26.6949 20.0378 26.2871 20.0699 25.8794C20.1398 25.1425 20.1893 24.3444 20.2272 23.5784C20.265 22.8123 20.2912 22.0696 20.3116 21.455C20.3378 20.689 20.1311 20.6395 19.5165 20.4938L19.3883 20.4647L14.1455 19.4773C13.7639 19.4103 13.4261 19.1948 13.2047 18.8773C12.7503 18.2132 12.9193 17.3074 13.5834 16.853C13.9038 16.6345 14.297 16.5501 14.6756 16.6229L20.3087 17.6802C20.533 17.7006 20.7514 17.7268 20.9816 17.753C21.6748 17.8491 22.3738 17.8986 23.0729 17.9074C23.9437 17.8899 24.8117 17.8258 25.6768 17.7122C25.9389 17.6831 26.1865 17.6511 26.4341 17.6278L31.7497 16.6316C32.1254 16.553 32.5187 16.6287 32.842 16.8384C33.509 17.2899 33.6837 18.1957 33.2323 18.8598C33.2293 18.8656 33.2235 18.8715 33.2206 18.8773C33.0022 19.1977 32.6672 19.4161 32.2856 19.486L27.2059 20.4414C27.037 20.4793 26.8855 20.5055 26.7516 20.5259C26.2215 20.6162 25.9593 20.6628 25.9914 21.4172C26.0147 21.9676 26.0816 22.6259 26.169 23.3133C26.271 24.1201 26.405 24.9764 26.5448 25.76C26.6351 26.2755 26.7195 26.6891 26.836 27.0852C26.9525 27.4813 27.0661 27.8862 27.2409 28.3726L29.0205 33.295C29.2972 34.0494 28.9069 34.8854 28.1526 35.1621C27.7885 35.296 27.3865 35.2757 27.0341 35.1125C26.6817 34.9494 26.4108 34.6523 26.2826 34.2883L23.667 27.0998L23.3758 26.5668L23.0845 27.0852H23.0991ZM23.2127 11.4966C24.634 11.4966 25.7846 12.6471 25.7875 14.0656C25.7875 15.4869 24.637 16.6375 23.2185 16.6404C21.7971 16.6404 20.6466 15.4899 20.6437 14.0714C20.6437 13.3898 20.9146 12.7345 21.3952 12.251C21.8757 11.7675 22.5311 11.4966 23.2127 11.4966Z" fill="#224E43"/>
</svg>
