<svg width="43" height="43" viewBox="0 0 43 43" fill="none" xmlns="http://www.w3.org/2000/svg">
<circle cx="21.8262" cy="21.1689" r="20" stroke="#BFFFC2" stroke-width="2"/>
<path d="M21.6973 24.8712L19.0904 32.0743C18.9623 32.4384 18.6914 32.7355 18.339 32.8986C17.6108 33.2394 16.7428 32.9277 16.402 32.1995C16.2389 31.85 16.2185 31.4452 16.3525 31.0811L18.17 26.048C18.3156 25.6693 18.4292 25.279 18.5108 24.8829C18.5836 24.481 18.636 24.0732 18.6681 23.6654C18.738 22.9285 18.7875 22.1304 18.8254 21.3644C18.8632 20.5984 18.8894 19.8556 18.9098 19.241C18.936 18.475 18.7292 18.4255 18.1147 18.2799L17.9865 18.2507L12.7437 17.2633C12.3621 17.1964 12.0243 16.9808 11.8029 16.6633C11.3485 15.9992 11.5175 15.0934 12.1816 14.639C12.502 14.4206 12.8952 14.3361 13.2738 14.4089L18.9069 15.4662C19.1312 15.4866 19.3496 15.5128 19.5797 15.539C20.273 15.6352 20.972 15.6847 21.671 15.6934C22.5419 15.6759 23.4099 15.6119 24.275 15.4983C24.5371 15.4691 24.7847 15.4371 25.0323 15.4138L30.3479 14.4177C30.7236 14.339 31.1169 14.4147 31.4402 14.6245C32.1072 15.0759 32.2819 15.9818 31.8305 16.6459C31.8275 16.6517 31.8217 16.6575 31.8188 16.6633C31.6004 16.9837 31.2654 17.2022 30.8838 17.2721L25.8041 18.2274C25.6352 18.2653 25.4837 18.2915 25.3498 18.3119C24.8196 18.4022 24.5575 18.4488 24.5896 19.2032C24.6129 19.7537 24.6798 20.4119 24.7672 21.0993C24.8692 21.9061 25.0031 22.7625 25.143 23.546C25.2333 24.0615 25.3177 24.4751 25.4342 24.8712C25.5507 25.2674 25.6643 25.6722 25.8391 26.1587L27.6187 31.0811C27.8954 31.8355 27.5051 32.6714 26.7508 32.9481C26.3867 33.0821 25.9847 33.0617 25.6323 32.8986C25.2799 32.7355 25.009 32.4384 24.8808 32.0743L22.2652 24.8858L21.974 24.3528L21.6827 24.8712H21.6973ZM21.8109 9.28262C23.2322 9.28262 24.3827 10.4331 24.3857 11.8516C24.3857 13.273 23.2352 14.4235 21.8167 14.4264C20.3953 14.4264 19.2448 13.2759 19.2419 11.8574C19.2419 11.1759 19.5128 10.5205 19.9933 10.037C20.4739 9.55349 21.1293 9.28262 21.8109 9.28262Z" fill="#BFFFC2"/>
</svg>
