<?xml version="1.0" encoding="UTF-8"?><svg id="Layer_1" xmlns="http://www.w3.org/2000/svg" viewBox="0 0 137.67 59.69"><rect y="0" width="137.67" height="59.69" fill="none"/><path d="m14.78,48.75c-10.07-14.03-3.87-30.23,10.46-38.44-.15.11.17.38,0,.49-1.71,1.69-3.64,4.45-1.54,6.55-11.02,5.63-15.27,18.82-8.92,31.4Z" fill="#234e44"/><path d="m33.71.15c-4.32,1.07-5.48,2.48-5.58,4,0,.17,0,.34.06.51C1.84,14.8,4.55,44.24,15.33,52.96c.11.06-.11.58-.38.34C1.22,42.31.23,14.8,22.93.73c.43.11.98.32,1.5.38,4.02-.38,6.8-1.52,9.28-.96Z" fill="#234e44"/><path d="m7.21,46.83c-7.91-14.89-4.32-25.31-.11-32.58-.9-.9-4.11,6.99-6.2,5.92-2.12,8.51-.66,18.65,6.31,26.65" fill="#234e44"/><path d="m74.74,42.2c-1.22,2.65-2.05,5.65-2.38,8.58-.11,4.04.88,6.07,2.38,6.76v-15.34Zm0-8.45v1.9h-4.21c-.77,4.58-1.5,9.2-2.27,13.75-.66,4.17-1.39,7.51,3.59,5.69-.04.62-.15,1.24-.28,1.86-4.58,1.41-7.64-.04-7.79-3.55l2.82-17.75h-6.31c-.73,4.58-1.5,9.2-2.22,13.75-.77,4.17-1.39,7.51,3.59,5.69-.11.62-.21,1.24-.32,1.86-4.43,1.41-7.64-.17-7.76-3.55l2.82-17.75h-2.97l.32-1.9h2.99l1.54-9.58,4.04-1.41-1.71,10.99h6.31l1.56-9.58,4.09-1.41-1.78,10.99h3.95Zm-44.45,21.41c-14.89-2.25-19.49-21.48-8.19-30.48,11.29-8.96,27.02-.34,25.35,16.04-1.67,16.41-17.33,21.93-30.54,13.71,13.33,10.59,33.15,4.73,36.15-13.71,2.97-18.42-20.21-29.03-32.28-17.8-11.96,11.21-6.14,31.72,9.52,32.24m46.5-16.41v8.92c-.11.77-.24,1.52-.34,2.35-.17,1.65-.04,2.76.34,3.38v4.24c-.73.17-1.46.11-2.05-.11v-15.34c.6-1.24,1.26-2.38,2.05-3.44Zm0-3.1h-2.05v-1.9h2.05v1.9Zm0,0h.04l.28-1.9h-.32v1.9Zm5.65,15.96v2.42c-1.88,1.86-3.94,3.23-5.65,3.61v-4.24c.94,1.75,3.25.62,5.65-1.8m0-17.48v1.86c-2.72,1.18-4.6,5.13-5.65,11.68v-8.92c1.54-2.03,3.42-3.72,5.65-4.62Zm36.75,9.14c-1.01,2.37-1.67,4.9-1.95,7.51-.11,3.59.68,5.63,1.95,6.48v-13.99Zm0-9.52v7.27c-2.37,4.79-6.42,10.7-9.46,16h-1.67c.11-5.18-.17-10.42-1.88-15.62-2.16,5.24-4.88,10.44-7.98,15.62h-1.54c-.17-11.1-1.01-20.13-4.11-21.31,0-.06-.04-.11-.04-.11l-2.89,17.86c-.28,2.87,1.88,1.41,2.89,2.03l.21,1.45h-7.59l1.35-8.51c-1.11,2.03-2.55,3.96-4.04,5.58v-2.42c1.88-1.97,3.76-4.79,4.81-7.72l1.11-6.87c-2.33-1.47-4.32-1.75-5.93-1.03v-1.86c1.93-.79,4.08-1,6.46-.38h3.72l.11-.06h4.43c1.67,5.41,2.55,10.93,2.99,16.34,3.21-5.41,5.54-10.82,6.87-16.28.49-.06.98-.06,1.5-.06,1.71,5.58,2.59,11.21,3.36,16.79,2.82-5.69,7.98-12.11,4.77-15.94v-.79h2.55v.02Zm0,7.27c1.43-2.99,2.27-5.54,1.88-7.27h-1.88v7.27Zm8.13-6.89v1.86c-3.04,1.3-5.03,6.03-5.97,14.03-.6,5.82,2.65,4.96,5.97,1.58v2.42c-2.93,2.89-6.18,4.51-8.13,3.23v-13.99c1.71-4.17,4.53-7.66,8.13-9.14m0,19.89v-2.42c1.84-1.97,3.72-4.79,4.83-7.72l1.09-6.87c-2.31-1.47-4.3-1.75-5.93-1.03v-1.86c1.95-.79,4.11-1,6.48-.38h3.87l-3.15,19.72c-.34,2.87,1.88,1.41,2.82,2.03l.28,1.45h-7.59l1.33-8.51c-1.09,2.03-2.54,3.96-4.04,5.58" fill="#234e44"/></svg>