<svg width="167" height="182" viewBox="0 0 167 182" fill="none" xmlns="http://www.w3.org/2000/svg">
<path d="M83.5488 69.9514V58.5146" stroke="#BFFFC2" stroke-width="2.5" stroke-miterlimit="10" stroke-linecap="round"/>
<path d="M86.0483 16.4416L94.1525 8.3374" stroke="#BFFFC2" stroke-width="2.5" stroke-miterlimit="10" stroke-linecap="round"/>
<path d="M72.9463 29.5441L81.0504 21.4399" stroke="#BFFFC2" stroke-width="2.5" stroke-miterlimit="10" stroke-linecap="round"/>
<path d="M86.0483 21.4399L94.1525 29.5441" stroke="#BFFFC2" stroke-width="2.5" stroke-miterlimit="10" stroke-linecap="round"/>
<path d="M72.9463 8.3374L81.0504 16.4416" stroke="#BFFFC2" stroke-width="2.5" stroke-miterlimit="10" stroke-linecap="round"/>
<path d="M83.5488 52.0395V40.5649" stroke="#BFFFC2" stroke-width="2.5" stroke-miterlimit="10" stroke-linecap="round"/>
<path d="M83.5488 161.483L96.879 148.152" stroke="#BFFFC2" stroke-width="2.5" stroke-miterlimit="10" stroke-linecap="round"/>
<path d="M101.614 143.419L114.944 130.088" stroke="#BFFFC2" stroke-width="2.5" stroke-miterlimit="10" stroke-linecap="round"/>
<path d="M119.678 125.355L133.008 112.062" stroke="#BFFFC2" stroke-width="2.5" stroke-miterlimit="10" stroke-linecap="round"/>
<path d="M101.614 107.822L114.944 94.4917" stroke="#BFFFC2" stroke-width="2.5" stroke-miterlimit="10" stroke-linecap="round"/>
<path d="M101.614 72.1852L114.944 58.855" stroke="#BFFFC2" stroke-width="2.5" stroke-miterlimit="10" stroke-linecap="round"/>
<path d="M119.678 89.7574L133.008 76.4272" stroke="#BFFFC2" stroke-width="2.5" stroke-miterlimit="10" stroke-linecap="round"/>
<path d="M137.742 107.328L151.072 93.998" stroke="#BFFFC2" stroke-width="2.5" stroke-miterlimit="10" stroke-linecap="round"/>
<path d="M83.5496 161.483L70.2573 148.152" stroke="#BFFFC2" stroke-width="2.5" stroke-miterlimit="10" stroke-linecap="round"/>
<path d="M65.5236 143.419L52.1934 130.088" stroke="#BFFFC2" stroke-width="2.5" stroke-miterlimit="10" stroke-linecap="round"/>
<path d="M47.4596 125.355L34.1294 112.062" stroke="#BFFFC2" stroke-width="2.5" stroke-miterlimit="10" stroke-linecap="round"/>
<path d="M65.5236 107.822L52.1934 94.4917" stroke="#BFFFC2" stroke-width="2.5" stroke-miterlimit="10" stroke-linecap="round"/>
<path d="M65.5236 72.1852L52.1934 58.855" stroke="#BFFFC2" stroke-width="2.5" stroke-miterlimit="10" stroke-linecap="round"/>
<path d="M47.4596 89.7574L34.1294 76.4272" stroke="#BFFFC2" stroke-width="2.5" stroke-miterlimit="10" stroke-linecap="round"/>
<path d="M29.3961 107.328L16.0659 93.998" stroke="#BFFFC2" stroke-width="2.5" stroke-miterlimit="10" stroke-linecap="round"/>
<path d="M83.5488 125.582L96.879 112.29" stroke="#BFFFC2" stroke-width="2.5" stroke-miterlimit="10" stroke-linecap="round"/>
<path d="M70.2573 112.29L83.5496 125.582" stroke="#BFFFC2" stroke-width="2.5" stroke-miterlimit="10" stroke-linecap="round"/>
<path d="M83.5488 87.9018V76.4272" stroke="#BFFFC2" stroke-width="2.5" stroke-miterlimit="10" stroke-linecap="round"/>
<path d="M83.5488 105.813V94.3389" stroke="#BFFFC2" stroke-width="2.5" stroke-miterlimit="10" stroke-linecap="round"/>
<path d="M154.025 87.9018V76.4272" stroke="#BFFFC2" stroke-width="2.5" stroke-miterlimit="10" stroke-linecap="round"/>
<path d="M13.2632 87.9018V76.4272" stroke="#BFFFC2" stroke-width="2.5" stroke-miterlimit="10" stroke-linecap="round"/>
<path d="M30.9111 69.9514V58.5146" stroke="#BFFFC2" stroke-width="2.5" stroke-miterlimit="10" stroke-linecap="round"/>
<path d="M136.227 69.9514V58.5146" stroke="#BFFFC2" stroke-width="2.5" stroke-miterlimit="10" stroke-linecap="round"/>
<path d="M118.882 52.0395V40.5649" stroke="#BFFFC2" stroke-width="2.5" stroke-miterlimit="10" stroke-linecap="round"/>
<path d="M48.8989 52.0395V40.5649" stroke="#BFFFC2" stroke-width="2.5" stroke-miterlimit="10" stroke-linecap="round"/>
<path d="M83.5488 123.727V112.29" stroke="#BFFFC2" stroke-width="2.5" stroke-miterlimit="10" stroke-linecap="round"/>
<path d="M83.5488 89.7574L96.879 76.4272" stroke="#BFFFC2" stroke-width="2.5" stroke-miterlimit="10" stroke-linecap="round"/>
<path d="M70.2573 76.4272L83.5496 89.7574" stroke="#BFFFC2" stroke-width="2.5" stroke-miterlimit="10" stroke-linecap="round"/>
<path d="M83.5877 1.97412L79.8765 5.6475" stroke="#BFFFC2" stroke-width="2.5" stroke-miterlimit="10" stroke-linecap="round"/>
<path d="M87.2613 5.60963L83.5879 1.97412" stroke="#BFFFC2" stroke-width="2.5" stroke-miterlimit="10" stroke-linecap="round"/>
<path d="M83.5488 35.8687L87.2601 32.1953" stroke="#BFFFC2" stroke-width="2.5" stroke-miterlimit="10" stroke-linecap="round"/>
<path d="M79.8765 32.1953L83.5498 35.8687" stroke="#BFFFC2" stroke-width="2.5" stroke-miterlimit="10" stroke-linecap="round"/>
<path d="M100.515 18.9024L96.8413 15.229" stroke="#BFFFC2" stroke-width="2.5" stroke-miterlimit="10" stroke-linecap="round"/>
<path d="M96.8413 22.5762L100.515 18.9028" stroke="#BFFFC2" stroke-width="2.5" stroke-miterlimit="10" stroke-linecap="round"/>
<path d="M66.6221 18.9028L70.2954 22.5762" stroke="#BFFFC2" stroke-width="2.5" stroke-miterlimit="10" stroke-linecap="round"/>
<path d="M70.2954 15.229L66.6221 18.9024" stroke="#BFFFC2" stroke-width="2.5" stroke-miterlimit="10" stroke-linecap="round"/>
<path d="M83.5488 141.677V130.202" stroke="#BFFFC2" stroke-width="2.5" stroke-miterlimit="10" stroke-linecap="round"/>
<path d="M83.5488 159.589V148.115" stroke="#BFFFC2" stroke-width="2.5" stroke-miterlimit="10" stroke-linecap="round"/>
<path d="M83.5488 177.501V166.064" stroke="#BFFFC2" stroke-width="2.5" stroke-miterlimit="10" stroke-linecap="round"/>
<path d="M87.6396 179.888H99.0763" stroke="#BFFFC2" stroke-width="2.5" stroke-miterlimit="10" stroke-linecap="round"/>
<path d="M120.625 179.888H132.061" stroke="#BFFFC2" stroke-width="2.5" stroke-miterlimit="10" stroke-linecap="round"/>
<path d="M68.1367 179.888H79.6113" stroke="#BFFFC2" stroke-width="2.5" stroke-miterlimit="10" stroke-linecap="round"/>
<path d="M35.0767 179.888H46.5134" stroke="#BFFFC2" stroke-width="2.5" stroke-miterlimit="10" stroke-linecap="round"/>
<path d="M1.82617 179.888H13.2629" stroke="#BFFFC2" stroke-width="2.5" stroke-miterlimit="10" stroke-linecap="round"/>
<path d="M154.025 179.888H165.462" stroke="#BFFFC2" stroke-width="2.5" stroke-miterlimit="10" stroke-linecap="round"/>
</svg>
