<?xml version="1.0" encoding="utf-8"?>
<!-- Generator: Adobe Illustrator 27.7.0, SVG Export Plug-In . SVG Version: 6.00 Build 0)  -->
<svg version="1.1" id="Layer_1" xmlns="http://www.w3.org/2000/svg" xmlns:xlink="http://www.w3.org/1999/xlink" x="0px" y="0px"
	 viewBox="0 0 167 182" style="enable-background:new 0 0 167 182;" xml:space="preserve">
<style type="text/css">
	.st0{fill:none;stroke:#234E44;stroke-width:2.5;stroke-linecap:round;stroke-miterlimit:10;}
</style>
<path class="st0" d="M83.5,70V58.5"/>
<path class="st0" d="M86,16.4l8.1-8.1"/>
<path class="st0" d="M72.9,29.5l8.1-8.1"/>
<path class="st0" d="M86,21.4l8.1,8.1"/>
<path class="st0" d="M72.9,8.3l8.1,8.1"/>
<path class="st0" d="M83.5,52V40.6"/>
<path class="st0" d="M83.5,161.5l13.3-13.3"/>
<path class="st0" d="M101.6,143.4l13.3-13.3"/>
<path class="st0" d="M119.7,125.4l13.3-13.3"/>
<path class="st0" d="M101.6,107.8l13.3-13.3"/>
<path class="st0" d="M101.6,72.2l13.3-13.3"/>
<path class="st0" d="M119.7,89.8L133,76.4"/>
<path class="st0" d="M137.7,107.3L151.1,94"/>
<path class="st0" d="M83.5,161.5l-13.3-13.3"/>
<path class="st0" d="M65.5,143.4l-13.3-13.3"/>
<path class="st0" d="M47.5,125.4l-13.3-13.3"/>
<path class="st0" d="M65.5,107.8L52.2,94.5"/>
<path class="st0" d="M65.5,72.2L52.2,58.9"/>
<path class="st0" d="M47.5,89.8L34.1,76.4"/>
<path class="st0" d="M29.4,107.3L16.1,94"/>
<path class="st0" d="M83.5,125.6l13.3-13.3"/>
<path class="st0" d="M70.3,112.3l13.3,13.3"/>
<path class="st0" d="M83.5,87.9V76.4"/>
<path class="st0" d="M83.5,105.8V94.3"/>
<path class="st0" d="M154,87.9V76.4"/>
<path class="st0" d="M13.3,87.9V76.4"/>
<path class="st0" d="M30.9,70V58.5"/>
<path class="st0" d="M136.2,70V58.5"/>
<path class="st0" d="M118.9,52V40.6"/>
<path class="st0" d="M48.9,52V40.6"/>
<path class="st0" d="M83.5,123.7v-11.4"/>
<path class="st0" d="M83.5,89.8l13.3-13.3"/>
<path class="st0" d="M70.3,76.4l13.3,13.3"/>
<path class="st0" d="M83.6,2l-3.7,3.7"/>
<path class="st0" d="M87.3,5.6L83.6,2"/>
<path class="st0" d="M83.5,35.9l3.7-3.7"/>
<path class="st0" d="M79.9,32.2l3.7,3.7"/>
<path class="st0" d="M100.5,18.9l-3.7-3.7"/>
<path class="st0" d="M96.8,22.6l3.7-3.7"/>
<path class="st0" d="M66.6,18.9l3.7,3.7"/>
<path class="st0" d="M70.3,15.2l-3.7,3.7"/>
<path class="st0" d="M83.5,141.7v-11.5"/>
<path class="st0" d="M83.5,159.6v-11.5"/>
<path class="st0" d="M83.5,177.5v-11.4"/>
<path class="st0" d="M87.6,179.9h11.4"/>
<path class="st0" d="M120.6,179.9h11.4"/>
<path class="st0" d="M68.1,179.9h11.5"/>
<path class="st0" d="M35.1,179.9h11.4"/>
<path class="st0" d="M1.8,179.9h11.4"/>
<path class="st0" d="M154,179.9h11.4"/>
</svg>
