<svg width="42" height="43" viewBox="0 0 42 43" fill="none" xmlns="http://www.w3.org/2000/svg">
<path d="M2.09521 2.5H39.8608V40.2656H2.09521V2.5Z" fill="#BFFFC2"/>
<path fill-rule="evenodd" clip-rule="evenodd" d="M0.0952148 0.5H41.8608V42.2656H0.0952148V0.5ZM2.09521 2.5V40.2656H39.8608V2.5H2.09521Z" fill="#224E43"/>
<path d="M21.2783 28.3828V14.3828H26.4183C27.5383 14.3828 28.4583 14.5761 29.1783 14.9628C29.9117 15.3361 30.4583 15.8495 30.8183 16.5028C31.1783 17.1428 31.3583 17.8561 31.3583 18.6428C31.3583 19.4961 31.1317 20.2761 30.6783 20.9828C30.2383 21.6895 29.545 22.2028 28.5983 22.5228L31.4983 28.3828H28.5583L25.9583 22.8628H23.8383V28.3828H21.2783ZM23.8383 20.9828H26.2583C27.1117 20.9828 27.7383 20.7761 28.1383 20.3628C28.5383 19.9495 28.7383 19.4028 28.7383 18.7228C28.7383 18.0561 28.5383 17.5228 28.1383 17.1228C27.7517 16.7228 27.1183 16.5228 26.2383 16.5228H23.8383V20.9828Z" fill="#224E43"/>
<path d="M10.2627 28.3828V14.3828H19.3027V16.4428H12.8227V20.3628H18.0627V22.3828H12.8227V28.3828H10.2627Z" fill="#224E43"/>
</svg>
