<svg width="338" height="108" viewBox="0 0 338 108" fill="none" xmlns="http://www.w3.org/2000/svg">
<path d="M323.19 107.009V79.6864H313.979V75.8594H337.074V79.6864H327.908V107.009H323.19Z" fill="#bfffc2"/>
<path d="M288.819 107.009V75.8594H299.543C302.006 75.8594 304.023 76.2747 305.595 77.1054C307.197 77.936 308.384 79.0634 309.155 80.4874C309.927 81.8817 310.312 83.4392 310.312 85.1599C310.312 87.0882 309.793 88.8385 308.755 90.4109C307.746 91.9832 306.159 93.1105 303.993 93.7929L310.624 107.009H305.15L299.098 94.4604H293.536V107.009H288.819ZM293.536 90.9004H299.276C301.412 90.9004 302.97 90.3812 303.949 89.3429C304.958 88.3045 305.462 86.9547 305.462 85.2934C305.462 83.632 304.972 82.3119 303.993 81.3329C303.014 80.3242 301.427 79.8199 299.232 79.8199H293.536V90.9004Z" fill="#bfffc2"/>
<path d="M256.44 107.009L267.921 75.8594H273.083L284.475 107.009H279.491L276.821 99.3999H264.094L261.424 107.009H256.44ZM265.429 95.6619H275.486L270.457 81.4664L265.429 95.6619Z" fill="#bfffc2"/>
<path d="M228.696 107.543C225.61 107.543 222.94 106.876 220.686 105.541C218.461 104.176 216.74 102.292 215.524 99.8892C214.307 97.4565 213.699 94.653 213.699 91.4787C213.699 88.2747 214.307 85.4712 215.524 83.0682C216.74 80.6355 218.461 78.7369 220.686 77.3722C222.94 76.0075 225.61 75.3252 228.696 75.3252C232.345 75.3252 235.326 76.2152 237.64 77.9952C239.954 79.7752 241.423 82.2672 242.046 85.4712H236.795C236.379 83.6615 235.489 82.2227 234.125 81.1547C232.76 80.0867 230.936 79.5527 228.651 79.5527C225.536 79.5527 223.074 80.6207 221.264 82.7567C219.455 84.863 218.55 87.7704 218.55 91.4787C218.55 95.1574 219.455 98.0499 221.264 100.156C223.074 102.263 225.536 103.316 228.651 103.316C230.936 103.316 232.76 102.811 234.125 101.803C235.489 100.794 236.379 99.4145 236.795 97.6642H242.046C241.423 100.75 239.954 103.167 237.64 104.918C235.326 106.668 232.345 107.543 228.696 107.543Z" fill="#bfffc2"/>
<path d="M203.773 107.009V75.8594H208.49V107.009H203.773Z" fill="#bfffc2"/>
<path d="M179.829 107.009V75.8594H184.546V103.271H198.697V107.009H179.829Z" fill="#bfffc2"/>
<path d="M152.364 107.009V75.8594H164.112C167.345 75.8594 169.793 76.6159 171.454 78.1289C173.116 79.6419 173.946 81.5405 173.946 83.8249C173.946 85.8125 173.412 87.3997 172.344 88.5864C171.276 89.7434 169.986 90.5295 168.473 90.9449C169.659 91.1822 170.713 91.6569 171.632 92.3689C172.582 93.0809 173.323 93.9709 173.857 95.0389C174.391 96.1069 174.658 97.2639 174.658 98.5099C174.658 100.112 174.258 101.566 173.457 102.871C172.685 104.147 171.543 105.155 170.03 105.897C168.517 106.639 166.663 107.009 164.468 107.009H152.364ZM157.081 89.2094H163.533C165.343 89.2094 166.722 88.794 167.672 87.9634C168.621 87.103 169.096 85.9312 169.096 84.4479C169.096 82.9942 168.621 81.8372 167.672 80.9769C166.752 80.1165 165.343 79.6864 163.444 79.6864H157.081V89.2094ZM157.081 103.138H163.845C165.743 103.138 167.212 102.693 168.25 101.803C169.318 100.913 169.852 99.6669 169.852 98.0649C169.852 96.4629 169.303 95.202 168.206 94.2824C167.108 93.333 165.625 92.8584 163.756 92.8584H157.081V103.138Z" fill="#bfffc2"/>
<path d="M134.298 107.543C132.073 107.543 130.056 107.113 128.246 106.253C126.466 105.363 125.042 104.013 123.974 102.203C122.936 100.394 122.417 98.0945 122.417 95.3059V75.8594H127.134V95.3504C127.134 98.0797 127.786 100.082 129.092 101.358C130.397 102.634 132.162 103.271 134.387 103.271C136.582 103.271 138.333 102.634 139.638 101.358C140.943 100.082 141.596 98.0797 141.596 95.3504V75.8594H146.313V95.3059C146.313 98.0945 145.764 100.394 144.667 102.203C143.599 104.013 142.145 105.363 140.306 106.253C138.496 107.113 136.493 107.543 134.298 107.543Z" fill="#bfffc2"/>
<path d="M96.2607 107.009V75.8594H107.163C109.596 75.8594 111.613 76.2747 113.215 77.1054C114.817 77.9064 116.004 79.0189 116.775 80.4429C117.576 81.8372 117.977 83.4244 117.977 85.2044C117.977 86.8954 117.591 88.4529 116.82 89.8769C116.078 91.2712 114.906 92.3837 113.304 93.2144C111.702 94.045 109.655 94.4604 107.163 94.4604H100.978V107.009H96.2607ZM100.978 90.5889H106.941C109.166 90.5889 110.753 90.1142 111.702 89.1649C112.681 88.1859 113.171 86.8657 113.171 85.2044C113.171 83.4837 112.681 82.1487 111.702 81.1994C110.753 80.2204 109.166 79.7309 106.941 79.7309H100.978V90.5889Z" fill="#bfffc2"/>
<path d="M66.7506 107.009V79.6864H57.5391V75.8594H80.6346V79.6864H71.4676V107.009H66.7506Z" fill="#bfffc2"/>
<path d="M32.3789 107.009V75.8594H43.1034C45.5657 75.8594 47.5831 76.2747 49.1554 77.1054C50.7574 77.936 51.9441 79.0634 52.7154 80.4874C53.4867 81.8817 53.8724 83.4392 53.8724 85.1599C53.8724 87.0882 53.3532 88.8385 52.3149 90.4109C51.3062 91.9832 49.7191 93.1105 47.5534 93.7929L54.1839 107.009H48.7104L42.6584 94.4604H37.0959V107.009H32.3789ZM37.0959 90.9004H42.8364C44.9724 90.9004 46.5299 90.3812 47.5089 89.3429C48.5176 88.3045 49.0219 86.9547 49.0219 85.2934C49.0219 83.632 48.5324 82.3119 47.5534 81.3329C46.5744 80.3242 44.9872 79.8199 42.7919 79.8199H37.0959V90.9004Z" fill="#bfffc2"/>
<path d="M0 107.009L11.481 75.8594H16.643L28.035 107.009H23.051L20.381 99.3999H7.654L4.984 107.009H0ZM8.989 95.6619H19.046L14.0175 81.4664L8.989 95.6619Z" fill="#bfffc2"/>
<path d="M297.009 49.3885V0.832031H304.362L328.71 37.3881V0.832031H336.062V49.3885H328.71L304.362 12.8324V49.3885H297.009Z" fill="#bfffc2"/>
<path d="M248.618 49.3885L266.515 0.832031H274.561L292.319 49.3885H284.55L280.388 37.5268H260.549L256.387 49.3885H248.618ZM262.63 31.7001H278.307L270.469 9.57219L262.63 31.7001Z" fill="#bfffc2"/>
<path d="M205.725 49.3885V0.832031H213.077V21.6419H236.593V0.832031H243.945V49.3885H236.593V27.6768H213.077V49.3885H205.725Z" fill="#bfffc2"/>
<path d="M157.333 49.3885L175.23 0.832031H183.276L201.034 49.3885H193.265L189.103 37.5268H169.264L165.103 49.3885H157.333ZM171.345 31.7001H187.022L179.184 9.57219L171.345 31.7001Z" fill="#bfffc2"/>
<path d="M113.627 49.3885V0.832031H120.98L145.328 37.3881V0.832031H152.681V49.3885H145.328L120.98 12.8324V49.3885H113.627Z" fill="#bfffc2"/>
<path d="M83.4471 50.2212C78.6377 50.2212 74.4295 49.1576 70.8224 47.0304C67.2154 44.9031 64.3945 41.9666 62.3597 38.2208C60.325 34.4288 59.3076 30.0587 59.3076 25.1106C59.3076 20.1625 60.325 15.8155 62.3597 12.0697C64.3945 8.27772 67.2154 5.31809 70.8224 3.19085C74.4295 1.06362 78.6377 0 83.4471 0C88.2565 0 92.4647 1.06362 96.0718 3.19085C99.6788 5.31809 102.477 8.27772 104.465 12.0697C106.5 15.8155 107.517 20.1625 107.517 25.1106C107.517 30.0587 106.5 34.4288 104.465 38.2208C102.477 41.9666 99.6788 44.9031 96.0718 47.0304C92.4647 49.1576 88.2565 50.2212 83.4471 50.2212ZM83.4471 43.6314C86.7767 43.6314 89.6669 42.8915 92.1179 41.4117C94.6151 39.9319 96.5573 37.8047 97.9447 35.03C99.332 32.2553 100.026 28.9489 100.026 25.1106C100.026 21.2723 99.332 17.9659 97.9447 15.1912C96.5573 12.4166 94.6151 10.2893 92.1179 8.80952C89.6669 7.32971 86.7767 6.5898 83.4471 6.5898C80.1175 6.5898 77.2041 7.32971 74.7069 8.80952C72.2098 10.2893 70.2675 12.4166 68.8802 15.1912C67.5391 17.9659 66.8685 21.2723 66.8685 25.1106C66.8685 28.9489 67.5391 32.2553 68.8802 35.03C70.2675 37.8047 72.2098 39.9319 74.7069 41.4117C77.2041 42.8915 80.1175 43.6314 83.4471 43.6314Z" fill="#bfffc2"/>
<path d="M3.10449 49.3885V0.832031H11.7753L28.2151 33.1567L44.5856 0.832031H53.2564V49.3885H45.9035V13.5261L31.0591 42.4518H25.3711L10.4573 13.5954V49.3885H3.10449Z" fill="#bfffc2"/>
<path fill-rule="evenodd" clip-rule="evenodd" d="M83.5464 22.8911C83.8225 22.8911 84.0464 23.115 84.0464 23.3911V25.8352C84.0464 26.1113 83.8225 26.3352 83.5464 26.3352C83.2702 26.3352 83.0464 26.1113 83.0464 25.8352V23.3911C83.0464 23.115 83.2702 22.8911 83.5464 22.8911Z" fill="#bfffc2"/>
<path fill-rule="evenodd" clip-rule="evenodd" d="M86.166 12.3144C86.3613 12.5097 86.3613 12.8263 86.166 13.0215L84.4341 14.7534C84.2389 14.9487 83.9223 14.9487 83.727 14.7534C83.5318 14.5581 83.5318 14.2416 83.727 14.0463L85.4589 12.3144C85.6542 12.1192 85.9707 12.1192 86.166 12.3144Z" fill="#bfffc2"/>
<path fill-rule="evenodd" clip-rule="evenodd" d="M83.3657 15.1142C83.561 15.3095 83.561 15.6261 83.3657 15.8213L81.6338 17.5532C81.4386 17.7485 81.122 17.7485 80.9267 17.5532C80.7315 17.358 80.7315 17.0414 80.9267 16.8461L82.6586 15.1142C82.8539 14.919 83.1705 14.919 83.3657 15.1142Z" fill="#bfffc2"/>
<path fill-rule="evenodd" clip-rule="evenodd" d="M83.727 15.1142C83.9223 14.919 84.2389 14.919 84.4341 15.1142L86.166 16.8461C86.3613 17.0414 86.3613 17.358 86.166 17.5532C85.9707 17.7485 85.6542 17.7485 85.4589 17.5532L83.727 15.8213C83.5318 15.6261 83.5318 15.3095 83.727 15.1142Z" fill="#bfffc2"/>
<path fill-rule="evenodd" clip-rule="evenodd" d="M80.9267 12.3144C81.122 12.1192 81.4386 12.1192 81.6338 12.3144L83.3657 14.0463C83.561 14.2416 83.561 14.5581 83.3657 14.7534C83.1705 14.9487 82.8539 14.9487 82.6586 14.7534L80.9267 13.0215C80.7315 12.8263 80.7315 12.5097 80.9267 12.3144Z" fill="#bfffc2"/>
<path fill-rule="evenodd" clip-rule="evenodd" d="M83.5464 19.0552C83.8225 19.0552 84.0464 19.279 84.0464 19.5552V22.0073C84.0464 22.2835 83.8225 22.5073 83.5464 22.5073C83.2702 22.5073 83.0464 22.2835 83.0464 22.0073V19.5552C83.0464 19.279 83.2702 19.0552 83.5464 19.0552Z" fill="#bfffc2"/>
<path fill-rule="evenodd" clip-rule="evenodd" d="M90.609 30.726C90.8043 30.9213 90.8043 31.2379 90.609 31.4331L87.7603 34.2819C87.565 34.4771 87.2484 34.4771 87.0532 34.2819C86.8579 34.0866 86.8579 33.77 87.0532 33.5747L89.9019 30.726C90.0972 30.5308 90.4137 30.5308 90.609 30.726Z" fill="#bfffc2"/>
<path fill-rule="evenodd" clip-rule="evenodd" d="M90.609 23.1098C90.8043 23.3051 90.8043 23.6217 90.609 23.8169L87.7603 26.6656C87.565 26.8609 87.2484 26.8609 87.0532 26.6656C86.8579 26.4704 86.8579 26.1538 87.0532 25.9585L89.9019 23.1098C90.0972 22.9146 90.4137 22.9146 90.609 23.1098Z" fill="#bfffc2"/>
<path fill-rule="evenodd" clip-rule="evenodd" d="M94.4694 26.8652C94.6646 27.0605 94.6646 27.377 94.4694 27.5723L91.6206 30.421C91.4254 30.6163 91.1088 30.6163 90.9135 30.421C90.7183 30.2258 90.7183 29.9092 90.9135 29.7139L93.7622 26.8652C93.9575 26.6699 94.2741 26.6699 94.4694 26.8652Z" fill="#bfffc2"/>
<path fill-rule="evenodd" clip-rule="evenodd" d="M76.4921 30.726C76.6874 30.5308 77.004 30.5308 77.1993 30.726L80.048 33.5747C80.2432 33.77 80.2432 34.0866 80.048 34.2819C79.8527 34.4771 79.5361 34.4771 79.3409 34.2819L76.4921 31.4331C76.2969 31.2379 76.2969 30.9213 76.4921 30.726Z" fill="#bfffc2"/>
<path fill-rule="evenodd" clip-rule="evenodd" d="M76.4921 23.1098C76.6874 22.9146 77.004 22.9146 77.1993 23.1098L80.048 25.9585C80.2432 26.1538 80.2432 26.4704 80.048 26.6656C79.8527 26.8609 79.5361 26.8609 79.3409 26.6656L76.4921 23.8169C76.2969 23.6217 76.2969 23.3051 76.4921 23.1098Z" fill="#bfffc2"/>
<path fill-rule="evenodd" clip-rule="evenodd" d="M72.6318 26.8652C72.8271 26.6699 73.1436 26.6699 73.3389 26.8652L76.1876 29.7139C76.3829 29.9092 76.3829 30.2258 76.1876 30.421C75.9924 30.6163 75.6758 30.6163 75.4805 30.421L72.6318 27.5723C72.4365 27.377 72.4365 27.0605 72.6318 26.8652Z" fill="#bfffc2"/>
<path fill-rule="evenodd" clip-rule="evenodd" d="M86.7492 34.5298C86.9441 34.7253 86.9437 35.0419 86.7481 35.2369L83.8994 38.0775C83.7039 38.2725 83.3873 38.272 83.1923 38.0765C82.9973 37.8809 82.9978 37.5644 83.1933 37.3694L86.042 34.5288C86.2376 34.3338 86.5542 34.3342 86.7492 34.5298Z" fill="#bfffc2"/>
<path fill-rule="evenodd" clip-rule="evenodd" d="M80.3525 34.5293C80.5478 34.334 80.8643 34.334 81.0596 34.5293L83.9002 37.3699C84.0955 37.5651 84.0955 37.8817 83.9002 38.077C83.705 38.2722 83.3884 38.2722 83.1931 38.077L80.3525 35.2364C80.1572 35.0411 80.1572 34.7245 80.3525 34.5293Z" fill="#bfffc2"/>
<path fill-rule="evenodd" clip-rule="evenodd" d="M83.5464 26.7188C83.8225 26.7188 84.0464 26.9426 84.0464 27.2188V29.6709C84.0464 29.947 83.8225 30.1709 83.5464 30.1709C83.2702 30.1709 83.0464 29.947 83.0464 29.6709V27.2188C83.0464 26.9426 83.2702 26.7188 83.5464 26.7188Z" fill="#bfffc2"/>
<path fill-rule="evenodd" clip-rule="evenodd" d="M83.5464 30.5469C83.8225 30.5469 84.0464 30.7707 84.0464 31.0469V33.499C84.0464 33.7752 83.8225 33.999 83.5464 33.999C83.2702 33.999 83.0464 33.7752 83.0464 33.499V31.0469C83.0464 30.7707 83.2702 30.5469 83.5464 30.5469Z" fill="#bfffc2"/>
<path fill-rule="evenodd" clip-rule="evenodd" d="M72.2974 22.8911C72.5735 22.8911 72.7974 23.115 72.7974 23.3911V25.8352C72.7974 26.1113 72.5735 26.3352 72.2974 26.3352C72.0212 26.3352 71.7974 26.1113 71.7974 25.8352V23.3911C71.7974 23.115 72.0212 22.8911 72.2974 22.8911Z" fill="#bfffc2"/>
<path fill-rule="evenodd" clip-rule="evenodd" d="M94.8037 22.8911C95.0799 22.8911 95.3037 23.115 95.3037 23.3911V25.8352C95.3037 26.1113 95.0799 26.3352 94.8037 26.3352C94.5276 26.3352 94.3037 26.1113 94.3037 25.8352V23.3911C94.3037 23.115 94.5276 22.8911 94.8037 22.8911Z" fill="#bfffc2"/>
<path fill-rule="evenodd" clip-rule="evenodd" d="M91.0972 19.0552C91.3733 19.0552 91.5972 19.279 91.5972 19.5552V22.0073C91.5972 22.2835 91.3733 22.5073 91.0972 22.5073C90.821 22.5073 90.5972 22.2835 90.5972 22.0073V19.5552C90.5972 19.279 90.821 19.0552 91.0972 19.0552Z" fill="#bfffc2"/>
<path fill-rule="evenodd" clip-rule="evenodd" d="M76.1416 19.0552C76.4177 19.0552 76.6416 19.279 76.6416 19.5552V22.0073C76.6416 22.2835 76.4177 22.5073 76.1416 22.5073C75.8655 22.5073 75.6416 22.2835 75.6416 22.0073V19.5552C75.6416 19.279 75.8655 19.0552 76.1416 19.0552Z" fill="#bfffc2"/>
<path fill-rule="evenodd" clip-rule="evenodd" d="M83.5464 34.3828C83.8225 34.3828 84.0464 34.6067 84.0464 34.8828V37.3269C84.0464 37.603 83.8225 37.8269 83.5464 37.8269C83.2702 37.8269 83.0464 37.603 83.0464 37.3269V34.8828C83.0464 34.6067 83.2702 34.3828 83.5464 34.3828Z" fill="#bfffc2"/>
<path fill-rule="evenodd" clip-rule="evenodd" d="M86.7487 26.8652C86.9439 27.0605 86.9439 27.377 86.7487 27.5723L83.8999 30.421C83.7047 30.6163 83.3881 30.6163 83.1928 30.421C82.9976 30.2258 82.9976 29.9092 83.1928 29.7139L86.0415 26.8652C86.2368 26.6699 86.5534 26.6699 86.7487 26.8652Z" fill="#bfffc2"/>
<path fill-rule="evenodd" clip-rule="evenodd" d="M80.353 26.8647C80.5485 26.6697 80.8651 26.6702 81.0601 26.8657L83.9007 29.7144C84.0957 29.9099 84.0953 30.2265 83.8997 30.4215C83.7042 30.6165 83.3876 30.616 83.1926 30.4205L80.352 27.5718C80.157 27.3763 80.1575 27.0597 80.353 26.8647Z" fill="#bfffc2"/>
<path fill-rule="evenodd" clip-rule="evenodd" d="M83.9097 10.9564C84.104 11.1526 84.1023 11.4692 83.9061 11.6635L83.113 12.4485C82.9167 12.6427 82.6001 12.6411 82.4059 12.4449C82.2116 12.2486 82.2132 11.932 82.4095 11.7378L83.2026 10.9527C83.3989 10.7585 83.7154 10.7601 83.9097 10.9564Z" fill="#bfffc2"/>
<path fill-rule="evenodd" clip-rule="evenodd" d="M83.1993 10.9564C83.3936 10.7601 83.7101 10.7585 83.9064 10.9527L84.6914 11.7296C84.8877 11.9239 84.8893 12.2405 84.6951 12.4367C84.5008 12.633 84.1843 12.6347 83.988 12.4404L83.203 11.6635C83.0067 11.4692 83.0051 11.1527 83.1993 10.9564Z" fill="#bfffc2"/>
<path fill-rule="evenodd" clip-rule="evenodd" d="M84.6949 17.4149C84.8891 17.6111 84.8875 17.9277 84.6912 18.122L83.8981 18.907C83.7019 19.1012 83.3853 19.0996 83.191 18.9034C82.9968 18.7071 82.9984 18.3905 83.1947 18.1963L83.9878 17.4112C84.184 17.217 84.5006 17.2186 84.6949 17.4149Z" fill="#bfffc2"/>
<path fill-rule="evenodd" clip-rule="evenodd" d="M82.4077 17.413C82.6029 17.2178 82.9195 17.2178 83.1148 17.413L83.8998 18.1981C84.0951 18.3933 84.0951 18.7099 83.8998 18.9052C83.7045 19.1004 83.388 19.1004 83.1927 18.9052L82.4077 18.1202C82.2124 17.9249 82.2124 17.6083 82.4077 17.413Z" fill="#bfffc2"/>
<path fill-rule="evenodd" clip-rule="evenodd" d="M86.0332 13.7876C86.2284 13.5923 86.545 13.5923 86.7403 13.7876L87.5253 14.5726C87.7205 14.7678 87.7205 15.0844 87.5253 15.2797C87.33 15.4749 87.0134 15.4749 86.8182 15.2797L86.0332 14.4947C85.8379 14.2994 85.8379 13.9828 86.0332 13.7876Z" fill="#bfffc2"/>
<path fill-rule="evenodd" clip-rule="evenodd" d="M87.5253 14.5722C87.7205 14.7675 87.7205 15.0841 87.5253 15.2793L86.7403 16.0643C86.545 16.2596 86.2284 16.2596 86.0332 16.0643C85.8379 15.8691 85.8379 15.5525 86.0332 15.3572L86.8182 14.5722C87.0134 14.377 87.33 14.377 87.5253 14.5722Z" fill="#bfffc2"/>
<path fill-rule="evenodd" clip-rule="evenodd" d="M79.5752 14.5722C79.7704 14.377 80.087 14.377 80.2823 14.5722L81.0673 15.3572C81.2625 15.5525 81.2625 15.8691 81.0673 16.0643C80.872 16.2596 80.5554 16.2596 80.3602 16.0643L79.5752 15.2793C79.3799 15.0841 79.3799 14.7675 79.5752 14.5722Z" fill="#bfffc2"/>
<path fill-rule="evenodd" clip-rule="evenodd" d="M81.0673 13.7876C81.2625 13.9828 81.2625 14.2994 81.0673 14.4947L80.2823 15.2797C80.087 15.4749 79.7704 15.4749 79.5752 15.2797C79.3799 15.0844 79.3799 14.7678 79.5752 14.5726L80.3602 13.7876C80.5554 13.5923 80.872 13.5923 81.0673 13.7876Z" fill="#bfffc2"/>
</svg>
