<?xml version="1.0" encoding="utf-8"?>
<!-- Generator: Adobe Illustrator 28.1.0, SVG Export Plug-In . SVG Version: 6.00 Build 0)  -->
<svg version="1.1" id="Layer_1" xmlns="http://www.w3.org/2000/svg" xmlns:xlink="http://www.w3.org/1999/xlink" x="0px" y="0px"
	 viewBox="0 0 863 116" style="enable-background:new 0 0 863 116;" xml:space="preserve">
<style type="text/css">
	.st0{fill:#BFFFC2;}
	.st1{fill-rule:evenodd;clip-rule:evenodd;fill:#BFFFC2;}
</style>
<path class="st0" d="M662.4,113.7V1.9h13.4l59.6,89.6V1.9h13.4v111.8h-13.4l-59.6-89.6v89.6H662.4z"/>
<path class="st0" d="M554.1,113.7L595.3,1.9h14.2l41.1,111.8h-14.2L626.2,85h-47.6l-10.4,28.8H554.1z M582.6,74.1h39.6l-19.8-55.3
	L582.6,74.1z"/>
<path class="st0" d="M457.5,113.7V1.9H471v49.4h58V1.9h13.4v111.8h-13.4V62.3h-58v51.4H457.5z"/>
<path class="st0" d="M349.2,113.7L390.4,1.9h14.2l41.1,111.8h-14.2L421.3,85h-47.6l-10.4,28.8H349.2z M377.7,74.1h39.6l-19.8-55.3
	L377.7,74.1z"/>
<path class="st0" d="M250.9,113.7V1.9h13.4l59.6,89.6V1.9h13.4v111.8h-13.4l-59.6-89.6v89.6H250.9z"/>
<path class="st0" d="M181.2,115.6c-11,0-20.6-2.4-28.9-7.2c-8.2-4.9-14.6-11.7-19.3-20.4c-4.6-8.7-6.9-18.8-6.9-30.2
	c0-11.4,2.3-21.4,6.9-30c4.7-8.7,11.1-15.5,19.3-20.4c8.3-4.9,17.9-7.3,28.9-7.3c11.1,0,20.7,2.4,28.9,7.3
	c8.3,4.9,14.7,11.7,19.3,20.4c4.6,8.6,6.9,18.6,6.9,30c0,11.4-2.3,21.5-6.9,30.2c-4.6,8.7-11,15.5-19.3,20.4
	C202,113.2,192.3,115.6,181.2,115.6z M181.2,103.8c8.2,0,15.4-1.8,21.6-5.4c6.3-3.7,11.1-9,14.5-15.8c3.5-6.9,5.3-15.2,5.3-24.8
	c0-9.6-1.8-17.8-5.3-24.6c-3.4-6.8-8.3-12-14.5-15.7c-6.2-3.7-13.4-5.6-21.6-5.6c-8.2,0-15.4,1.9-21.7,5.6
	c-6.2,3.6-11,8.8-14.5,15.7c-3.4,6.8-5.1,15-5.1,24.6c0,9.6,1.7,17.8,5.1,24.8c3.5,6.8,8.4,12.1,14.5,15.8
	C165.8,102,173,103.8,181.2,103.8z"/>
<path class="st0" d="M0,113.7V1.9h15.7l40.3,77.9L95.8,1.9h15.8v111.8H98.2V25.9L60.9,97.8H50.8L13.4,26v87.7H0z"/>
<path class="st0" d="M813.2,80.2V64.7h-5.3V62h14v2.7h-5.3v15.6H813.2z"/>
<path class="st0" d="M792.7,80.2V62h6.7c1.5,0,2.7,0.3,3.6,0.8c1,0.5,1.7,1.2,2.1,2c0.5,0.8,0.7,1.8,0.7,2.8c0,1.1-0.3,2.1-0.9,3.1
	c-0.6,0.9-1.5,1.6-2.7,2l3.8,7.6h-3.8l-3.4-7.2h-2.8v7.2H792.7z M796.1,70.6h3.2c1.1,0,1.9-0.3,2.5-0.8c0.5-0.5,0.8-1.3,0.8-2.1
	c0-0.9-0.3-1.6-0.8-2.1c-0.5-0.5-1.3-0.8-2.5-0.8h-3.1V70.6z"/>
<path class="st0" d="M773.2,80.2l6.7-18.3h3.8l6.7,18.3h-3.5l-1.5-4.2h-7.1l-1.5,4.2H773.2z M779.1,73.4h5.3l-2.7-7.6L779.1,73.4z"
	/>
<path class="st0" d="M854,50.5c-1.8,0-3.4-0.4-4.7-1.2c-1.3-0.8-2.3-1.9-3.1-3.3c-0.7-1.4-1.1-3.1-1.1-4.9s0.4-3.5,1.1-4.9
	c0.7-1.4,1.7-2.5,3.1-3.3c1.3-0.8,2.9-1.2,4.7-1.2c2.2,0,4,0.5,5.4,1.6c1.4,1.1,2.3,2.6,2.6,4.6h-3.7c-0.2-1-0.7-1.8-1.5-2.3
	c-0.7-0.6-1.7-0.9-2.9-0.9c-1.7,0-3,0.6-4,1.7c-1,1.1-1.4,2.7-1.4,4.7c0,2,0.5,3.6,1.4,4.7c1,1.1,2.3,1.7,4,1.7
	c1.2,0,2.2-0.3,2.9-0.8c0.7-0.5,1.2-1.3,1.5-2.2h3.7c-0.3,1.9-1.2,3.3-2.6,4.4C858,50,856.2,50.5,854,50.5z"/>
<path class="st0" d="M838.9,50.2V32h3.3v18.3H838.9z"/>
<path class="st0" d="M824.5,50.2V32h3.3v15.7h8.1v2.6H824.5z"/>
<path class="st0" d="M808,50.2V32h7.3c1.9,0,3.3,0.4,4.3,1.3c1,0.9,1.5,2,1.5,3.4c0,1.1-0.3,2.1-0.9,2.8c-0.6,0.7-1.4,1.1-2.2,1.4
	c1,0.2,1.9,0.7,2.6,1.6c0.7,0.8,1,1.8,1,2.9c0,1.4-0.5,2.6-1.6,3.6c-1,0.9-2.5,1.4-4.4,1.4H808z M811.4,39.6h3.5
	c0.9,0,1.7-0.2,2.2-0.7c0.5-0.4,0.8-1.1,0.8-1.9c0-0.8-0.3-1.4-0.8-1.8c-0.5-0.5-1.2-0.7-2.2-0.7h-3.4V39.6z M811.4,47.5h3.7
	c1,0,1.8-0.2,2.3-0.7c0.6-0.5,0.8-1.1,0.8-2c0-0.9-0.3-1.5-0.9-2c-0.6-0.5-1.3-0.7-2.3-0.7h-3.7V47.5z"/>
<path class="st0" d="M797.3,50.5c-1.3,0-2.5-0.3-3.6-0.8c-1.1-0.5-1.9-1.3-2.6-2.4c-0.6-1.1-0.9-2.4-0.9-4.1V32h3.3v11.3
	c0,1.4,0.3,2.5,1,3.2c0.7,0.7,1.7,1,2.9,1c1.2,0,2.1-0.3,2.8-1c0.7-0.7,1-1.8,1-3.2V32h3.3v11.3c0,1.7-0.3,3-1,4.1
	c-0.7,1.1-1.5,1.9-2.7,2.4C799.9,50.3,798.7,50.5,797.3,50.5z"/>
<path class="st0" d="M774.4,50.2V32h6.8c1.5,0,2.7,0.2,3.6,0.7c1,0.5,1.7,1.2,2.1,2c0.5,0.9,0.7,1.8,0.7,2.9c0,1-0.2,1.9-0.7,2.8
	c-0.5,0.8-1.2,1.5-2.1,2c-1,0.5-2.2,0.8-3.7,0.8h-3.4v7.1H774.4z M777.8,40.4h3.2c1.2,0,2-0.3,2.5-0.8c0.5-0.5,0.8-1.2,0.8-2.1
	c0-0.9-0.3-1.6-0.8-2.1c-0.5-0.5-1.3-0.8-2.5-0.8h-3.2V40.4z"/>
<path class="st0" d="M813.2,20.2V4.7h-5.3V2h14v2.7h-5.3v15.6H813.2z"/>
<path class="st0" d="M792.7,20.2V2h6.7c1.5,0,2.7,0.3,3.6,0.8c1,0.5,1.7,1.2,2.1,2c0.5,0.8,0.7,1.8,0.7,2.8c0,1.1-0.3,2.1-0.9,3.1
	c-0.6,0.9-1.5,1.6-2.7,2l3.8,7.6h-3.8l-3.4-7.2h-2.8v7.2H792.7z M796.1,10.6h3.2c1.1,0,1.9-0.3,2.5-0.8c0.5-0.5,0.8-1.3,0.8-2.1
	c0-0.9-0.3-1.6-0.8-2.1c-0.5-0.5-1.3-0.8-2.5-0.8h-3.1V10.6z"/>
<path class="st0" d="M773.2,20.2L779.9,2h3.8l6.7,18.3h-3.5l-1.5-4.2h-7.1l-1.5,4.2H773.2z M779.1,13.4h5.3l-2.7-7.6L779.1,13.4z"/>
<path class="st1" d="M181.4,47.1c0.4,0,0.7,0.3,0.7,0.7v5.5c0,0.4-0.3,0.7-0.7,0.7c-0.4,0-0.7-0.3-0.7-0.7v-5.5
	C180.7,47.4,181,47.1,181.4,47.1z"/>
<path class="st1" d="M187,22.9c0.3,0.3,0.3,0.7,0,1l-3.9,3.9c-0.3,0.3-0.7,0.3-1,0c-0.3-0.3-0.3-0.7,0-1l3.9-3.9
	C186.3,22.7,186.8,22.7,187,22.9z"/>
<path class="st1" d="M180.7,29.3c0.3,0.3,0.3,0.7,0,1l-3.9,3.9c-0.3,0.3-0.7,0.3-1,0c-0.3-0.3-0.3-0.7,0-1l3.9-3.9
	C180,29,180.4,29,180.7,29.3z"/>
<path class="st1" d="M182.1,29.3c0.3-0.3,0.7-0.3,1,0l3.9,3.9c0.3,0.3,0.3,0.7,0,1c-0.3,0.3-0.7,0.3-1,0l-3.9-3.9
	C181.9,30,181.9,29.5,182.1,29.3z"/>
<path class="st1" d="M175.8,22.9c0.3-0.3,0.7-0.3,1,0l3.9,3.9c0.3,0.3,0.3,0.7,0,1c-0.3,0.3-0.7,0.3-1,0l-3.9-3.9
	C175.5,23.6,175.5,23.2,175.8,22.9z"/>
<path class="st1" d="M181.4,38.3c0.4,0,0.7,0.3,0.7,0.7v5.6c0,0.4-0.3,0.7-0.7,0.7c-0.4,0-0.7-0.3-0.7-0.7V39
	C180.7,38.7,181,38.3,181.4,38.3z"/>
<path class="st1" d="M188.4,90.7c0.3,0.3,0.3,0.7,0,1l-6.5,6.5c-0.3,0.3-0.7,0.3-1,0c-0.3-0.3-0.3-0.7,0-1l6.5-6.5
	C187.7,90.5,188.1,90.5,188.4,90.7z"/>
<path class="st1" d="M197.1,82c0.3,0.3,0.3,0.7,0,1l-6.5,6.5c-0.3,0.3-0.7,0.3-1,0c-0.3-0.3-0.3-0.7,0-1l6.5-6.5
	C196.4,81.7,196.9,81.7,197.1,82z"/>
<path class="st1" d="M205.9,73.2c0.3,0.3,0.3,0.7,0,1l-6.5,6.4c-0.3,0.3-0.7,0.3-1,0c-0.3-0.3-0.3-0.7,0-1l6.5-6.4
	C205.2,73,205.6,73,205.9,73.2z"/>
<path class="st1" d="M197.1,64.7c0.3,0.3,0.3,0.7,0,1l-6.5,6.5c-0.3,0.3-0.7,0.3-1,0c-0.3-0.3-0.3-0.7,0-1l6.5-6.5
	C196.4,64.4,196.9,64.4,197.1,64.7z"/>
<path class="st1" d="M197.1,47.4c0.3,0.3,0.3,0.7,0,1l-6.5,6.5c-0.3,0.3-0.7,0.3-1,0c-0.3-0.3-0.3-0.7,0-1l6.5-6.5
	C196.4,47.2,196.9,47.2,197.1,47.4z"/>
<path class="st1" d="M205.9,55.9c0.3,0.3,0.3,0.7,0,1l-6.5,6.5c-0.3,0.3-0.7,0.3-1,0c-0.3-0.3-0.3-0.7,0-1l6.5-6.5
	C205.2,55.7,205.6,55.7,205.9,55.9z"/>
<path class="st1" d="M214.6,64.5c0.3,0.3,0.3,0.7,0,1l-6.5,6.5c-0.3,0.3-0.7,0.3-1,0c-0.3-0.3-0.3-0.7,0-1l6.5-6.5
	C213.9,64.2,214.4,64.2,214.6,64.5z"/>
<path class="st1" d="M174.5,90.7c0.3-0.3,0.7-0.3,1,0l6.4,6.5c0.3,0.3,0.3,0.7,0,1c-0.3,0.3-0.7,0.3-1,0l-6.4-6.5
	C174.2,91.4,174.2,91,174.5,90.7z"/>
<path class="st1" d="M165.7,82c0.3-0.3,0.7-0.3,1,0l6.5,6.5c0.3,0.3,0.3,0.7,0,1c-0.3,0.3-0.7,0.3-1,0l-6.5-6.5
	C165.5,82.7,165.5,82.2,165.7,82z"/>
<path class="st1" d="M157,73.2c0.3-0.3,0.7-0.3,1,0l6.5,6.4c0.3,0.3,0.3,0.7,0,1c-0.3,0.3-0.7,0.3-1,0l-6.5-6.4
	C156.7,73.9,156.7,73.5,157,73.2z"/>
<path class="st1" d="M165.7,64.7c0.3-0.3,0.7-0.3,1,0l6.5,6.5c0.3,0.3,0.3,0.7,0,1c-0.3,0.3-0.7,0.3-1,0l-6.5-6.5
	C165.5,65.4,165.5,65,165.7,64.7z"/>
<path class="st1" d="M165.7,47.4c0.3-0.3,0.7-0.3,1,0l6.5,6.5c0.3,0.3,0.3,0.7,0,1c-0.3,0.3-0.7,0.3-1,0l-6.5-6.5
	C165.5,48.1,165.5,47.7,165.7,47.4z"/>
<path class="st1" d="M157,55.9c0.3-0.3,0.7-0.3,1,0l6.5,6.5c0.3,0.3,0.3,0.7,0,1c-0.3,0.3-0.7,0.3-1,0l-6.5-6.5
	C156.7,56.6,156.7,56.2,157,55.9z"/>
<path class="st1" d="M148.2,64.5c0.3-0.3,0.7-0.3,1,0l6.5,6.5c0.3,0.3,0.3,0.7,0,1c-0.3,0.3-0.7,0.3-1,0l-6.5-6.5
	C147.9,65.2,147.9,64.7,148.2,64.5z"/>
<path class="st1" d="M188.4,73.3c0.3,0.3,0.3,0.7,0,1l-6.5,6.4c-0.3,0.3-0.7,0.3-1,0c-0.3-0.3-0.3-0.7,0-1l6.5-6.4
	C187.7,73.1,188.1,73.1,188.4,73.3z"/>
<path class="st1" d="M174.5,73.3c0.3-0.3,0.7-0.3,1,0l6.4,6.4c0.3,0.3,0.3,0.7,0,1c-0.3,0.3-0.7,0.3-1,0l-6.4-6.4
	C174.2,74,174.2,73.6,174.5,73.3z"/>
<path class="st1" d="M181.4,55.7c0.4,0,0.7,0.3,0.7,0.7V62c0,0.4-0.3,0.7-0.7,0.7c-0.4,0-0.7-0.3-0.7-0.7v-5.6
	C180.7,56,181,55.7,181.4,55.7z"/>
<path class="st1" d="M181.4,64.4c0.4,0,0.7,0.3,0.7,0.7v5.6c0,0.4-0.3,0.7-0.7,0.7c-0.4,0-0.7-0.3-0.7-0.7v-5.6
	C180.7,64.7,181,64.4,181.4,64.4z"/>
<path class="st1" d="M215.6,55.7c0.4,0,0.7,0.3,0.7,0.7V62c0,0.4-0.3,0.7-0.7,0.7c-0.4,0-0.7-0.3-0.7-0.7v-5.6
	C214.9,56,215.2,55.7,215.6,55.7z"/>
<path class="st1" d="M147.3,55.7c0.4,0,0.7,0.3,0.7,0.7V62c0,0.4-0.3,0.7-0.7,0.7c-0.4,0-0.7-0.3-0.7-0.7v-5.6
	C146.6,56,147,55.7,147.3,55.7z"/>
<path class="st1" d="M155.9,47.1c0.4,0,0.7,0.3,0.7,0.7v5.5c0,0.4-0.3,0.7-0.7,0.7s-0.7-0.3-0.7-0.7v-5.5
	C155.2,47.4,155.5,47.1,155.9,47.1z"/>
<path class="st1" d="M207,47.1c0.4,0,0.7,0.3,0.7,0.7v5.5c0,0.4-0.3,0.7-0.7,0.7s-0.7-0.3-0.7-0.7v-5.5
	C206.3,47.4,206.6,47.1,207,47.1z"/>
<path class="st1" d="M198.5,38.3c0.4,0,0.7,0.3,0.7,0.7v5.6c0,0.4-0.3,0.7-0.7,0.7c-0.4,0-0.7-0.3-0.7-0.7V39
	C197.9,38.7,198.2,38.3,198.5,38.3z"/>
<path class="st1" d="M164.6,38.3c0.4,0,0.7,0.3,0.7,0.7v5.6c0,0.4-0.3,0.7-0.7,0.7c-0.4,0-0.7-0.3-0.7-0.7V39
	C163.9,38.7,164.2,38.3,164.6,38.3z"/>
<path class="st1" d="M181.4,73.1c0.4,0,0.7,0.3,0.7,0.7v5.5c0,0.4-0.3,0.7-0.7,0.7c-0.4,0-0.7-0.3-0.7-0.7v-5.5
	C180.7,73.4,181,73.1,181.4,73.1z"/>
<path class="st1" d="M188.4,55.9c0.3,0.3,0.3,0.7,0,1l-6.5,6.5c-0.3,0.3-0.7,0.3-1,0c-0.3-0.3-0.3-0.7,0-1l6.5-6.5
	C187.7,55.7,188.1,55.7,188.4,55.9z"/>
<path class="st1" d="M174.5,55.9c0.3-0.3,0.7-0.3,1,0l6.4,6.5c0.3,0.3,0.3,0.7,0,1c-0.3,0.3-0.7,0.3-1,0l-6.4-6.5
	C174.2,56.6,174.2,56.2,174.5,55.9z"/>
<path class="st1" d="M181.9,19.8c0.3,0.3,0.3,0.7,0,1l-1.8,1.8c-0.3,0.3-0.7,0.3-1,0c-0.3-0.3-0.3-0.7,0-1l1.8-1.8
	C181.2,19.6,181.7,19.6,181.9,19.8z"/>
<path class="st1" d="M180.9,19.8c0.3-0.3,0.7-0.3,1,0l1.8,1.8c0.3,0.3,0.3,0.7,0,1c-0.3,0.3-0.7,0.3-1,0l-1.8-1.8
	C180.7,20.5,180.7,20.1,180.9,19.8z"/>
<path class="st1" d="M183.7,34.5c0.3,0.3,0.3,0.7,0,1l-1.8,1.8c-0.3,0.3-0.7,0.3-1,0c-0.3-0.3-0.3-0.7,0-1l1.8-1.8
	C183,34.2,183.4,34.2,183.7,34.5z"/>
<path class="st1" d="M179.2,34.5c0.3-0.3,0.7-0.3,1,0l1.8,1.8c0.3,0.3,0.3,0.7,0,1c-0.3,0.3-0.7,0.3-1,0l-1.8-1.8
	C178.9,35.2,178.9,34.8,179.2,34.5z"/>
<path class="st1" d="M187.4,26.3c0.3-0.3,0.7-0.3,1,0l1.8,1.8c0.3,0.3,0.3,0.7,0,1c-0.3,0.3-0.7,0.3-1,0l-1.8-1.8
	C187.1,27,187.1,26.5,187.4,26.3z"/>
<path class="st1" d="M190.1,28c0.3,0.3,0.3,0.7,0,1l-1.8,1.8c-0.3,0.3-0.7,0.3-1,0c-0.3-0.3-0.3-0.7,0-1l1.8-1.8
	C189.4,27.8,189.9,27.8,190.1,28z"/>
<path class="st1" d="M172.7,28c0.3-0.3,0.7-0.3,1,0l1.8,1.8c0.3,0.3,0.3,0.7,0,1c-0.3,0.3-0.7,0.3-1,0l-1.8-1.8
	C172.5,28.7,172.5,28.3,172.7,28z"/>
<path class="st1" d="M175.5,26.3c0.3,0.3,0.3,0.7,0,1l-1.8,1.8c-0.3,0.3-0.7,0.3-1,0c-0.3-0.3-0.3-0.7,0-1l1.8-1.8
	C174.8,26,175.2,26,175.5,26.3z"/>
<path class="st1" d="M181.4,81.8c0.4,0,0.7,0.3,0.7,0.7v5.6c0,0.4-0.3,0.7-0.7,0.7c-0.4,0-0.7-0.3-0.7-0.7v-5.6
	C180.7,82.1,181,81.8,181.4,81.8z"/>
<path class="st1" d="M181.4,90.5c0.4,0,0.7,0.3,0.7,0.7v5.6c0,0.4-0.3,0.7-0.7,0.7c-0.4,0-0.7-0.3-0.7-0.7v-5.6
	C180.7,90.8,181,90.5,181.4,90.5z"/>
</svg>
