<?xml version="1.0" encoding="UTF-8"?><svg id="Layer_1" xmlns="http://www.w3.org/2000/svg" viewBox="0 0 337.07 107.54"><path d="m323.19,107.01v-27.32h-9.21v-3.83h23.1v3.83h-9.17v27.32h-4.72Z" fill="#c30cea"/><path d="m288.82,107.01v-31.15h10.72c2.46,0,4.48.42,6.05,1.25,1.6.83,2.79,1.96,3.56,3.38.77,1.39,1.16,2.95,1.16,4.67,0,1.93-.52,3.68-1.56,5.25-1.01,1.57-2.6,2.7-4.76,3.38l6.63,13.22h-5.47l-6.05-12.55h-5.56v12.55h-4.72Zm4.72-16.11h5.74c2.14,0,3.69-.52,4.67-1.56,1.01-1.04,1.51-2.39,1.51-4.05s-.49-2.98-1.47-3.96c-.98-1.01-2.57-1.51-4.76-1.51h-5.7v11.08Z" fill="#c30cea"/><path d="m256.44,107.01l11.48-31.15h5.16l11.39,31.15h-4.98l-2.67-7.61h-12.73l-2.67,7.61h-4.98Zm8.99-11.35h10.06l-5.03-14.2-5.03,14.2Z" fill="#c30cea"/><path d="m228.7,107.54c-3.09,0-5.76-.67-8.01-2-2.23-1.36-3.95-3.25-5.16-5.65-1.22-2.43-1.82-5.24-1.82-8.41s.61-6.01,1.82-8.41c1.22-2.43,2.94-4.33,5.16-5.7,2.25-1.36,4.92-2.05,8.01-2.05,3.65,0,6.63.89,8.94,2.67s3.78,4.27,4.41,7.48h-5.25c-.42-1.81-1.31-3.25-2.67-4.32-1.37-1.07-3.19-1.6-5.47-1.6-3.12,0-5.58,1.07-7.39,3.2-1.81,2.11-2.71,5.01-2.71,8.72s.9,6.57,2.71,8.68c1.81,2.11,4.27,3.16,7.39,3.16,2.29,0,4.11-.51,5.47-1.51,1.36-1.01,2.25-2.39,2.67-4.14h5.25c-.62,3.09-2.09,5.5-4.41,7.25-2.31,1.75-5.29,2.62-8.94,2.62Z" fill="#c30cea"/><path d="m203.77,107.01v-31.15h4.72v31.15h-4.72Z" fill="#c30cea"/><path d="m179.83,107.01v-31.15h4.72v27.41h14.15v3.74h-18.87Z" fill="#c30cea"/><path d="m152.36,107.01v-31.15h11.75c3.23,0,5.68.76,7.34,2.27,1.66,1.51,2.49,3.41,2.49,5.7,0,1.99-.53,3.57-1.6,4.76-1.07,1.16-2.36,1.94-3.87,2.36,1.19.24,2.24.71,3.16,1.42.95.71,1.69,1.6,2.22,2.67.53,1.07.8,2.22.8,3.47,0,1.6-.4,3.06-1.2,4.36-.77,1.28-1.91,2.28-3.43,3.03-1.51.74-3.37,1.11-5.56,1.11h-12.1Zm4.72-17.8h6.45c1.81,0,3.19-.42,4.14-1.25.95-.86,1.42-2.03,1.42-3.52s-.47-2.61-1.42-3.47c-.92-.86-2.33-1.29-4.23-1.29h-6.36v9.52Zm0,13.93h6.76c1.9,0,3.37-.44,4.4-1.33,1.07-.89,1.6-2.14,1.6-3.74s-.55-2.86-1.65-3.78c-1.1-.95-2.58-1.42-4.45-1.42h-6.68v10.28Z" fill="#c30cea"/><path d="m134.3,107.54c-2.23,0-4.24-.43-6.05-1.29-1.78-.89-3.2-2.24-4.27-4.05-1.04-1.81-1.56-4.11-1.56-6.9v-19.45h4.72v19.49c0,2.73.65,4.73,1.96,6.01,1.31,1.28,3.07,1.91,5.29,1.91s3.95-.64,5.25-1.91c1.3-1.28,1.96-3.28,1.96-6.01v-19.49h4.72v19.45c0,2.79-.55,5.09-1.65,6.9-1.07,1.81-2.52,3.16-4.36,4.05-1.81.86-3.81,1.29-6.01,1.29Z" fill="#c30cea"/><path d="m96.26,107.01v-31.15h10.9c2.43,0,4.45.42,6.05,1.25,1.6.8,2.79,1.91,3.56,3.34.8,1.39,1.2,2.98,1.2,4.76s-.39,3.25-1.16,4.67c-.74,1.39-1.91,2.51-3.52,3.34-1.6.83-3.65,1.25-6.14,1.25h-6.19v12.55h-4.72Zm4.72-16.42h5.96c2.22,0,3.81-.47,4.76-1.42.98-.98,1.47-2.3,1.47-3.96s-.49-3.06-1.47-4c-.95-.98-2.54-1.47-4.76-1.47h-5.96v10.86Z" fill="#c30cea"/><path d="m66.75,107.01v-27.32h-9.21v-3.83h23.1v3.83h-9.17v27.32h-4.72Z" fill="#c30cea"/><path d="m32.38,107.01v-31.15h10.72c2.46,0,4.48.42,6.05,1.25,1.6.83,2.79,1.96,3.56,3.38.77,1.39,1.16,2.95,1.16,4.67,0,1.93-.52,3.68-1.56,5.25-1.01,1.57-2.6,2.7-4.76,3.38l6.63,13.22h-5.47l-6.05-12.55h-5.56v12.55h-4.72Zm4.72-16.11h5.74c2.14,0,3.69-.52,4.67-1.56,1.01-1.04,1.51-2.39,1.51-4.05s-.49-2.98-1.47-3.96c-.98-1.01-2.57-1.51-4.76-1.51h-5.7v11.08Z" fill="#c30cea"/><path d="m0,107.01l11.48-31.15h5.16l11.39,31.15h-4.98l-2.67-7.61H7.65l-2.67,7.61H0Zm8.99-11.35h10.06l-5.03-14.2-5.03,14.2Z" fill="#c30cea"/><path d="m297.01,49.39V.83h7.35l24.35,36.56V.83h7.35v48.56h-7.35l-24.35-36.56v36.56h-7.35Z" fill="#c30cea"/><path d="m248.62,49.39L266.52.83h8.05l17.76,48.56h-7.77l-4.16-11.86h-19.84l-4.16,11.86h-7.77Zm14.01-17.69h15.68l-7.84-22.13-7.84,22.13Z" fill="#c30cea"/><path d="m205.73,49.39V.83h7.35v20.81h23.52V.83h7.35v48.56h-7.35v-21.71h-23.52v21.71h-7.35Z" fill="#c30cea"/><path d="m157.33,49.39L175.23.83h8.05l17.76,48.56h-7.77l-4.16-11.86h-19.84l-4.16,11.86h-7.77Zm14.01-17.69h15.68l-7.84-22.13-7.84,22.13Z" fill="#c30cea"/><path d="m113.63,49.39V.83h7.35l24.35,36.56V.83h7.35v48.56h-7.35l-24.35-36.56v36.56h-7.35Z" fill="#c30cea"/><path d="m83.45,50.22c-4.81,0-9.02-1.06-12.62-3.19-3.61-2.13-6.43-5.06-8.46-8.81-2.03-3.79-3.05-8.16-3.05-13.11s1.02-9.3,3.05-13.04c2.03-3.79,4.86-6.75,8.46-8.88,3.61-2.13,7.82-3.19,12.62-3.19s9.02,1.06,12.62,3.19c3.61,2.13,6.41,5.09,8.39,8.88,2.04,3.75,3.05,8.09,3.05,13.04s-1.02,9.32-3.05,13.11c-1.99,3.75-4.79,6.68-8.39,8.81-3.61,2.13-7.82,3.19-12.62,3.19Zm0-6.59c3.33,0,6.22-.74,8.67-2.22,2.5-1.48,4.44-3.61,5.83-6.38,1.39-2.77,2.08-6.08,2.08-9.92s-.69-7.14-2.08-9.92c-1.39-2.77-3.33-4.9-5.83-6.38-2.45-1.48-5.34-2.22-8.67-2.22s-6.24.74-8.74,2.22c-2.5,1.48-4.44,3.61-5.83,6.38-1.34,2.77-2.01,6.08-2.01,9.92s.67,7.14,2.01,9.92c1.39,2.77,3.33,4.9,5.83,6.38,2.5,1.48,5.41,2.22,8.74,2.22Z" fill="#c30cea"/><path d="m3.1,49.39V.83h8.67l16.44,32.32L44.59.83h8.67v48.56h-7.35V13.53l-14.84,28.93h-5.69L10.46,13.6v35.79H3.1Z" fill="#c30cea"/><path d="m83.55,22.89c.28,0,.5.22.5.5v2.44c0,.28-.22.5-.5.5s-.5-.22-.5-.5v-2.44c0-.28.22-.5.5-.5Z" fill="#c30cea" fill-rule="evenodd"/><path d="m86.17,12.31c.2.2.2.51,0,.71l-1.73,1.73c-.2.2-.51.2-.71,0-.2-.2-.2-.51,0-.71l1.73-1.73c.2-.2.51-.2.71,0Z" fill="#c30cea" fill-rule="evenodd"/><path d="m83.37,15.11c.2.2.2.51,0,.71l-1.73,1.73c-.2.2-.51.2-.71,0-.2-.2-.2-.51,0-.71l1.73-1.73c.2-.2.51-.2.71,0Z" fill="#c30cea" fill-rule="evenodd"/><path d="m83.73,15.11c.2-.2.51-.2.71,0l1.73,1.73c.2.2.2.51,0,.71-.2.2-.51.2-.71,0l-1.73-1.73c-.2-.2-.2-.51,0-.71Z" fill="#c30cea" fill-rule="evenodd"/><path d="m80.93,12.31c.2-.2.51-.2.71,0l1.73,1.73c.2.2.2.51,0,.71-.2.2-.51.2-.71,0l-1.73-1.73c-.2-.2-.2-.51,0-.71Z" fill="#c30cea" fill-rule="evenodd"/><path d="m83.55,19.06c.28,0,.5.22.5.5v2.45c0,.28-.22.5-.5.5s-.5-.22-.5-.5v-2.45c0-.28.22-.5.5-.5Z" fill="#c30cea" fill-rule="evenodd"/><path d="m90.61,30.73c.2.2.2.51,0,.71l-2.85,2.85c-.2.2-.51.2-.71,0-.2-.2-.2-.51,0-.71l2.85-2.85c.2-.2.51-.2.71,0Z" fill="#c30cea" fill-rule="evenodd"/><path d="m90.61,23.11c.2.2.2.51,0,.71l-2.85,2.85c-.2.2-.51.2-.71,0-.2-.2-.2-.51,0-.71l2.85-2.85c.2-.2.51-.2.71,0Z" fill="#c30cea" fill-rule="evenodd"/><path d="m94.47,26.87c.2.2.2.51,0,.71l-2.85,2.85c-.2.2-.51.2-.71,0-.2-.2-.2-.51,0-.71l2.85-2.85c.2-.2.51-.2.71,0Z" fill="#c30cea" fill-rule="evenodd"/><path d="m76.49,30.73c.2-.2.51-.2.71,0l2.85,2.85c.2.2.2.51,0,.71-.2.2-.51.2-.71,0l-2.85-2.85c-.2-.2-.2-.51,0-.71Z" fill="#c30cea" fill-rule="evenodd"/><path d="m76.49,23.11c.2-.2.51-.2.71,0l2.85,2.85c.2.2.2.51,0,.71-.2.2-.51.2-.71,0l-2.85-2.85c-.2-.2-.2-.51,0-.71Z" fill="#c30cea" fill-rule="evenodd"/><path d="m72.63,26.87c.2-.2.51-.2.71,0l2.85,2.85c.2.2.2.51,0,.71-.2.2-.51.2-.71,0l-2.85-2.85c-.2-.2-.2-.51,0-.71Z" fill="#c30cea" fill-rule="evenodd"/><path d="m86.75,34.53c.19.2.19.51,0,.71l-2.85,2.84c-.2.19-.51.19-.71,0-.19-.2-.19-.51,0-.71l2.85-2.84c.2-.19.51-.19.71,0Z" fill="#c30cea" fill-rule="evenodd"/><path d="m80.35,34.53c.2-.2.51-.2.71,0l2.84,2.84c.2.2.2.51,0,.71-.2.2-.51.2-.71,0l-2.84-2.84c-.2-.2-.2-.51,0-.71Z" fill="#c30cea" fill-rule="evenodd"/><path d="m83.55,26.72c.28,0,.5.22.5.5v2.45c0,.28-.22.5-.5.5s-.5-.22-.5-.5v-2.45c0-.28.22-.5.5-.5Z" fill="#c30cea" fill-rule="evenodd"/><path d="m83.55,30.55c.28,0,.5.22.5.5v2.45c0,.28-.22.5-.5.5s-.5-.22-.5-.5v-2.45c0-.28.22-.5.5-.5Z" fill="#c30cea" fill-rule="evenodd"/><path d="m72.3,22.89c.28,0,.5.22.5.5v2.44c0,.28-.22.5-.5.5s-.5-.22-.5-.5v-2.44c0-.28.22-.5.5-.5Z" fill="#c30cea" fill-rule="evenodd"/><path d="m94.8,22.89c.28,0,.5.22.5.5v2.44c0,.28-.22.5-.5.5s-.5-.22-.5-.5v-2.44c0-.28.22-.5.5-.5Z" fill="#c30cea" fill-rule="evenodd"/><path d="m91.1,19.06c.28,0,.5.22.5.5v2.45c0,.28-.22.5-.5.5s-.5-.22-.5-.5v-2.45c0-.28.22-.5.5-.5Z" fill="#c30cea" fill-rule="evenodd"/><path d="m76.14,19.06c.28,0,.5.22.5.5v2.45c0,.28-.22.5-.5.5s-.5-.22-.5-.5v-2.45c0-.28.22-.5.5-.5Z" fill="#c30cea" fill-rule="evenodd"/><path d="m83.55,34.38c.28,0,.5.22.5.5v2.44c0,.28-.22.5-.5.5s-.5-.22-.5-.5v-2.44c0-.28.22-.5.5-.5Z" fill="#c30cea" fill-rule="evenodd"/><path d="m86.75,26.87c.2.2.2.51,0,.71l-2.85,2.85c-.2.2-.51.2-.71,0-.2-.2-.2-.51,0-.71l2.85-2.85c.2-.2.51-.2.71,0Z" fill="#c30cea" fill-rule="evenodd"/><path d="m80.35,26.86c.2-.19.51-.19.71,0l2.84,2.85c.19.2.19.51,0,.71-.2.2-.51.19-.71,0l-2.84-2.85c-.19-.2-.19-.51,0-.71Z" fill="#c30cea" fill-rule="evenodd"/><path d="m83.91,10.96c.19.2.19.51,0,.71l-.79.78c-.2.19-.51.19-.71,0-.19-.2-.19-.51,0-.71l.79-.79c.2-.19.51-.19.71,0Z" fill="#c30cea" fill-rule="evenodd"/><path d="m83.2,10.96c.19-.2.51-.2.71,0l.78.78c.2.19.2.51,0,.71-.19.2-.51.2-.71,0l-.78-.78c-.2-.19-.2-.51,0-.71Z" fill="#c30cea" fill-rule="evenodd"/><path d="m84.69,17.41c.19.2.19.51,0,.71l-.79.78c-.2.19-.51.19-.71,0-.19-.2-.19-.51,0-.71l.79-.79c.2-.19.51-.19.71,0Z" fill="#c30cea" fill-rule="evenodd"/><path d="m82.41,17.41c.2-.2.51-.2.71,0l.79.79c.2.2.2.51,0,.71-.2.2-.51.2-.71,0l-.79-.78c-.2-.2-.2-.51,0-.71Z" fill="#c30cea" fill-rule="evenodd"/><path d="m86.03,13.79c.2-.2.51-.2.71,0l.78.79c.2.2.2.51,0,.71-.2.2-.51.2-.71,0l-.78-.78c-.2-.2-.2-.51,0-.71Z" fill="#c30cea" fill-rule="evenodd"/><path d="m87.53,14.57c.2.2.2.51,0,.71l-.78.79c-.2.2-.51.2-.71,0-.2-.2-.2-.51,0-.71l.78-.78c.2-.2.51-.2.71,0Z" fill="#c30cea" fill-rule="evenodd"/><path d="m79.58,14.57c.2-.2.51-.2.71,0l.78.78c.2.2.2.51,0,.71-.2.2-.51.2-.71,0l-.78-.79c-.2-.2-.2-.51,0-.71Z" fill="#c30cea" fill-rule="evenodd"/><path d="m81.07,13.79c.2.2.2.51,0,.71l-.78.78c-.2.2-.51.2-.71,0-.2-.2-.2-.51,0-.71l.78-.79c.2-.2.51-.2.71,0Z" fill="#c30cea" fill-rule="evenodd"/></svg>