<svg width="863" height="116" viewBox="0 0 863 116" fill="none" xmlns="http://www.w3.org/2000/svg">
<path d="M662.433 113.73V1.91699H675.851L735.431 91.5267V1.91699H748.848V113.73H735.431L675.851 24.1198V113.73H662.433Z" fill="#224E43"/>
<path d="M554.125 113.73L595.335 1.91699H609.552L650.603 113.73H636.387L626.164 84.9777H578.563L568.181 113.73H554.125ZM582.557 74.1159H622.17L602.364 18.8486L582.557 74.1159Z" fill="#224E43"/>
<path d="M457.533 113.73V1.91699H470.95V51.2742H528.933V1.91699H542.35V113.73H528.933V62.2957H470.95V113.73H457.533Z" fill="#224E43"/>
<path d="M349.225 113.73L390.435 1.91699H404.652L445.703 113.73H431.487L421.264 84.9777H373.664L363.281 113.73H349.225ZM377.657 74.1159H417.271L397.464 18.8486L377.657 74.1159Z" fill="#224E43"/>
<path d="M250.917 113.73V1.91699H264.334L323.915 91.5267V1.91699H337.332V113.73H323.915L264.334 24.1198V113.73H250.917Z" fill="#224E43"/>
<path d="M181.245 115.646C170.277 115.646 160.639 113.25 152.333 108.458C144.134 103.56 137.691 96.7444 133.006 88.0124C128.427 79.2804 126.137 69.2173 126.137 57.823C126.137 46.4288 128.427 36.4189 133.006 27.7934C137.691 19.0614 144.134 12.2461 152.333 7.34768C160.639 2.44923 170.277 0 181.245 0C192.32 0 201.957 2.44923 210.156 7.34768C218.462 12.2461 224.905 19.0614 229.484 27.7934C234.063 36.4189 236.352 46.4288 236.352 57.823C236.352 69.2173 234.063 79.2804 229.484 88.0124C224.905 96.7444 218.462 103.56 210.156 108.458C201.957 113.25 192.32 115.646 181.245 115.646ZM181.245 103.826C189.444 103.826 196.632 102.016 202.809 98.395C209.091 94.6679 213.937 89.3968 217.344 82.5815C220.858 75.6598 222.615 67.407 222.615 57.823C222.615 48.2391 220.858 40.0395 217.344 33.2243C213.937 26.409 209.091 21.1911 202.809 17.5705C196.632 13.8435 189.444 11.9799 181.245 11.9799C173.045 11.9799 165.804 13.8435 159.521 17.5705C153.345 21.1911 148.5 26.409 144.986 33.2243C141.578 40.0395 139.874 48.2391 139.874 57.823C139.874 67.407 141.578 75.6598 144.986 82.5815C148.5 89.3968 153.345 94.6679 159.521 98.395C165.804 102.016 173.045 103.826 181.245 103.826Z" fill="#224E43"/>
<path d="M0 113.73V1.91699H15.6537L55.9063 79.8663L95.8393 1.91699H111.653V113.73H98.2353V25.8768L60.858 97.7563H50.7948L13.4175 26.0366V113.73H0Z" fill="#224E43"/>
<path d="M813.228 80.2295V64.6528H807.905V61.9653H821.917V64.6528H816.568V80.2295H813.228Z" fill="#224E43"/>
<path d="M792.718 80.2295V61.9653H799.424C800.885 61.9653 802.085 62.2176 803.024 62.722C803.981 63.209 804.694 63.8787 805.164 64.7311C805.634 65.566 805.868 66.4966 805.868 67.5229C805.868 68.6361 805.573 69.6537 804.981 70.5756C804.407 71.4975 803.503 72.1672 802.268 72.5847L806.051 80.2295H802.216L798.824 73.0282H796.058V80.2295H792.718ZM796.058 70.5756H799.215C800.328 70.5756 801.146 70.306 801.668 69.7668C802.19 69.2275 802.45 68.5144 802.45 67.6272C802.45 66.7575 802.19 66.0617 801.668 65.5399C801.163 65.0181 800.337 64.7571 799.189 64.7571H796.058V70.5756Z" fill="#224E43"/>
<path d="M773.25 80.2295L779.929 61.9653H783.686L790.366 80.2295H786.817L785.356 76.0027H778.233L776.746 80.2295H773.25ZM779.146 73.3935H784.443L781.782 65.8008L779.146 73.3935Z" fill="#224E43"/>
<path d="M854.014 50.5427C852.17 50.5427 850.587 50.1514 849.265 49.3686C847.943 48.5685 846.926 47.4639 846.212 46.055C845.499 44.6286 845.143 42.9848 845.143 41.1236C845.143 39.2624 845.499 37.6186 846.212 36.1923C846.926 34.766 847.943 33.6527 849.265 32.8526C850.587 32.0524 852.17 31.6523 854.014 31.6523C856.205 31.6523 857.997 32.2003 859.389 33.2961C860.798 34.3746 861.676 35.8966 862.024 37.8622H858.345C858.119 36.8707 857.632 36.0966 856.884 35.54C856.153 34.966 855.179 34.679 853.962 34.679C852.274 34.679 850.952 35.253 849.996 36.401C849.039 37.5491 848.561 39.1233 848.561 41.1236C848.561 43.124 849.039 44.6982 849.996 45.8462C850.952 46.9769 852.274 47.5422 853.962 47.5422C855.179 47.5422 856.153 47.2813 856.884 46.7594C857.632 46.2202 858.119 45.481 858.345 44.5416H862.024C861.676 46.4203 860.798 47.8901 859.389 48.9511C857.997 50.0122 856.205 50.5427 854.014 50.5427Z" fill="#224E43"/>
<path d="M838.863 50.2295V31.9653H842.203V50.2295H838.863Z" fill="#224E43"/>
<path d="M824.492 50.2295V31.9653H827.832V47.6204H835.92V50.2295H824.492Z" fill="#224E43"/>
<path d="M808.032 50.2295V31.9653H815.364C817.26 31.9653 818.704 32.4089 819.695 33.296C820.704 34.1657 821.209 35.2877 821.209 36.6618C821.209 37.8099 820.895 38.7318 820.269 39.4276C819.66 40.1059 818.912 40.5669 818.025 40.8104C819.069 41.0192 819.93 41.541 820.608 42.3759C821.287 43.1935 821.626 44.1502 821.626 45.246C821.626 46.6898 821.104 47.8813 820.061 48.8206C819.017 49.7599 817.538 50.2295 815.625 50.2295H808.032ZM811.372 39.6363H814.868C815.808 39.6363 816.529 39.4189 817.034 38.984C817.538 38.5491 817.791 37.9316 817.791 37.1315C817.791 36.3661 817.538 35.766 817.034 35.3312C816.547 34.8789 815.808 34.6528 814.816 34.6528H811.372V39.6363ZM811.372 47.516H815.103C816.095 47.516 816.86 47.2899 817.399 46.8376C817.956 46.368 818.234 45.7157 818.234 44.8807C818.234 44.0284 817.947 43.3587 817.373 42.8717C816.799 42.3846 816.025 42.1411 815.051 42.1411H811.372V47.516Z" fill="#224E43"/>
<path d="M797.317 50.5426C795.978 50.5426 794.769 50.2817 793.69 49.7599C792.612 49.2207 791.751 48.4118 791.107 47.3334C790.481 46.2549 790.168 44.8894 790.168 43.237V31.9653H793.508V43.263C793.508 44.6894 793.847 45.7505 794.525 46.4462C795.221 47.142 796.178 47.4899 797.395 47.4899C798.596 47.4899 799.544 47.142 800.239 46.4462C800.935 45.7505 801.283 44.6894 801.283 43.263V31.9653H804.623V43.237C804.623 44.8894 804.292 46.2549 803.631 47.3334C802.97 48.4118 802.083 49.2207 800.97 49.7599C799.874 50.2817 798.656 50.5426 797.317 50.5426Z" fill="#224E43"/>
<path d="M774.424 50.2295V31.9653H781.182C782.643 31.9653 783.852 32.2089 784.808 32.6959C785.765 33.1829 786.478 33.8526 786.948 34.705C787.418 35.5573 787.652 36.514 787.652 37.5751C787.652 38.5839 787.426 39.5145 786.974 40.3669C786.522 41.2018 785.817 41.8802 784.861 42.402C783.904 42.9065 782.678 43.1587 781.182 43.1587H777.764V50.2295H774.424ZM777.764 40.4451H780.973C782.138 40.4451 782.973 40.1929 783.478 39.6885C783.999 39.1666 784.26 38.4622 784.26 37.5751C784.26 36.6705 783.999 35.9661 783.478 35.4616C782.973 34.9398 782.138 34.6789 780.973 34.6789H777.764V40.4451Z" fill="#224E43"/>
<path d="M813.228 20.2295V4.65278H807.905V1.96533H821.917V4.65278H816.568V20.2295H813.228Z" fill="#224E43"/>
<path d="M792.718 20.2295V1.96533H799.424C800.885 1.96533 802.085 2.21755 803.024 2.72199C803.981 3.20904 804.694 3.87873 805.164 4.73105C805.634 5.56599 805.868 6.49659 805.868 7.52287C805.868 8.63611 805.573 9.65369 804.981 10.5756C804.407 11.4975 803.503 12.1672 802.268 12.5847L806.051 20.2295H802.216L798.824 13.0282H796.058V20.2295H792.718ZM796.058 10.5756H799.215C800.328 10.5756 801.146 10.306 801.668 9.76676C802.19 9.22753 802.45 8.51435 802.45 7.62724C802.45 6.75751 802.19 6.06173 801.668 5.5399C801.163 5.01806 800.337 4.75715 799.189 4.75715H796.058V10.5756Z" fill="#224E43"/>
<path d="M773.25 20.2295L779.929 1.96533H783.686L790.366 20.2295H786.817L785.356 16.0027H778.233L776.746 20.2295H773.25ZM779.146 13.3935H784.443L781.782 5.80081L779.146 13.3935Z" fill="#224E43"/>
<path fill-rule="evenodd" clip-rule="evenodd" d="M181.414 47.0527C181.79 47.0527 182.095 47.3577 182.095 47.7339V53.2799C182.095 53.6561 181.79 53.9611 181.414 53.9611C181.037 53.9611 180.732 53.6561 180.732 53.2799V47.7339C180.732 47.3577 181.037 47.0527 181.414 47.0527Z" fill="#224E43"/>
<path fill-rule="evenodd" clip-rule="evenodd" d="M187.038 22.9197C187.304 23.1857 187.304 23.617 187.038 23.8831L183.108 27.813C182.842 28.079 182.41 28.079 182.144 27.813C181.878 27.547 181.878 27.1157 182.144 26.8497L186.074 22.9197C186.34 22.6537 186.772 22.6537 187.038 22.9197Z" fill="#224E43"/>
<path fill-rule="evenodd" clip-rule="evenodd" d="M180.684 29.2732C180.95 29.5393 180.95 29.9706 180.684 30.2366L176.754 34.1665C176.488 34.4326 176.057 34.4326 175.791 34.1665C175.525 33.9005 175.525 33.4692 175.791 33.2032L179.721 29.2732C179.987 29.0072 180.418 29.0072 180.684 29.2732Z" fill="#224E43"/>
<path fill-rule="evenodd" clip-rule="evenodd" d="M182.144 29.2732C182.41 29.0072 182.842 29.0072 183.108 29.2732L187.038 33.2032C187.304 33.4692 187.304 33.9005 187.038 34.1665C186.772 34.4326 186.34 34.4326 186.074 34.1665L182.144 30.2366C181.878 29.9706 181.878 29.5393 182.144 29.2732Z" fill="#224E43"/>
<path fill-rule="evenodd" clip-rule="evenodd" d="M175.791 22.9197C176.057 22.6537 176.488 22.6537 176.754 22.9197L180.684 26.8497C180.95 27.1157 180.95 27.547 180.684 27.813C180.418 28.079 179.987 28.079 179.721 27.813L175.791 23.8831C175.525 23.617 175.525 23.1857 175.791 22.9197Z" fill="#224E43"/>
<path fill-rule="evenodd" clip-rule="evenodd" d="M181.414 38.3481C181.79 38.3481 182.095 38.6531 182.095 39.0293V44.5937C182.095 44.9699 181.79 45.2749 181.414 45.2749C181.037 45.2749 180.732 44.9699 180.732 44.5937V39.0293C180.732 38.6531 181.037 38.3481 181.414 38.3481Z" fill="#224E43"/>
<path fill-rule="evenodd" clip-rule="evenodd" d="M188.36 90.72C188.626 90.986 188.626 91.4173 188.36 91.6834L181.895 98.1476C181.629 98.4136 181.198 98.4136 180.932 98.1476C180.666 97.8816 180.666 97.4503 180.932 97.1843L187.396 90.72C187.662 90.454 188.093 90.454 188.36 90.72Z" fill="#224E43"/>
<path fill-rule="evenodd" clip-rule="evenodd" d="M197.12 81.9603C197.386 82.2263 197.386 82.6576 197.12 82.9236L190.656 89.3878C190.39 89.6538 189.958 89.6538 189.692 89.3878C189.426 89.1218 189.426 88.6905 189.692 88.4245L196.156 81.9603C196.422 81.6942 196.854 81.6942 197.12 81.9603Z" fill="#224E43"/>
<path fill-rule="evenodd" clip-rule="evenodd" d="M205.881 73.2202C206.146 73.4866 206.146 73.9179 205.879 74.1836L199.415 80.6294C199.149 80.8951 198.717 80.8944 198.452 80.6281C198.186 80.3617 198.187 79.9304 198.453 79.6647L204.917 73.2188C205.184 72.9532 205.615 72.9538 205.881 73.2202Z" fill="#224E43"/>
<path fill-rule="evenodd" clip-rule="evenodd" d="M197.12 64.6985C197.386 64.9646 197.386 65.3959 197.12 65.6619L190.656 72.1261C190.39 72.3921 189.958 72.3921 189.692 72.1261C189.426 71.8601 189.426 71.4288 189.692 71.1628L196.156 64.6985C196.422 64.4325 196.854 64.4325 197.12 64.6985Z" fill="#224E43"/>
<path fill-rule="evenodd" clip-rule="evenodd" d="M197.12 47.4168C197.386 47.6828 197.386 48.1141 197.12 48.3801L190.656 54.8444C190.39 55.1104 189.958 55.1104 189.692 54.8444C189.426 54.5784 189.426 54.1471 189.692 53.881L196.156 47.4168C196.422 47.1508 196.854 47.1508 197.12 47.4168Z" fill="#224E43"/>
<path fill-rule="evenodd" clip-rule="evenodd" d="M205.88 55.9383C206.146 56.2043 206.146 56.6356 205.88 56.9016L199.416 63.3659C199.15 63.6319 198.718 63.6319 198.452 63.3659C198.186 63.0998 198.186 62.6685 198.452 62.4025L204.917 55.9383C205.183 55.6723 205.614 55.6723 205.88 55.9383Z" fill="#224E43"/>
<path fill-rule="evenodd" clip-rule="evenodd" d="M214.64 64.4593C214.906 64.7253 214.906 65.1566 214.64 65.4226L208.176 71.8869C207.91 72.1529 207.478 72.1529 207.212 71.8869C206.946 71.6208 206.946 71.1895 207.212 70.9235L213.676 64.4593C213.942 64.1933 214.374 64.1933 214.64 64.4593Z" fill="#224E43"/>
<path fill-rule="evenodd" clip-rule="evenodd" d="M174.488 90.7193C174.754 90.4537 175.185 90.4543 175.451 90.7207L181.897 97.1849C182.163 97.4513 182.162 97.8826 181.896 98.1483C181.629 98.4139 181.198 98.4133 180.932 98.1469L174.486 91.6827C174.221 91.4163 174.221 90.985 174.488 90.7193Z" fill="#224E43"/>
<path fill-rule="evenodd" clip-rule="evenodd" d="M165.727 81.9603C165.993 81.6942 166.424 81.6942 166.69 81.9603L173.154 88.4245C173.42 88.6905 173.42 89.1218 173.154 89.3878C172.888 89.6538 172.457 89.6538 172.191 89.3878L165.727 82.9236C165.461 82.6576 165.461 82.2263 165.727 81.9603Z" fill="#224E43"/>
<path fill-rule="evenodd" clip-rule="evenodd" d="M156.967 73.2202C157.233 72.9538 157.664 72.9532 157.93 73.2188L164.394 79.6647C164.661 79.9304 164.661 80.3617 164.396 80.6281C164.13 80.8944 163.699 80.8951 163.433 80.6294L156.968 74.1836C156.702 73.9179 156.701 73.4866 156.967 73.2202Z" fill="#224E43"/>
<path fill-rule="evenodd" clip-rule="evenodd" d="M165.727 64.6985C165.993 64.4325 166.424 64.4325 166.69 64.6985L173.154 71.1628C173.42 71.4288 173.42 71.8601 173.154 72.1261C172.888 72.3921 172.457 72.3921 172.191 72.1261L165.727 65.6619C165.461 65.3959 165.461 64.9646 165.727 64.6985Z" fill="#224E43"/>
<path fill-rule="evenodd" clip-rule="evenodd" d="M165.727 47.4168C165.993 47.1508 166.424 47.1508 166.69 47.4168L173.154 53.881C173.42 54.1471 173.42 54.5784 173.154 54.8444C172.888 55.1104 172.457 55.1104 172.191 54.8444L165.727 48.3801C165.461 48.1141 165.461 47.6828 165.727 47.4168Z" fill="#224E43"/>
<path fill-rule="evenodd" clip-rule="evenodd" d="M156.968 55.9383C157.234 55.6723 157.665 55.6723 157.931 55.9383L164.395 62.4025C164.661 62.6685 164.661 63.0998 164.395 63.3659C164.129 63.6319 163.698 63.6319 163.432 63.3659L156.968 56.9016C156.702 56.6356 156.702 56.2043 156.968 55.9383Z" fill="#224E43"/>
<path fill-rule="evenodd" clip-rule="evenodd" d="M148.207 64.4593C148.473 64.1933 148.905 64.1933 149.171 64.4593L155.635 70.9235C155.901 71.1895 155.901 71.6208 155.635 71.8869C155.369 72.1529 154.938 72.1529 154.672 71.8869L148.207 65.4226C147.941 65.1566 147.941 64.7253 148.207 64.4593Z" fill="#224E43"/>
<path fill-rule="evenodd" clip-rule="evenodd" d="M188.36 73.3301C188.626 73.5965 188.625 74.0278 188.359 74.2934L181.895 80.7393C181.628 81.0049 181.197 81.0043 180.931 80.7379C180.666 80.4715 180.666 80.0402 180.933 79.7746L187.397 73.3287C187.663 73.0631 188.095 73.0637 188.36 73.3301Z" fill="#224E43"/>
<path fill-rule="evenodd" clip-rule="evenodd" d="M174.487 73.3294C174.753 73.0634 175.184 73.0634 175.45 73.3294L181.896 79.7753C182.162 80.0413 182.162 80.4726 181.896 80.7386C181.63 81.0046 181.199 81.0046 180.933 80.7386L174.487 74.2927C174.221 74.0267 174.221 73.5954 174.487 73.3294Z" fill="#224E43"/>
<path fill-rule="evenodd" clip-rule="evenodd" d="M181.414 55.7388C181.79 55.7388 182.095 56.0437 182.095 56.42V61.9843C182.095 62.3605 181.79 62.6655 181.414 62.6655C181.037 62.6655 180.732 62.3605 180.732 61.9843V56.42C180.732 56.0437 181.037 55.7388 181.414 55.7388Z" fill="#224E43"/>
<path fill-rule="evenodd" clip-rule="evenodd" d="M181.414 64.4248C181.79 64.4248 182.095 64.7298 182.095 65.106V70.6704C182.095 71.0466 181.79 71.3516 181.414 71.3516C181.037 71.3516 180.732 71.0466 180.732 70.6704V65.106C180.732 64.7298 181.037 64.4248 181.414 64.4248Z" fill="#224E43"/>
<path fill-rule="evenodd" clip-rule="evenodd" d="M215.59 55.7388C215.966 55.7388 216.271 56.0437 216.271 56.42V61.9843C216.271 62.3605 215.966 62.6655 215.59 62.6655C215.214 62.6655 214.909 62.3605 214.909 61.9843V56.42C214.909 56.0437 215.214 55.7388 215.59 55.7388Z" fill="#224E43"/>
<path fill-rule="evenodd" clip-rule="evenodd" d="M147.33 55.7388C147.706 55.7388 148.011 56.0437 148.011 56.42V61.9843C148.011 62.3605 147.706 62.6655 147.33 62.6655C146.954 62.6655 146.649 62.3605 146.649 61.9843V56.42C146.649 56.0437 146.954 55.7388 147.33 55.7388Z" fill="#224E43"/>
<path fill-rule="evenodd" clip-rule="evenodd" d="M155.888 47.0527C156.264 47.0527 156.569 47.3577 156.569 47.7339V53.2799C156.569 53.6561 156.264 53.9611 155.888 53.9611C155.512 53.9611 155.207 53.6561 155.207 53.2799V47.7339C155.207 47.3577 155.512 47.0527 155.888 47.0527Z" fill="#224E43"/>
<path fill-rule="evenodd" clip-rule="evenodd" d="M206.959 47.0527C207.335 47.0527 207.64 47.3577 207.64 47.7339V53.2799C207.64 53.6561 207.335 53.9611 206.959 53.9611C206.583 53.9611 206.278 53.6561 206.278 53.2799V47.7339C206.278 47.3577 206.583 47.0527 206.959 47.0527Z" fill="#224E43"/>
<path fill-rule="evenodd" clip-rule="evenodd" d="M198.548 38.3481C198.925 38.3481 199.23 38.6531 199.23 39.0293V44.5937C199.23 44.9699 198.925 45.2749 198.548 45.2749C198.172 45.2749 197.867 44.9699 197.867 44.5937V39.0293C197.867 38.6531 198.172 38.3481 198.548 38.3481Z" fill="#224E43"/>
<path fill-rule="evenodd" clip-rule="evenodd" d="M164.611 38.3481C164.987 38.3481 165.292 38.6531 165.292 39.0293V44.5937C165.292 44.9699 164.987 45.2749 164.611 45.2749C164.235 45.2749 163.93 44.9699 163.93 44.5937V39.0293C163.93 38.6531 164.235 38.3481 164.611 38.3481Z" fill="#224E43"/>
<path fill-rule="evenodd" clip-rule="evenodd" d="M181.414 73.1299C181.79 73.1299 182.095 73.4349 182.095 73.8111V79.3571C182.095 79.7333 181.79 80.0383 181.414 80.0383C181.037 80.0383 180.732 79.7333 180.732 79.3571V73.8111C180.732 73.4349 181.037 73.1299 181.414 73.1299Z" fill="#224E43"/>
<path fill-rule="evenodd" clip-rule="evenodd" d="M188.36 55.9383C188.626 56.2043 188.626 56.6356 188.36 56.9016L181.895 63.3659C181.629 63.6319 181.198 63.6319 180.932 63.3659C180.666 63.0998 180.666 62.6685 180.932 62.4025L187.396 55.9383C187.662 55.6723 188.093 55.6723 188.36 55.9383Z" fill="#224E43"/>
<path fill-rule="evenodd" clip-rule="evenodd" d="M174.488 55.9376C174.754 55.672 175.185 55.6726 175.451 55.939L181.897 62.4032C182.163 62.6696 182.162 63.1009 181.896 63.3665C181.629 63.6322 181.198 63.6316 180.932 63.3652L174.486 56.9009C174.221 56.6345 174.221 56.2032 174.488 55.9376Z" fill="#224E43"/>
<path fill-rule="evenodd" clip-rule="evenodd" d="M181.917 19.8363C182.181 20.1036 182.179 20.5349 181.912 20.7996L180.112 22.5809C179.845 22.8456 179.413 22.8434 179.149 22.576C178.884 22.3086 178.886 21.8773 179.154 21.6127L180.953 19.8313C181.221 19.5667 181.652 19.5689 181.917 19.8363Z" fill="#224E43"/>
<path fill-rule="evenodd" clip-rule="evenodd" d="M180.948 19.8363C181.213 19.5689 181.644 19.5667 181.912 19.8313L183.693 21.5943C183.961 21.8589 183.963 22.2902 183.698 22.5576C183.434 22.825 183.002 22.8272 182.735 22.5626L180.953 20.7996C180.686 20.535 180.684 20.1037 180.948 19.8363Z" fill="#224E43"/>
<path fill-rule="evenodd" clip-rule="evenodd" d="M183.697 34.4915C183.962 34.7589 183.96 35.1902 183.693 35.4549L181.893 37.2362C181.625 37.5009 181.194 37.4986 180.929 37.2313C180.665 36.9639 180.667 36.5326 180.934 36.2679L182.734 34.4866C183.001 34.222 183.433 34.2242 183.697 34.4915Z" fill="#224E43"/>
<path fill-rule="evenodd" clip-rule="evenodd" d="M179.151 34.4891C179.417 34.223 179.848 34.223 180.115 34.4891L181.896 36.2704C182.162 36.5364 182.162 36.9677 181.896 37.2337C181.63 37.4998 181.199 37.4998 180.933 37.2337L179.151 35.4524C178.885 35.1864 178.885 34.7551 179.151 34.4891Z" fill="#224E43"/>
<path fill-rule="evenodd" clip-rule="evenodd" d="M187.378 26.262C187.644 25.996 188.076 25.996 188.342 26.262L190.123 28.0434C190.389 28.3094 190.389 28.7407 190.123 29.0067C189.857 29.2727 189.426 29.2727 189.16 29.0067L187.378 27.2254C187.112 26.9593 187.112 26.528 187.378 26.262Z" fill="#224E43"/>
<path fill-rule="evenodd" clip-rule="evenodd" d="M190.123 28.0433C190.389 28.3093 190.389 28.7406 190.123 29.0066L188.342 30.7879C188.076 31.054 187.644 31.054 187.378 30.7879C187.112 30.5219 187.112 30.0906 187.378 29.8246L189.16 28.0433C189.426 27.7772 189.857 27.7772 190.123 28.0433Z" fill="#224E43"/>
<path fill-rule="evenodd" clip-rule="evenodd" d="M172.724 28.0433C172.99 27.7772 173.421 27.7772 173.687 28.0433L175.469 29.8246C175.735 30.0906 175.735 30.5219 175.469 30.7879C175.203 31.054 174.771 31.054 174.505 30.7879L172.724 29.0066C172.458 28.7406 172.458 28.3093 172.724 28.0433Z" fill="#224E43"/>
<path fill-rule="evenodd" clip-rule="evenodd" d="M175.469 26.262C175.735 26.528 175.735 26.9593 175.469 27.2254L173.687 29.0067C173.421 29.2727 172.99 29.2727 172.724 29.0067C172.458 28.7407 172.458 28.3094 172.724 28.0434L174.505 26.262C174.771 25.996 175.203 25.996 175.469 26.262Z" fill="#224E43"/>
<path fill-rule="evenodd" clip-rule="evenodd" d="M181.414 81.8159C181.79 81.8159 182.095 82.1209 182.095 82.4971V88.0615C182.095 88.4377 181.79 88.7427 181.414 88.7427C181.037 88.7427 180.732 88.4377 180.732 88.0615V82.4971C180.732 82.1209 181.037 81.8159 181.414 81.8159Z" fill="#224E43"/>
<path fill-rule="evenodd" clip-rule="evenodd" d="M181.414 90.5024C181.79 90.5024 182.095 90.8074 182.095 91.1836V96.748C182.095 97.1242 181.79 97.4292 181.414 97.4292C181.037 97.4292 180.732 97.1242 180.732 96.748V91.1836C180.732 90.8074 181.037 90.5024 181.414 90.5024Z" fill="#224E43"/>
</svg>
