<?xml version="1.0" encoding="utf-8"?>
<!-- Generator: Adobe Illustrator 27.7.0, SVG Export Plug-In . SVG Version: 6.00 Build 0)  -->
<svg version="1.1" id="Layer_1" xmlns="http://www.w3.org/2000/svg" xmlns:xlink="http://www.w3.org/1999/xlink" x="0px" y="0px"
	 viewBox="0 0 139 61" style="enable-background:new 0 0 139 61;" xml:space="preserve">
<style type="text/css">
	.st0{fill:none;}
	.st1{fill:#234E44;}
</style>
<rect x="0.7" y="1" class="st0" width="137.7" height="59.7"/>
<g>
	<path class="st1" d="M15.5,49.7c-10.1-14-3.9-30.2,10.5-38.4c-0.1,0.1,0.2,0.4,0,0.5c-1.7,1.7-3.6,4.5-1.5,6.6
		C13.4,23.9,9.1,37.1,15.5,49.7z"/>
	<path class="st1" d="M34.4,1.1c-4.3,1.1-5.5,2.5-5.6,4c0,0.2,0,0.3,0.1,0.5C2.5,15.8,5.2,45.2,16,53.9c0.1,0.1-0.1,0.6-0.4,0.3
		c-13.7-11-14.7-38.5,8-52.6c0.4,0.1,1,0.3,1.5,0.4C29.1,1.7,31.9,0.5,34.4,1.1z"/>
	<path class="st1" d="M7.9,47.8C0,32.9,3.6,22.5,7.8,15.2c-0.9-0.9-4.1,7-6.2,5.9C-0.5,29.6,0.9,39.8,7.9,47.8"/>
	<path class="st1" d="M75.4,43.2c-1.2,2.6-2,5.6-2.4,8.6c-0.1,4,0.9,6.1,2.4,6.8V43.2z M75.4,34.7v1.9h-4.2
		c-0.8,4.6-1.5,9.2-2.3,13.8c-0.7,4.2-1.4,7.5,3.6,5.7c0,0.6-0.2,1.2-0.3,1.9c-4.6,1.4-7.6,0-7.8-3.6l2.8-17.8H61
		c-0.7,4.6-1.5,9.2-2.2,13.8c-0.8,4.2-1.4,7.5,3.6,5.7c-0.1,0.6-0.2,1.2-0.3,1.9c-4.4,1.4-7.6-0.2-7.8-3.6l2.8-17.8h-3l0.3-1.9h3
		l1.5-9.6l4-1.4l-1.7,11h6.3l1.6-9.6l4.1-1.4l-1.8,11H75.4L75.4,34.7z M31,56.1c-14.9-2.2-19.5-21.5-8.2-30.5c11.3-9,27-0.3,25.4,16
		c-1.7,16.4-17.3,21.9-30.5,13.7C30.9,66,50.8,60.1,53.8,41.7c3-18.4-20.2-29-32.3-17.8C9.5,35.1,15.3,55.6,31,56.1 M77.5,39.7v8.9
		c-0.1,0.8-0.2,1.5-0.3,2.4c-0.2,1.6,0,2.8,0.3,3.4v4.2c-0.7,0.2-1.5,0.1-2.1-0.1V43.1C76,41.9,76.7,40.8,77.5,39.7z M77.5,36.6
		h-2.1v-1.9h2.1V36.6z M77.5,36.6L77.5,36.6l0.3-1.9h-0.3V36.6z M83.1,52.6V55c-1.9,1.9-3.9,3.2-5.6,3.6v-4.2
		C78.4,56.1,80.7,55,83.1,52.6 M83.1,35.1v1.9c-2.7,1.2-4.6,5.1-5.6,11.7v-8.9C79,37.7,80.9,36,83.1,35.1z M119.9,44.2
		c-1,2.4-1.7,4.9-2,7.5c-0.1,3.6,0.7,5.6,2,6.5V44.2z M119.9,34.7V42c-2.4,4.8-6.4,10.7-9.5,16h-1.7c0.1-5.2-0.2-10.4-1.9-15.6
		c-2.2,5.2-4.9,10.4-8,15.6h-1.5c-0.2-11.1-1-20.1-4.1-21.3c0-0.1,0-0.1,0-0.1l-2.9,17.9c-0.3,2.9,1.9,1.4,2.9,2l0.2,1.5h-7.6
		l1.3-8.5c-1.1,2-2.5,4-4,5.6v-2.4c1.9-2,3.8-4.8,4.8-7.7l1.1-6.9c-2.3-1.5-4.3-1.8-5.9-1v-1.9c1.9-0.8,4.1-1,6.5-0.4h3.7l0.1-0.1
		h4.4c1.7,5.4,2.6,10.9,3,16.3c3.2-5.4,5.5-10.8,6.9-16.3c0.5-0.1,1-0.1,1.5-0.1c1.7,5.6,2.6,11.2,3.4,16.8c2.8-5.7,8-12.1,4.8-15.9
		v-0.8L119.9,34.7L119.9,34.7z M119.9,42c1.4-3,2.3-5.5,1.9-7.3h-1.9V42z M128,35.1v1.9c-3,1.3-5,6-6,14c-0.6,5.8,2.7,5,6,1.6V55
		c-2.9,2.9-6.2,4.5-8.1,3.2v-14C121.6,40,124.4,36.5,128,35.1 M128,55v-2.4c1.8-2,3.7-4.8,4.8-7.7l1.1-6.9c-2.3-1.5-4.3-1.8-5.9-1
		v-1.9c1.9-0.8,4.1-1,6.5-0.4h3.9l-3.1,19.7c-0.3,2.9,1.9,1.4,2.8,2l0.3,1.5h-7.6l1.3-8.5C131,51.4,129.5,53.3,128,55"/>
</g>
</svg>
