<svg width="139" height="61" viewBox="0 0 139 61" fill="none" xmlns="http://www.w3.org/2000/svg">
<g clip-path="url(#clip0_477_11558)">
<path d="M15.4798 49.7012C5.40981 35.6712 11.6098 19.4712 25.9398 11.2612C25.7898 11.3712 26.1098 11.6412 25.9398 11.7512C24.2298 13.4412 22.2998 16.2012 24.3998 18.3012C13.3798 23.9312 9.12981 37.1212 15.4798 49.7012Z" fill="#BFFFC2"/>
<path d="M34.4098 1.10119C30.0898 2.17119 28.9298 3.58119 28.8298 5.10119C28.8298 5.27119 28.8298 5.44119 28.8898 5.61119C2.53979 15.7512 5.24979 45.1912 16.0298 53.9112C16.1398 53.9712 15.9198 54.4912 15.6498 54.2512C1.91979 43.2612 0.929785 15.7512 23.6298 1.68119C24.0598 1.79119 24.6098 2.00119 25.1298 2.06119C29.1498 1.68119 31.9298 0.541187 34.4098 1.10119Z" fill="#BFFFC2"/>
<path d="M7.90978 47.7811C-0.000220776 32.8911 3.58978 22.4711 7.79978 15.2011C6.89978 14.3011 3.68978 22.1911 1.59978 21.1211C-0.520221 29.6311 0.939779 39.7711 7.90978 47.7711" fill="#BFFFC2"/>
<path d="M75.4397 43.1509C74.2197 45.8009 73.3897 48.8009 73.0597 51.7309C72.9497 55.7709 73.9397 57.8009 75.4397 58.4909V43.1509ZM75.4397 34.7009V36.6009H71.2297C70.4597 41.1809 69.7297 45.8009 68.9597 50.3509C68.2997 54.5209 67.5697 57.8609 72.5497 56.0409C72.5097 56.6609 72.3997 57.2809 72.2697 57.9009C67.6897 59.3109 64.6297 57.8609 64.4797 54.3509L67.2997 36.6009H60.9897C60.2597 41.1809 59.4897 45.8009 58.7697 50.3509C57.9997 54.5209 57.3797 57.8609 62.3597 56.0409C62.2497 56.6609 62.1497 57.2809 62.0397 57.9009C57.6097 59.3109 54.3997 57.7309 54.2797 54.3509L57.0997 36.6009H54.1297L54.4497 34.7009H57.4397L58.9797 25.1209L63.0197 23.7109L61.3097 34.7009H67.6197L69.1797 25.1209L73.2697 23.7109L71.4897 34.7009H75.4297H75.4397ZM30.9897 56.1109C16.0997 53.8609 11.4997 34.6309 22.7997 25.6309C34.0897 16.6709 49.8197 25.2909 48.1497 41.6709C46.4797 58.0809 30.8197 63.6009 17.6097 55.3809C30.9397 65.9709 50.7597 60.1109 53.7597 41.6709C56.7297 23.2509 33.5497 12.6409 21.4797 23.8709C9.51967 35.0809 15.3397 55.5909 30.9997 56.1109M77.4997 39.7009V48.6209C77.3897 49.3909 77.2597 50.1409 77.1597 50.9709C76.9897 52.6209 77.1197 53.7309 77.4997 54.3509V58.5909C76.7697 58.7609 76.0397 58.7009 75.4497 58.4809V43.1409C76.0497 41.9009 76.7097 40.7609 77.4997 39.7009ZM77.4997 36.6009H75.4497V34.7009H77.4997V36.6009ZM77.4997 36.6009H77.5397L77.8197 34.7009H77.4997V36.6009ZM83.1497 52.5609V54.9809C81.2697 56.8409 79.2097 58.2109 77.4997 58.5909V54.3509C78.4397 56.1009 80.7497 54.9709 83.1497 52.5509M83.1497 35.0709V36.9309C80.4297 38.1109 78.5497 42.0609 77.4997 48.6109V39.6909C79.0397 37.6609 80.9197 35.9709 83.1497 35.0709ZM119.9 44.2109C118.89 46.5809 118.23 49.1109 117.95 51.7209C117.84 55.3109 118.63 57.3509 119.9 58.2009V44.2109ZM119.9 34.6909V41.9609C117.53 46.7509 113.48 52.6609 110.44 57.9609H108.77C108.88 52.7809 108.6 47.5409 106.89 42.3409C104.73 47.5809 102.01 52.7809 98.9097 57.9609H97.3697C97.1997 46.8609 96.3597 37.8309 93.2597 36.6509C93.2597 36.5909 93.2197 36.5409 93.2197 36.5409L90.3297 54.4009C90.0497 57.2709 92.2097 55.8109 93.2197 56.4309L93.4297 57.8809H85.8397L87.1897 49.3709C86.0797 51.4009 84.6397 53.3309 83.1497 54.9509V52.5309C85.0297 50.5609 86.9097 47.7409 87.9597 44.8109L89.0697 37.9409C86.7397 36.4709 84.7497 36.1909 83.1397 36.9109V35.0509C85.0697 34.2609 87.2197 34.0509 89.5997 34.6709H93.3197L93.4297 34.6109H97.8597C99.5297 40.0209 100.41 45.5409 100.85 50.9509C104.06 45.5409 106.39 40.1309 107.72 34.6709C108.21 34.6109 108.7 34.6109 109.22 34.6109C110.93 40.1909 111.81 45.8209 112.58 51.4009C115.4 45.7109 120.56 39.2909 117.35 35.4609V34.6709H119.9V34.6909ZM119.9 41.9609C121.33 38.9709 122.17 36.4209 121.78 34.6909H119.9V41.9609ZM128.03 35.0709V36.9309C124.99 38.2309 123 42.9609 122.06 50.9609C121.46 56.7809 124.71 55.9209 128.03 52.5409V54.9609C125.1 57.8509 121.85 59.4709 119.9 58.1909V44.2009C121.61 40.0309 124.43 36.5409 128.03 35.0609M128.03 54.9509V52.5309C129.87 50.5609 131.75 47.7409 132.86 44.8109L133.95 37.9409C131.64 36.4709 129.65 36.1909 128.02 36.9109V35.0509C129.97 34.2609 132.13 34.0509 134.5 34.6709H138.37L135.22 54.3909C134.88 57.2609 137.1 55.8009 138.04 56.4209L138.32 57.8709H130.73L132.06 49.3609C130.97 51.3909 129.52 53.3209 128.02 54.9409" fill="#BFFFC2"/>
</g>
<defs>
<clipPath id="clip0_477_11558">
<rect width="137.67" height="59.69" fill="white" transform="translate(0.699707 0.951172)"/>
</clipPath>
</defs>
</svg>
