<?xml version="1.0" encoding="utf-8"?>
<!-- Generator: Adobe Illustrator 27.7.0, SVG Export Plug-In . SVG Version: 6.00 Build 0)  -->
<svg version="1.1" id="Layer_1" xmlns="http://www.w3.org/2000/svg" xmlns:xlink="http://www.w3.org/1999/xlink" x="0px" y="0px"
	 viewBox="0 0 98 85" style="enable-background:new 0 0 98 85;" xml:space="preserve">
<style type="text/css">
	.st0{fill:#234E44;}
</style>
<g>
	<path class="st0" d="M48.7,37c0.3-0.3,0.6-0.6,0.8-0.8c0.9-0.9,1.7-1.7,2.6-2.6c1.4-1.4,2.9-2.9,4.3-4.3c0.3-0.3,0.6-0.6,0.9-1
		c0.3-0.3,0.6-0.5,0.8-0.8c0.6-0.6,1.2-1.2,1.8-1.8c0.1-0.1,0.2-0.2,0.4-0.2c7.7,0,15.4,0,23,0c0.1,0,0.2,0,0.3,0
		c-0.2,0.2-0.3,0.4-0.5,0.5c-0.4,0.3-0.7,0.7-1.1,1.1c-0.5,0.5-1.1,1.1-1.6,1.6c-0.6,0.5-1.1,1.1-1.7,1.6c-0.4,0.4-0.9,0.9-1.3,1.3
		c-0.5,0.5-1,1-1.4,1.5c-0.6,0.6-1.2,1.2-1.7,1.8c-0.3,0.3-0.6,0.6-0.9,0.9c-0.3,0.3-0.7,0.7-1,1C72.2,37,72.1,37,71.8,37
		c-7.6,0-15.1,0-22.7,0C49.1,37.1,48.9,37,48.7,37"/>
	<path class="st0" d="M48.8,38c0.3,0,0.7,0,1,0H72c0.1,0.3,0.1,23,0,23.3c-0.2-0.2-0.3-0.3-0.5-0.5c-2.7-2.7-5.3-5.3-8-8
		C58.7,48,53.9,43.2,49,38.3C48.9,38.3,48.8,38.2,48.8,38C48.7,38.1,48.7,38.1,48.8,38"/>
	<path class="st0" d="M23.7,13h23.2c0.1,0.2,0.1,22.8,0,23.2l0,0l0,0C39.2,28.5,31.4,20.8,23.7,13"/>
	<path class="st0" d="M46.1,37L46.1,37c-7.8,0-15.5,0-23.2,0l0,0l0,0c0-7.7,0-15.3,0-23v-0.2C30.6,21.5,38.4,29.3,46.1,37"/>
	<path class="st0" d="M47.9,62.1c0-7.7,0-15.4,0-23.2v-0.1c0.2,0.1,22.9,22.8,23.3,23.2L47.9,62.1L47.9,62.1z"/>
	<path class="st0" d="M73,61.4c0-0.4,0-0.7,0-1c0-6.8,0-13.5,0-20.3c0-0.7,0-1.4,0-2.1c0-0.2,0.1-0.4,0.2-0.5
		c1.8-1.8,3.7-3.7,5.5-5.5c1.8-1.9,3.7-3.7,5.5-5.5c0.1-0.1,0.2-0.2,0.3-0.3c0,7.8,0,15.5,0,23.2c0,0.4-0.1,0.6-0.3,0.8
		c-3.6,3.6-7.3,7.2-10.9,10.9C73.2,61.2,73.1,61.3,73,61.4z"/>
	<path class="st0" d="M59.3,25c-3.8,3.8-7.5,7.5-11.3,11.3c-0.1-0.2-0.1-22,0-22.5l0,0l0,0C51.7,17.5,55.5,21.2,59.3,25
		C59.2,24.9,59.2,25,59.3,25z"/>
	<path class="st0" d="M85.7,1.3c0.6,0.6,1.2,1.2,1.8,1.8c3.1,3.1,6.1,6.1,9.2,9.2c0.1,0.1,0.1,0.1,0.2,0.2
		c-3.8,3.8-7.5,7.5-11.3,11.3v-0.4c0-7.3,0-14.6,0-21.9c0-0.1,0-0.1,0-0.2L85.7,1.3L85.7,1.3z"/>
	<path class="st0" d="M47,38.9c0,7.4,0,14.8,0,22.3c0,0,0,0.1,0,0.2c-0.1-0.1-0.1-0.1-0.2-0.1c-1.1-1.1-2.1-2.1-3.2-3.2
		c-0.8-0.8-1.6-1.5-2.3-2.3c-0.9-0.9-1.8-1.8-2.7-2.8c-0.9-0.9-1.7-1.8-2.6-2.6c-0.1-0.1-0.1-0.1-0.2-0.2
		C39.4,46.3,43.1,42.6,47,38.9C46.9,38.8,46.9,38.8,47,38.9z"/>
	<path class="st0" d="M23.7,38c0.2,0,0.4,0,0.6,0c7.2,0,14.4,0,21.6,0h0.2c0,0.1-0.1,0.2-0.1,0.2c-2.1,2.1-4.2,4.2-6.3,6.4
		c-1.5,1.5-3,3-4.5,4.4c-0.1,0.1-0.2,0.2-0.3,0.3c-0.4-0.4-0.8-0.8-1.2-1.2c-0.7-0.7-1.3-1.3-2-2c-0.5-0.5-0.9-0.9-1.4-1.4
		c-0.8-0.8-1.7-1.7-2.5-2.5c-0.7-0.7-1.3-1.4-2-2c-0.7-0.7-1.4-1.4-2.1-2C23.7,38.2,23.7,38.2,23.7,38C23.7,38.1,23.7,38.1,23.7,38"
		/>
	<path class="st0" d="M85.6,48.7c0-0.2,0-0.4,0-0.6V26.7c0-0.1,0-0.2,0-0.4h0.1c1.6,1.6,3.2,3.2,4.7,4.7c2.1,2.1,4.2,4.2,6.2,6.2
		c0.1,0.1,0.1,0.2,0.2,0.2c-0.1,0.1-0.1,0.2-0.2,0.2c-3.6,3.6-7.2,7.2-10.8,10.8l-0.1,0.1C85.7,48.7,85.6,48.7,85.6,48.7"/>
	<path class="st0" d="M60,74.4c-3.8-3.8-7.5-7.5-11.2-11.2h22.5l0,0l0,0C67.5,66.9,63.7,70.7,60,74.4"/>
	<path class="st0" d="M21.9,13.9c0,0.1,0,0.2,0,0.3v22C21.6,36,11.3,25.7,10.6,24.9l0.1-0.1c3.7-3.7,7.3-7.3,11-11
		C21.7,13.8,21.7,13.8,21.9,13.9C21.8,13.8,21.8,13.9,21.9,13.9z"/>
	<path class="st0" d="M83.8,24.5H61.3c3.7-3.7,7.5-7.5,11.2-11.2c0,0,0.1,0.1,0.2,0.1c0.4,0.4,0.8,0.8,1.2,1.2
		c0.3,0.3,0.6,0.5,0.9,0.8c0.2,0.2,0.5,0.5,0.7,0.7c0.3,0.3,0.6,0.6,0.9,0.9c0.2,0.2,0.5,0.5,0.7,0.7c0.3,0.3,0.6,0.6,0.9,0.9
		c0.1,0.1,0.2,0.3,0.4,0.4c0.4,0.4,0.9,0.9,1.3,1.3c0.3,0.2,0.5,0.5,0.7,0.8c0.5,0.5,1,0.9,1.4,1.4c0.3,0.3,0.6,0.7,0.9,1
		S83.5,24.1,83.8,24.5"/>
	<path class="st0" d="M84.6,23.7c-3.8-3.8-7.5-7.5-11.3-11.3C77,8.7,80.8,4.9,84.6,1.2V23.7L84.6,23.7z"/>
	<path class="st0" d="M20.9,42.3c0.8-0.3,1.7-0.6,2.5-0.9c0.1,0,0.2-0.1,0.3,0.1c-0.2,0.6-0.5,1.2-0.7,1.8c-0.1,0.3-0.2,0.6-0.3,0.9
		c0,0-0.1,0-0.1,0.1l0,0h0.1c0.4-0.2,0.8-0.4,1.2-0.6c0.4-0.2,0.8-0.4,1.3-0.5c0.2,0.2,0.4,0.5,0.7,0.7c-0.8,0.4-1.6,0.7-2.4,1.1
		c-0.8,0.4-1.6,0.7-2.4,1.1c0.1-0.6,0.4-1.1,0.5-1.6c0.2-0.5,0.4-1,0.6-1.6c-0.5,0.2-1,0.4-1.6,0.5c-0.5,0.2-1,0.4-1.6,0.5
		c0.8-1.7,1.5-3.2,2.2-4.8c0.3,0.3,0.5,0.5,0.8,0.8C21.6,40.6,21.2,41.4,20.9,42.3L20.9,42.3C20.8,42.3,20.8,42.3,20.9,42.3z"/>
	<path class="st0" d="M45.4,76.9c0.5-0.2,1-0.4,1.6-0.6c0.3-0.1,0.6-0.2,0.9-0.3c0.1,0,0.2,0,0.3,0c0,0.1,0,0.2,0,0.3
		c-0.3,0.8-0.6,1.6-0.9,2.4v0.1h0.1c0.8-0.4,1.6-0.8,2.4-1.2c0.2,0.2,0.5,0.5,0.7,0.7c-0.4,0.3-4.5,2.2-4.8,2.2
		c0.1-0.5,0.3-1,0.5-1.5s0.4-1,0.6-1.5v-0.1c0,0,0,0-0.1,0c-0.3,0.1-0.5,0.2-0.8,0.3c-0.6,0.2-1.3,0.5-1.9,0.7c-0.1,0-0.2,0-0.3,0
		c0-0.2,0-0.3,0.1-0.4c0.3-0.6,0.5-1.2,0.8-1.8c0.4-0.9,0.8-1.7,1.2-2.6c0.2,0.1,0.3,0.2,0.4,0.4c0.1,0.1,0.3,0.2,0.4,0.4
		c-0.2,0.3-0.4,0.7-0.5,1C45.8,75.8,45.6,76.3,45.4,76.9C45.3,76.8,45.3,76.8,45.4,76.9L45.4,76.9"/>
	<path class="st0" d="M20.6,51.1c0.2,0.2,0.4,0.4,0.6,0.6c0.2,0.2,0.4,0.2,0.6,0.1c0.3-0.2,0.4-0.5,0.2-0.8
		c-0.2-0.2-0.4-0.4-0.6-0.6C21.1,50.7,20.8,50.9,20.6,51.1z M19.1,52.6c0.2,0.2,0.4,0.4,0.6,0.6l0.1,0.1c0.2,0.2,0.6,0.2,0.8,0
		c0.2-0.2,0.2-0.5,0-0.8c-0.2-0.2-0.5-0.5-0.7-0.7C19.7,52,19.4,52.3,19.1,52.6 M21.5,52.6c0.4,0.8-0.1,1.4-0.6,1.7
		c-0.1,0-0.2,0.1-0.3,0.1c-0.1,0-0.1,0-0.2,0c-0.5,0.1-0.8-0.2-1.2-0.5c-0.5-0.5-1-0.9-1.5-1.5c1.2-1.2,2.3-2.3,3.5-3.5
		c0.1,0.1,0.1,0.1,0.2,0.2c0.4,0.4,0.8,0.8,1.1,1.1c0.4,0.3,0.5,0.8,0.5,1.3s-0.6,1.1-1,1C21.9,52.6,21.7,52.6,21.5,52.6z"/>
	<path class="st0" d="M36.5,57c0.2,0.2,0.4,0.4,0.5,0.5s0.2,0.1,0.2,0.2c0.2,0.1,0.4,0,0.6-0.2c0.2-0.2,0.2-0.4,0-0.6
		c-0.2-0.2-0.4-0.5-0.6-0.6C37,56.6,36.7,56.8,36.5,57 M35,58.5c0.2,0.2,0.4,0.4,0.6,0.6c0.3,0.3,0.6,0.2,0.8,0s0.2-0.6,0-0.8
		s-0.4-0.4-0.7-0.7C35.6,57.9,35.3,58.2,35,58.5 M33.7,58.4c1.1-1.1,2.3-2.3,3.4-3.4c0.1,0.1,0.2,0.2,0.4,0.4
		c0.3,0.3,0.6,0.6,0.9,0.9c0.1,0.1,0.2,0.2,0.3,0.4c0.3,0.4,0.3,1.3-0.1,1.7c-0.2,0.2-0.5,0.3-0.8,0.3c-0.1,0-0.2,0-0.3,0
		c0.5,0.9-0.4,1.7-1.1,1.8c-0.5,0-0.9-0.1-1.2-0.5c-0.4-0.4-0.8-0.8-1.2-1.2C33.8,58.6,33.8,58.5,33.7,58.4"/>
	<path class="st0" d="M10.3,29.9c0-0.2,0-0.5-0.2-0.7c-0.5-0.8-1.4-0.9-2.1-0.4c-0.4,0.2-0.6,0.6-0.7,1c-0.1,0.3-0.1,0.5,0,0.8
		c0.1,0.4,0.3,0.6,0.6,0.8c0.1,0.1,0.2,0.2,0.4,0.2c0.3,0.1,0.7,0,1-0.1C9.7,31.3,10.4,30.6,10.3,29.9 M8.7,32.5
		c-0.6,0.1-1.1-0.2-1.6-0.6c-0.4-0.2-0.6-0.7-0.8-1.2c-0.1-0.2-0.2-0.4-0.1-0.7c0.1-1.1,0.8-2.1,2-2.4c0.6,0,1.1-0.1,1.7,0.2
		c0.5,0.3,1,0.7,1.2,1.2c0.2,0.6,0.4,1.1,0.1,1.8c-0.1,0.3-0.2,0.6-0.4,0.8C10.3,32.2,9.6,32.7,8.7,32.5"/>
	<path class="st0" d="M34.9,64.5c0-0.2,0-0.3-0.1-0.5c-0.2-0.8-1.1-1.2-2-0.8c-0.5,0.2-0.9,0.7-1,1.2c-0.2,0.7,0.3,1.5,1,1.7
		C33.8,66.4,34.9,65.6,34.9,64.5 M33.3,62.1c0.6-0.1,1,0.1,1.5,0.5c0.5,0.3,0.8,0.8,1,1.3c0,0.2,0,0.4,0.1,0.6
		c0.1,1-0.4,1.7-1.2,2.3c-0.4,0.2-0.8,0.3-1.2,0.3c-0.7,0-1.3-0.2-1.8-0.7c-0.4-0.4-0.6-0.8-0.8-1.3c-0.2-0.5,0-1,0.2-1.5
		c0.3-0.7,0.9-1.2,1.6-1.4C32.9,62.1,33.1,62.1,33.3,62.1"/>
	<path class="st0" d="M6.4,37.5c0.3,0.2,0.5,0.5,0.8,0.7c0.3,0.2,0.6,0.2,0.9-0.1c0.2-0.2,0.3-0.6,0.1-0.8C8,37,7.7,36.8,7.5,36.6
		C7.1,36.9,6.7,37.2,6.4,37.5 M7.3,35.1c0.5,0.5,1,1,1.5,1.5c0.4,0.4,0.5,1,0.4,1.5c0,0.1-0.1,0.3-0.2,0.4c-0.3,0.5-0.7,0.8-1.2,0.9
		c-0.1,0-0.3,0-0.4,0s-0.2,0-0.3-0.1C7,39.4,7,39.6,7,39.7c0,0.2-0.1,0.4-0.1,0.6c-0.1,0.3-0.2,0.6-0.3,1C6.3,41,6,40.8,5.8,40.5
		c0.2-0.6,0.3-1.2,0.5-1.9c-0.1-0.1-0.2-0.2-0.3-0.3c-0.2-0.1-0.2-0.1-0.3,0c-0.3,0.3-0.5,0.5-0.8,0.8c-0.1,0.1-0.2,0.1-0.2,0.2
		c-0.2-0.2-0.5-0.5-0.7-0.8C5,37.4,6.1,36.3,7.3,35.1"/>
	<path class="st0" d="M51.8,72.9c0.2,0.2,0.4,0.4,0.6,0.6c0,0,0,0,0,0.1c0.3,0.2,0.6,0.2,0.9-0.1c0.2-0.2,0.3-0.6,0.1-0.9
		s-0.4-0.5-0.7-0.7C52.4,72.2,52.1,72.6,51.8,72.9 M52.6,70.5c0.5,0.5,0.9,0.9,1.3,1.3c0.1,0.1,0.3,0.3,0.4,0.5c0.6,1,0.1,2-0.8,2.3
		c-0.3,0.1-0.7,0.1-1.1,0c-0.2,0.7-0.3,1.4-0.5,2.1c-0.2-0.3-0.5-0.5-0.7-0.7c-0.1-0.1-0.1-0.2-0.1-0.3c0.1-0.4,0.2-0.8,0.3-1.2
		c0.1-0.5,0.1-0.5-0.3-0.9c-0.4,0.4-0.8,0.8-1.1,1.1c-0.2-0.2-0.5-0.5-0.7-0.7C50.3,72.8,51.5,71.7,52.6,70.5"/>
	<path class="st0" d="M33.5,51.4c0.2,0.2,0.4,0.5,0.7,0.7c0,0-0.1,0.1-0.2,0.2c-0.6,0.7-1.3,1.3-1.9,1.9c-0.1,0.1-0.2,0.2-0.3,0.4
		s-0.1,0.5,0,0.7s0.3,0.3,0.4,0.5c0.3,0.3,0.7,0.2,0.9-0.1c0.5-0.4,0.9-0.9,1.4-1.3c0.3-0.3,0.6-0.6,0.9-0.9
		c0.2,0.2,0.5,0.5,0.7,0.7c0,0-0.1,0.1-0.2,0.2c-0.7,0.7-1.3,1.3-2,2c-0.3,0.3-0.6,0.4-0.9,0.5c-0.5,0.1-1,0-1.4-0.3
		c-0.6-0.4-0.9-1-1.1-1.6c0-0.1,0-0.2,0-0.3c0.1-0.3,0.2-0.6,0.4-0.9C31.9,53,32.7,52.2,33.5,51.4"/>
	<path class="st0" d="M17.6,45.5c0.3,0.2,0.5,0.5,0.8,0.7c-0.2,0.2-0.4,0.4-0.6,0.6c-0.5,0.5-1,1-1.5,1.6c-0.1,0.1-0.2,0.2-0.3,0.3
		c-0.2,0.3-0.2,0.6,0,0.8c0.1,0.1,0.2,0.3,0.4,0.4c0.2,0.2,0.7,0.2,1,0c0.1-0.1,0.1-0.1,0.2-0.2c0.6-0.6,1.3-1.3,1.9-1.9
		c0.1-0.1,0.1-0.2,0.2-0.3c0.2,0.2,0.3,0.3,0.4,0.4c0.1,0.1,0.2,0.2,0.4,0.4c-0.4,0.4-0.9,0.9-1.3,1.3c-0.2,0.2-0.5,0.5-0.7,0.7
		c-0.1,0.1-0.2,0.2-0.3,0.3c-0.2,0.2-0.5,0.3-0.8,0.4c-0.7,0.2-1.2-0.1-1.6-0.5c-0.4-0.3-0.6-0.7-0.8-1.2c-0.1-0.4,0-0.7,0.2-1
		c0.1-0.2,0.2-0.4,0.3-0.5C16.1,46.9,16.8,46.2,17.6,45.5z"/>
	<path class="st0" d="M13.7,44.8c0.2,0.2,0.3,0.4,0.5,0.5c0.3,0.3,0.7,0.3,1,0s0.4-0.7,0.1-1c-0.2-0.2-0.4-0.4-0.6-0.5
		C14.4,44.1,14,44.5,13.7,44.8z M11.9,46.6c-0.3-0.3-0.5-0.5-0.8-0.7c1.2-1.2,2.3-2.3,3.5-3.5c0,0,0.1,0.1,0.2,0.1
		c0.4,0.4,0.7,0.7,1,1c0.3,0.3,0.4,0.6,0.6,0.9c0.1,0.3,0.1,0.6,0,0.8c-0.2,0.8-1,1.3-1.8,1.2c-0.4,0-0.7-0.2-1-0.5
		c-0.1-0.1-0.3-0.3-0.4-0.4c-0.1-0.1-0.1-0.1-0.2-0.2C12.6,45.9,12.3,46.2,11.9,46.6"/>
	<path class="st0" d="M30.6,49.7c-0.4,0.4-0.7,0.7-1.1,1.1c0.2,0.2,0.4,0.4,0.6,0.5c0.1,0.1,0.1,0.1,0.2,0.1s0.2,0.1,0.2,0.1
		c0.3-0.1,0.6-0.2,0.7-0.5s0-0.5-0.2-0.8C30.9,50,30.8,49.9,30.6,49.7 M30.5,48.3c0.5,0.5,1,1,1.4,1.5c0.4,0.4,0.5,1,0.3,1.6
		c-0.2,0.5-0.5,0.8-1,1c-0.4,0.2-0.8,0.2-1.2,0c-0.2-0.1-0.5-0.3-0.7-0.5c-0.2-0.1-0.3-0.3-0.5-0.5c-0.4,0.4-0.7,0.7-1.1,1.1
		c-0.2-0.2-0.5-0.5-0.7-0.7C28.2,50.6,29.3,49.5,30.5,48.3"/>
	<path class="st0" d="M31.1,60.2c-0.3-0.1-0.6-0.1-0.8-0.1c-0.1,0-0.2-0.1-0.2-0.2c0-0.1,0-0.1,0-0.2c0-0.6-0.4-1.1-1-1.2
		c-0.5-0.1-0.9-0.1-1.3,0.2s-0.7,0.8-0.8,1.2c-0.1,0.3,0.1,0.6,0.2,0.8c0.3,0.4,0.7,0.7,1.2,0.7c0.1,0,0.2,0,0.4,0
		c0.1,0.3,0.2,0.6,0.2,1c-0.3,0-0.7,0-1,0s-0.5-0.2-0.7-0.3c-0.7-0.4-1.1-1-1.2-1.8s0.1-1.4,0.7-2s1.3-0.9,2.2-0.8
		c1,0.2,1.7,0.7,2.1,1.7l0,0C31,59.4,31,59.8,31.1,60.2"/>
	<path class="st0" d="M46.9,66.1c-0.3,0-0.6-0.1-0.9-0.2c0.1-0.6-0.1-1.1-0.6-1.5c-0.5-0.3-1-0.3-1.5,0c-0.6,0.4-0.9,0.8-0.9,1.5
		c0,0.2,0,0.3,0.1,0.5c0.2,0.4,0.5,0.7,0.9,0.8c0.2,0.1,0.4,0,0.5,0c0.2,0,0.2,0,0.3,0.2c0,0.2,0.1,0.4,0.1,0.6
		c-0.7,0.2-1.3,0-1.9-0.4c-0.6-0.4-1-1.1-1.1-1.8c-0.1-0.4,0.1-0.9,0.2-1.3c0.2-0.5,0.6-0.9,1.2-1.2c0.3-0.2,0.6-0.3,1-0.2
		c0.1,0,0.2,0,0.4,0c0.4,0,0.7,0.1,1,0.2c0.5,0.3,0.9,0.7,1.2,1.2c0.2,0.3,0.2,0.7,0.2,1.1C47,65.9,46.9,66,46.9,66.1"/>
	<path class="st0" d="M25.3,47.9c0.1-0.3,0.2-0.5,0.3-0.7c0.1-0.2,0.2-0.4,0.3-0.7c-0.5,0.2-0.9,0.4-1.3,0.6
		C24.8,47.3,25.1,47.6,25.3,47.9 M23,47.7c-0.2-0.2-0.5-0.5-0.7-0.7c1.7-0.7,3.3-1.3,5-1.9h0.1c-0.6,1.7-1.3,3.4-1.9,5.1
		c-0.3-0.3-0.5-0.5-0.8-0.7c0.1-0.2,0.2-0.4,0.3-0.7c-0.2-0.2-0.3-0.3-0.5-0.5s-0.4-0.4-0.6-0.6c-0.1-0.1-0.2-0.1-0.3-0.1
		C23.3,47.6,23.2,47.7,23,47.7"/>
	<path class="st0" d="M48.6,71.2c0.1-0.2,0.2-0.5,0.3-0.7s0.2-0.4,0.3-0.7c-0.5,0.2-1,0.4-1.4,0.6C48.1,70.7,48.3,70.9,48.6,71.2z
		 M48.2,72.1c-0.4-0.4-0.8-0.8-1.1-1.1c-0.1-0.1-0.3-0.2-0.4-0.1c-0.1,0.1-0.2,0.1-0.4,0.2c-0.2-0.2-0.4-0.5-0.6-0.7
		c0,0,0.1-0.1,0.2-0.1c0.8-0.3,1.6-0.6,2.3-0.9c0.8-0.3,1.5-0.6,2.3-0.9c0,0,0,0,0.1,0c0,0.1,0,0.2,0,0.3c0,0.1,0,0.1-0.1,0.2
		c-0.3,0.9-0.7,1.8-1,2.6c-0.2,0.6-0.5,1.2-0.7,1.8c0,0,0,0.1-0.1,0.2c-0.2-0.2-0.5-0.5-0.8-0.7C48.1,72.5,48.1,72.3,48.2,72.1z"/>
	<path class="st0" d="M42.3,74.9c0.2-0.5,0.4-0.9,0.6-1.4c-0.3,0.1-0.5,0.2-0.7,0.3c-0.2,0.1-0.5,0.2-0.7,0.3
		C41.8,74.3,42.1,74.6,42.3,74.9z M44.3,72.1c-0.1,0.6-0.4,1.1-0.6,1.7s-0.4,1.1-0.6,1.7c-0.2,0.6-0.4,1.1-0.7,1.7
		c-0.3-0.3-0.5-0.5-0.8-0.8c0.1-0.2,0.1-0.3,0.2-0.4s0-0.2-0.1-0.4c-0.4-0.4-0.8-0.8-1.2-1.2c-0.2,0.1-0.4,0.2-0.7,0.3
		c-0.2-0.2-0.4-0.5-0.7-0.7c0.8-0.3,1.6-0.7,2.4-1C42.6,72.7,43.4,72.4,44.3,72.1L44.3,72.1z"/>
	<path class="st0" d="M50.5,81.1C50.4,81.1,50.4,81.1,50.5,81.1c-0.5,0.2-0.9,0.3-1.2,0.5c0,0-0.1,0.1-0.2,0.1
		c0.3,0.2,0.5,0.5,0.8,0.8C50.1,82,50.3,81.6,50.5,81.1 M47.5,82.3c-0.2-0.2-0.4-0.5-0.7-0.7c0.2-0.1,0.5-0.2,0.7-0.3
		c0.7-0.3,1.3-0.5,2-0.8s1.4-0.6,2.1-0.8c0.1,0,0.1,0,0.2,0c0,0.5-0.3,0.9-0.4,1.3c-0.1,0.4-0.3,0.9-0.5,1.3s-0.3,0.8-0.5,1.3
		c-0.2,0.4-0.3,0.8-0.5,1.3c-0.2-0.3-0.5-0.5-0.7-0.8c0.1-0.2,0.1-0.4,0.2-0.6c-0.4-0.4-0.8-0.8-1.2-1.2c-0.1-0.1-0.2-0.1-0.3-0.1
		C47.9,82.2,47.7,82.2,47.5,82.3"/>
	<path class="st0" d="M2.4,35c0.3,0.3,0.5,0.5,0.8,0.8c0.2-0.5,0.4-0.9,0.6-1.4C3.4,34.6,2.9,34.8,2.4,35z M0.2,34.9
		c0.5-0.2,0.9-0.3,1.3-0.5c1.1-0.4,2.3-0.9,3.4-1.3C5,33.1,5.2,33,5.3,33c-0.7,1.7-1.3,3.4-1.9,5.1c-0.3-0.3-0.5-0.5-0.8-0.7
		c0.1-0.2,0.2-0.4,0.3-0.7c-0.4-0.4-0.9-0.9-1.3-1.3c-0.2,0.1-0.4,0.2-0.6,0.3C0.7,35.4,0.5,35.2,0.2,34.9z"/>
	<path class="st0" d="M18.4,38.9c-0.5,0.2-1,0.4-1.4,0.6c0.3,0.3,0.5,0.5,0.8,0.8C18,39.8,18.2,39.4,18.4,38.9z M19.8,37.5
		c-0.7,1.8-1.3,3.4-1.9,5.1c-0.2-0.2-0.5-0.5-0.8-0.8c0.1-0.1,0.1-0.4,0.2-0.5c-0.4-0.4-0.9-0.9-1.3-1.3c-0.2,0.1-0.4,0.2-0.6,0.2
		c-0.2-0.2-0.4-0.5-0.7-0.7c0.5-0.2,1.1-0.4,1.6-0.7c0.6-0.2,1.1-0.5,1.7-0.7S19.2,37.6,19.8,37.5"/>
	<path class="st0" d="M13.1,37.9C14,37,15,36,15.9,35.1c-0.3-0.3-0.6-0.6-1-1c0.2-0.2,0.4-0.4,0.6-0.6c0.9,0.9,1.8,1.8,2.7,2.7
		c-0.2,0.2-0.4,0.4-0.7,0.6c-0.3-0.3-0.6-0.6-0.9-0.9c-0.9,0.9-1.9,1.9-2.8,2.8C13.6,38.4,13.4,38.2,13.1,37.9"/>
	<path class="st0" d="M55.6,73.5c0.9,0.9,1.8,1.8,2.6,2.7c-0.2,0.2-0.4,0.4-0.6,0.6c-0.3-0.3-0.6-0.6-0.9-1c-1,1-1.9,1.9-2.9,2.9
		c-0.2-0.2-0.5-0.5-0.7-0.7c1-0.9,1.9-1.9,2.8-2.8c-0.3-0.3-0.7-0.7-1-1C55.2,73.9,55.4,73.7,55.6,73.5z"/>
	<path class="st0" d="M12.9,32c-0.4-0.4-0.7-0.6-1-1c0.2-0.2,0.4-0.4,0.5-0.5s0.2-0.1,0.3,0l0.1,0.1c0.8,0.8,1.6,1.6,2.3,2.3
		c0,0,0.1,0.1,0.1,0.2c-0.2,0.2-0.4,0.4-0.7,0.6c-0.3-0.3-0.6-0.6-0.9-0.9c-0.3,0.2-0.5,0.5-0.7,0.7s-0.5,0.5-0.7,0.7
		s-0.4,0.5-0.7,0.7c-0.2,0.2-0.4,0.5-0.7,0.7c-0.3-0.2-0.5-0.5-0.8-0.7C11,33.9,11.9,33,12.9,32z"/>
	<path class="st0" d="M38.5,73.2c-0.3-0.3-0.5-0.5-0.7-0.8c0.9-0.9,1.8-1.8,2.8-2.8c-0.3-0.3-0.6-0.6-1-1c0.2-0.2,0.4-0.4,0.6-0.6
		c0.9,0.9,1.8,1.8,2.7,2.7c-0.2,0.2-0.4,0.4-0.7,0.6c-0.3-0.3-0.6-0.6-0.9-1C40.3,71.3,39.4,72.2,38.5,73.2"/>
	<path class="st0" d="M8.5,43.2C8.2,43,8,42.7,7.8,42.5c0.9-0.9,1.9-1.8,2.8-2.8c-0.3-0.3-0.6-0.6-1-1c0.2-0.2,0.4-0.4,0.6-0.6
		c0.9,0.9,1.8,1.8,2.6,2.7c-0.2,0.2-0.4,0.4-0.6,0.6c-0.3-0.3-0.6-0.6-0.9-0.9C10.4,41.4,9.5,42.3,8.5,43.2"/>
	<path class="st0" d="M34.7,69.3c0.9-0.9,1.8-1.8,2.8-2.8c-0.3-0.3-0.7-0.7-1-1c0.2-0.2,0.3-0.4,0.5-0.5c0.1-0.1,0.2-0.1,0.3,0
		c0,0,0,0,0.1,0.1c0.8,0.8,1.6,1.6,2.4,2.4l0.1,0.1c-0.2,0.2-0.4,0.4-0.7,0.6c-0.3-0.3-0.6-0.6-1-1c-0.9,0.9-1.9,1.9-2.8,2.8
		C35.1,69.8,34.9,69.6,34.7,69.3"/>
	<path class="st0" d="M40.3,58.1c0.2,0.2,0.5,0.4,0.7,0.7c-0.9,1-1.9,1.9-2.8,2.8c0.5,0.5,1,1,1.6,1.6c-0.2,0.2-0.4,0.4-0.7,0.6
		c-0.7-0.7-1.5-1.5-2.2-2.2C38,60.4,39.1,59.3,40.3,58.1"/>
	<path class="st0" d="M22.2,55.7c0.5,0.5,1.1,1,1.6,1.5c-0.2,0.2-0.4,0.4-0.6,0.6c-0.7-0.7-1.5-1.5-2.3-2.2c1.1-1.2,2.3-2.3,3.5-3.5
		c0.2,0.3,0.5,0.5,0.7,0.8C24.2,53.8,23.2,54.8,22.2,55.7"/>
	<path class="st0" d="M43,60.9c0.3,0.2,0.5,0.5,0.7,0.7c-1.2,1.2-2.3,2.3-3.5,3.5c-0.2-0.2-0.4-0.4-0.7-0.7c0.5-0.6,1.1-1.2,1.7-1.7
		C41.9,62,42.4,61.5,43,60.9z"/>
	<path class="st0" d="M27.9,55.7c-1.2,1.2-2.3,2.3-3.5,3.5c-0.3-0.2-0.5-0.5-0.7-0.7c0.1-0.2,2.9-3,3.5-3.5
		C27.4,55.2,27.6,55.5,27.9,55.7z"/>
	<path class="st0" d="M85.6,48.7L85.6,48.7C85.7,48.7,85.6,48.8,85.6,48.7C85.6,48.8,85.6,48.7,85.6,48.7z"/>
	<path class="st0" d="M85.7,1.3L85.7,1.3l-0.1-0.1L85.7,1.3z"/>
	<path class="st0" d="M21.9,13.9C21.9,13.9,21.8,13.8,21.9,13.9c0-0.1,0-0.1,0-0.1C21.9,13.8,21.9,13.8,21.9,13.9"/>
	<path class="st0" d="M85.7,26.3C85.7,26.3,85.6,26.3,85.7,26.3C85.6,26.3,85.6,26.3,85.7,26.3C85.6,26.3,85.6,26.3,85.7,26.3z"/>
	<path class="st0" d="M48.8,38C48.8,38,48.8,38.1,48.8,38C48.7,38.1,48.7,38.1,48.8,38C48.7,38.1,48.7,38.1,48.8,38z"/>
	<path class="st0" d="M23.7,38C23.7,38,23.7,38.1,23.7,38C23.7,38.1,23.7,38.1,23.7,38C23.7,38.1,23.7,38.1,23.7,38"/>
</g>
</svg>
