<svg width="98" height="85" viewBox="0 0 98 85" fill="none" xmlns="http://www.w3.org/2000/svg">
<g clip-path="url(#clip0_477_11563)">
<path d="M49.2295 36.7913C49.5295 36.5013 49.7895 36.2313 50.0495 35.9713C50.9195 35.1013 51.7895 34.2313 52.6595 33.3613C54.0895 31.9313 55.5195 30.5013 56.9495 29.0713C57.2695 28.7613 57.5695 28.4313 57.8795 28.1113C58.1495 27.8413 58.4395 27.5813 58.7095 27.3113C59.3195 26.7113 59.9295 26.1013 60.5295 25.4913C60.6595 25.3613 60.7795 25.3013 60.9695 25.3013C68.6395 25.3013 76.3195 25.3013 83.9895 25.3013C84.0895 25.3013 84.1795 25.3113 84.3295 25.3213C84.1595 25.5413 83.9895 25.6813 83.8195 25.8313C83.4395 26.1813 83.0895 26.5513 82.7195 26.9213C82.1795 27.4613 81.6295 28.0113 81.0895 28.5513C80.5395 29.1013 79.9895 29.6513 79.4395 30.2013C78.9995 30.6313 78.5595 31.0613 78.1295 31.5013C77.6495 31.9813 77.1695 32.4713 76.6995 32.9513C76.1195 33.5413 75.5495 34.1313 74.9795 34.7213C74.6795 35.0313 74.3695 35.3213 74.0595 35.6213C73.7095 35.9613 73.3495 36.2913 73.0195 36.6413C72.8595 36.8113 72.6895 36.8813 72.4595 36.8813C64.8995 36.8813 57.3395 36.8813 49.7795 36.8813C49.6095 36.8813 49.4295 36.8413 49.2095 36.8113" fill="#BFFFC2"/>
<path d="M49.2595 37.8413C49.5995 37.8413 49.9395 37.8413 50.2795 37.8413H72.4695C72.5295 38.1113 72.5395 60.8413 72.4695 61.1713C72.3095 61.0013 72.1595 60.8413 71.9995 60.6913C69.3295 58.0213 66.6595 55.3513 63.9995 52.6913C59.1795 47.8713 54.3595 43.0513 49.5395 38.2313C49.4395 38.1313 49.3395 38.0113 49.2495 37.9013C49.2495 37.8813 49.2495 37.8613 49.2495 37.8513" fill="#BFFFC2"/>
<path d="M24.1899 12.791H47.4299C47.4899 13.031 47.5099 35.571 47.4499 36.041C47.4399 36.041 47.4299 36.041 47.4199 36.041C47.4099 36.041 47.3899 36.041 47.3899 36.041C39.6599 28.291 31.9399 20.551 24.1999 12.791" fill="#BFFFC2"/>
<path d="M46.6296 36.811C46.6296 36.811 46.5896 36.841 46.5596 36.841C38.8596 36.841 31.1496 36.841 23.4396 36.841C23.4396 36.841 23.4296 36.831 23.4196 36.821C23.4196 36.821 23.3996 36.801 23.3996 36.791C23.3996 29.131 23.3996 21.471 23.3896 13.811V13.561C31.1396 21.301 38.8796 29.051 46.6296 36.801" fill="#BFFFC2"/>
<path d="M48.4499 61.9011C48.4499 54.1611 48.4499 46.4611 48.4499 38.7511C48.4499 38.7211 48.4799 38.6911 48.4899 38.6611C48.7199 38.8011 71.4199 61.4811 71.7499 61.9011H48.4399H48.4499Z" fill="#BFFFC2"/>
<path d="M73.5098 61.221C73.5198 60.841 73.5398 60.551 73.5398 60.261C73.5398 53.491 73.5398 46.721 73.5398 39.951C73.5398 39.241 73.5398 38.541 73.5398 37.831C73.5398 37.621 73.6098 37.471 73.7498 37.331C75.5798 35.501 77.4098 33.671 79.2398 31.841C81.0898 29.991 82.9298 28.151 84.7798 26.301C84.8598 26.221 84.9598 26.131 85.0598 26.041C85.0598 33.791 85.0598 41.501 85.0598 49.211C85.0598 49.561 84.9598 49.791 84.7198 50.041C81.0898 53.661 77.4598 57.291 73.8298 60.911C73.7398 61.001 73.6398 61.091 73.5098 61.221Z" fill="#BFFFC2"/>
<path d="M59.7598 24.8313C56.0098 28.5813 52.2498 32.3413 48.4898 36.1013C48.4298 35.8513 48.4098 14.0713 48.4698 13.5513C48.4798 13.5513 48.4898 13.5513 48.4998 13.5513C48.5098 13.5513 48.5298 13.5513 48.5298 13.5513C52.2598 17.2713 55.9798 20.9913 59.6998 24.7113C59.7198 24.7313 59.7298 24.7713 59.7598 24.8313Z" fill="#BFFFC2"/>
<path d="M86.2098 1.08129C86.8098 1.67129 87.4098 2.26129 88.0098 2.86129C91.0698 5.91129 94.1198 8.97129 97.1698 12.0213C97.2398 12.0913 97.3098 12.1713 97.4098 12.2713C93.6398 16.0413 89.8698 19.8113 86.0698 23.6013V23.1713C86.0698 15.8713 86.0698 8.58129 86.0698 1.28129C86.0698 1.21129 86.0698 1.14129 86.0698 1.07129H86.1998L86.2098 1.08129Z" fill="#BFFFC2"/>
<path d="M47.4596 38.6511C47.4596 46.0711 47.4596 53.5011 47.4596 60.9211C47.4596 60.9711 47.4296 61.0311 47.4096 61.1111C47.3296 61.0511 47.2697 61.0111 47.2197 60.9611C46.1597 59.9011 45.0997 58.8311 44.0297 57.7711C43.2597 57.0011 42.4796 56.2311 41.6996 55.4611C40.7796 54.5411 39.8696 53.6211 38.9596 52.7011C38.0796 51.8211 37.2097 50.9511 36.3297 50.0811C36.2697 50.0211 36.2196 49.9611 36.1396 49.8711C39.8896 46.1211 43.6396 42.3711 47.3896 38.6211C47.4096 38.6311 47.4396 38.6411 47.4596 38.6511Z" fill="#BFFFC2"/>
<path d="M24.2097 37.8413C24.4297 37.8413 24.6397 37.8413 24.8597 37.8413C32.0497 37.8413 39.2497 37.8413 46.4397 37.8413H46.6397C46.6797 37.9913 46.5597 38.0313 46.4997 38.0913C44.3797 40.2113 42.2597 42.3313 40.1497 44.4513C38.6697 45.9313 37.1797 47.4213 35.6997 48.9013C35.6097 48.9913 35.5197 49.0713 35.4097 49.1713C34.9997 48.7613 34.6097 48.3713 34.2197 47.9813C33.5497 47.3113 32.8897 46.6513 32.2197 45.9813C31.7597 45.5213 31.3097 45.0613 30.8497 44.6013C30.0097 43.7613 29.1697 42.9313 28.3397 42.1013C27.6697 41.4213 26.9997 40.7413 26.3297 40.0713C25.6497 39.3913 24.9597 38.7113 24.2797 38.0313C24.2497 38.0013 24.2297 37.9613 24.1997 37.9213C24.1997 37.8913 24.2097 37.8713 24.2197 37.8413" fill="#BFFFC2"/>
<path d="M86.0796 48.5011C86.0796 48.2911 86.0796 48.0911 86.0796 47.8811V26.5011C86.0796 26.3811 86.0796 26.2511 86.0796 26.1211C86.1096 26.1211 86.1396 26.1111 86.1596 26.1011C87.7396 27.6811 89.3196 29.2611 90.8996 30.8311C92.9796 32.9111 95.0596 34.9911 97.1396 37.0711C97.2196 37.1511 97.2896 37.2311 97.3796 37.3211C97.2996 37.4111 97.2396 37.4811 97.1696 37.5511C93.5496 41.1711 89.9296 44.7911 86.3196 48.4011C86.2896 48.4311 86.2496 48.4611 86.2196 48.4911C86.1696 48.4911 86.1296 48.4911 86.0796 48.4811" fill="#BFFFC2"/>
<path d="M60.5198 74.1814C56.7698 70.4314 53.0298 66.6914 49.2798 62.9414H71.7398C71.7398 62.9414 71.7498 62.9414 71.7498 62.9514C71.7498 62.9614 71.7498 62.9814 71.7498 62.9814C67.9998 66.7214 64.2498 70.4614 60.5198 74.1714" fill="#BFFFC2"/>
<path d="M22.3598 13.6713C22.3598 13.7813 22.3698 13.9013 22.3698 14.0113V36.0413C22.0998 35.8813 11.7398 25.5713 11.0698 24.7913C11.1098 24.7513 11.1398 24.7113 11.1798 24.6713C14.8498 21.0013 18.5098 17.3413 22.1798 13.6713C22.2098 13.6413 22.2498 13.6113 22.2898 13.5913C22.3098 13.6213 22.3398 13.6513 22.3598 13.6713Z" fill="#BFFFC2"/>
<path d="M84.3196 24.2713H61.8296C65.5596 20.5413 69.2996 16.8013 73.0496 13.0513C73.0896 13.0813 73.1596 13.1113 73.2096 13.1713C73.5996 13.5613 73.9896 13.9513 74.3796 14.3413C74.6596 14.6213 74.9596 14.8813 75.2396 15.1513C75.4796 15.3913 75.6996 15.6513 75.9296 15.8813C76.2296 16.1813 76.5496 16.4713 76.8596 16.7713C77.0996 17.0113 77.3196 17.2613 77.5596 17.5013C77.8596 17.8013 78.1696 18.1013 78.4796 18.4013C78.6096 18.5313 78.7196 18.6713 78.8496 18.8013C79.2996 19.2313 79.7496 19.6613 80.1896 20.0913C80.4496 20.3413 80.6796 20.6213 80.9296 20.8713C81.3996 21.3413 81.8896 21.7913 82.3696 22.2613C82.6896 22.5813 82.9896 22.9213 83.3096 23.2513C83.6296 23.5813 83.9596 23.9013 84.3296 24.2713" fill="#BFFFC2"/>
<path d="M85.0598 23.5209C81.2898 19.7509 77.5398 16.0009 73.7798 12.2409C77.5198 8.50094 81.2898 4.73094 85.0598 0.960938V23.5309V23.5209Z" fill="#BFFFC2"/>
<path d="M21.3695 42.1111C22.2095 41.8011 23.0495 41.4911 23.8795 41.1711C23.9995 41.1211 24.0695 41.1111 24.1495 41.2511C23.9295 41.8211 23.6795 42.4011 23.4895 43.0011C23.3895 43.3011 23.2795 43.5911 23.1495 43.8811C23.1195 43.9011 23.0895 43.9311 23.0595 43.9611C23.0595 43.9711 23.0695 43.9911 23.0795 44.0011C23.1295 43.9811 23.1695 43.9711 23.2195 43.9511C23.6195 43.7511 24.0195 43.5311 24.4295 43.3411C24.8395 43.1511 25.2495 42.9811 25.6895 42.7911C25.8995 43.0111 26.1095 43.2511 26.3495 43.5111C25.5895 43.9111 24.7795 44.2511 23.9895 44.6311C23.2095 45.0111 22.4195 45.3711 21.5495 45.7711C21.6595 45.1611 21.8995 44.6811 22.0695 44.1811C22.2395 43.6711 22.4495 43.1711 22.6595 42.6111C22.1095 42.7711 21.6195 43.0111 21.0995 43.1611C20.5795 43.3111 20.0795 43.5611 19.4595 43.6811C20.2195 42.0111 20.9595 40.4311 21.7095 38.8311C21.9695 39.1111 22.1995 39.3711 22.4695 39.6611C22.1095 40.4211 21.7095 41.2411 21.3195 42.0511L21.2695 42.1111C21.2695 42.1111 21.3395 42.1111 21.3695 42.1111Z" fill="#BFFFC2"/>
<path d="M45.9298 76.6611C46.4498 76.4511 46.9598 76.2311 47.4798 76.0311C47.7598 75.9211 48.0498 75.8311 48.3398 75.7411C48.4198 75.7211 48.5098 75.7311 48.6298 75.7211C48.6298 75.8311 48.6298 75.9211 48.5998 76.0011C48.2998 76.8111 47.9998 77.6211 47.6898 78.4311C47.6898 78.4611 47.6898 78.4911 47.6798 78.5211C47.7098 78.5111 47.7298 78.5011 47.7598 78.4811C48.5798 78.0911 49.3998 77.7011 50.1798 77.3211C50.4298 77.5611 50.6698 77.7811 50.8998 78.0011C50.5198 78.2711 46.3498 80.2011 46.0998 80.2211C46.2098 79.7011 46.4398 79.2211 46.6098 78.7311C46.7798 78.2411 46.9798 77.7511 47.1598 77.2711C47.1598 77.2411 47.1698 77.2211 47.1798 77.1911C47.1498 77.1911 47.1298 77.1911 47.0998 77.1911C46.8198 77.2911 46.5498 77.3911 46.2698 77.4911C45.6298 77.7111 44.9898 77.9411 44.3498 78.1611C44.2698 78.1911 44.1798 78.1911 44.0798 78.2111C44.0498 78.0511 44.1098 77.9511 44.1598 77.8411C44.4398 77.2311 44.7098 76.6211 44.9998 76.0211C45.4098 75.1511 45.8298 74.2911 46.2498 73.3911C46.4198 73.4811 46.5198 73.6311 46.6498 73.7511C46.7798 73.8711 46.9198 74.0011 47.0498 74.1211C46.8698 74.4711 46.6898 74.7911 46.5298 75.1111C46.2998 75.6011 46.0798 76.1011 45.8598 76.5911C45.8498 76.6211 45.8398 76.6411 45.8298 76.6711C45.8598 76.6711 45.8898 76.6711 45.9198 76.6611" fill="#BFFFC2"/>
<path d="M21.0797 50.911C21.2797 51.111 21.4597 51.301 21.6497 51.471C21.8597 51.661 22.0397 51.691 22.2297 51.581C22.5197 51.421 22.6097 51.061 22.3897 50.801C22.2097 50.591 21.9897 50.401 21.8097 50.231C21.5697 50.461 21.3297 50.681 21.0797 50.911ZM19.6297 52.381C19.8197 52.571 20.0097 52.751 20.1897 52.941C20.2197 52.971 20.2597 53.001 20.2897 53.031C20.5297 53.221 20.8897 53.211 21.0997 53.011C21.3097 52.801 21.3397 52.491 21.1397 52.241C20.9297 51.991 20.6897 51.771 20.4597 51.541C20.1697 51.841 19.9097 52.101 19.6397 52.391M22.0297 52.411C22.3897 53.251 21.9397 53.831 21.3797 54.101C21.2797 54.151 21.1697 54.171 21.0597 54.191C20.9897 54.201 20.9197 54.191 20.8497 54.191C20.3697 54.271 20.0197 54.031 19.6997 53.731C19.2097 53.271 18.7397 52.791 18.2397 52.281C19.3997 51.121 20.5497 49.971 21.7097 48.811C21.7897 48.881 21.8597 48.941 21.9197 49.001C22.2997 49.381 22.6797 49.761 23.0597 50.131C23.4197 50.481 23.5797 50.881 23.5497 51.391C23.5297 51.851 22.9797 52.491 22.4997 52.411C22.3597 52.381 22.2097 52.411 22.0297 52.411Z" fill="#BFFFC2"/>
<path d="M36.9699 56.8312C37.1599 57.0212 37.3299 57.1912 37.5099 57.3512C37.5799 57.4212 37.6699 57.4812 37.7599 57.5112C37.9599 57.5912 38.1799 57.5112 38.3299 57.3212C38.4799 57.1312 38.4999 56.9412 38.3499 56.7612C38.1499 56.5212 37.9199 56.3112 37.7299 56.1212C37.4699 56.3712 37.2399 56.5812 36.9799 56.8312M35.5499 58.2912C35.7499 58.4912 35.9499 58.6912 36.1599 58.9012C36.4599 59.2112 36.7599 59.1112 36.9799 58.9412C37.2099 58.7712 37.2199 58.3112 37.0199 58.1112C36.7999 57.8812 36.5799 57.6612 36.3699 57.4512C36.0799 57.7412 35.8199 58.0112 35.5399 58.2912M34.1999 58.1812C35.3299 57.0612 36.4799 55.9112 37.6499 54.7412C37.7599 54.8512 37.8899 54.9812 38.0299 55.1212C38.3199 55.4112 38.6099 55.7012 38.8999 55.9912C39.0099 56.1012 39.1099 56.2312 39.2099 56.3512C39.5199 56.7412 39.5199 57.6512 39.0899 58.0112C38.8399 58.2212 38.5899 58.3612 38.2599 58.3412C38.1499 58.3412 38.0299 58.3412 37.9099 58.3412C38.3899 59.2712 37.5099 60.0712 36.8199 60.1112C36.3399 60.1412 35.9499 59.9612 35.6199 59.6412C35.2199 59.2512 34.8299 58.8612 34.4299 58.4612C34.3399 58.3712 34.2699 58.2712 34.1899 58.1612" fill="#BFFFC2"/>
<path d="M10.7998 29.7312C10.8398 29.4812 10.7798 29.2312 10.6298 29.0012C10.1198 28.2012 9.17982 28.1112 8.51982 28.5712C8.15982 28.8212 7.90982 29.1412 7.77982 29.5612C7.69982 29.8312 7.69982 30.0912 7.77982 30.3512C7.88982 30.7012 8.10982 30.9712 8.40982 31.1712C8.52982 31.2512 8.64982 31.3512 8.78982 31.3712C9.10982 31.4312 9.43982 31.3812 9.74982 31.2712C10.2198 31.1012 10.8998 30.4212 10.7998 29.7212M9.22982 32.3412C8.62982 32.4412 8.12982 32.1512 7.67982 31.7912C7.24982 31.4512 6.95982 31.0012 6.82982 30.4712C6.76982 30.2412 6.66982 30.0312 6.69982 29.7812C6.81982 28.6612 7.50982 27.6712 8.67982 27.3712C9.23982 27.3712 9.80982 27.2712 10.3498 27.5612C10.8898 27.8412 11.3298 28.2412 11.5698 28.8012C11.8198 29.3712 11.9398 29.9412 11.7098 30.5712C11.6098 30.8612 11.4998 31.1412 11.3098 31.3812C10.8498 31.9712 10.0998 32.4712 9.22982 32.3512" fill="#BFFFC2"/>
<path d="M35.3798 64.3012C35.3598 64.1512 35.3498 63.9812 35.3098 63.8412C35.0598 63.0712 34.1698 62.6312 33.3298 63.0012C32.7998 63.2312 32.4498 63.6613 32.2998 64.2013C32.1098 64.8913 32.5898 65.6612 33.2898 65.9012C34.2598 66.2312 35.3698 65.3813 35.3898 64.3113M33.8398 61.9112C34.3998 61.8612 34.8898 62.0513 35.3298 62.3813C35.7898 62.7213 36.1298 63.1613 36.2798 63.7213C36.3298 63.9113 36.3298 64.1212 36.3498 64.3212C36.4298 65.3212 35.9898 66.0612 35.1598 66.5912C34.7798 66.8312 34.3598 66.9113 33.9098 66.9313C33.1898 66.9613 32.5998 66.7012 32.0898 66.2212C31.7098 65.8612 31.4898 65.4112 31.3398 64.9112C31.1698 64.3712 31.2898 63.8712 31.5198 63.3912C31.8598 62.6712 32.3998 62.1813 33.1698 61.9713C33.3798 61.9113 33.6198 61.9313 33.8498 61.9213" fill="#BFFFC2"/>
<path d="M6.87988 37.3111C7.13988 37.5511 7.36988 37.7911 7.63988 37.9811C7.91988 38.1911 8.21988 38.1411 8.49988 37.8811C8.71988 37.6711 8.77988 37.2811 8.61988 37.0411C8.42988 36.7511 8.15988 36.5311 7.92988 36.3011C7.57988 36.6511 7.24988 36.9611 6.89988 37.3111M7.81988 34.8911C8.31988 35.4011 8.79988 35.8711 9.26988 36.3511C9.67988 36.7711 9.77988 37.3011 9.70988 37.8611C9.69988 38.0011 9.61988 38.1411 9.54988 38.2711C9.25988 38.7411 8.83988 39.0311 8.29988 39.1211C8.16988 39.1411 8.03988 39.1011 7.89988 39.0811C7.79988 39.0611 7.69988 39.0411 7.59988 39.0211C7.49988 39.1411 7.47988 39.2811 7.45988 39.4211C7.43988 39.6211 7.36988 39.8211 7.31988 40.0211C7.22988 40.3411 7.13988 40.6611 7.02988 41.0411C6.73988 40.7511 6.47988 40.5011 6.20988 40.2311C6.37988 39.6111 6.53988 38.9811 6.70988 38.3411C6.61988 38.2511 6.53988 38.1611 6.44988 38.0711C6.29988 37.9311 6.26988 37.9311 6.11988 38.0711C5.84988 38.3411 5.58988 38.6011 5.31988 38.8711C5.24988 38.9411 5.16988 39.0111 5.08988 39.0911C4.84988 38.8411 4.62988 38.6111 4.37988 38.3411C5.50988 37.2111 6.64988 36.0711 7.81988 34.9011" fill="#BFFFC2"/>
<path d="M52.2597 72.681C52.4697 72.891 52.6697 73.091 52.8697 73.291C52.8897 73.311 52.8997 73.321 52.9197 73.341C53.2197 73.571 53.5697 73.551 53.8397 73.281C54.0897 73.041 54.1297 72.651 53.9297 72.381C53.7397 72.121 53.4997 71.891 53.2397 71.691C52.9097 72.031 52.5897 72.351 52.2597 72.691M53.1497 70.291C53.6097 70.751 54.0497 71.181 54.4797 71.611C54.6097 71.751 54.7397 71.901 54.8397 72.071C55.4097 73.021 54.9497 74.031 53.9897 74.411C53.6697 74.541 53.2897 74.481 52.9097 74.391C52.6997 75.061 52.5897 75.751 52.3697 76.491C52.1297 76.231 51.9197 76.001 51.6997 75.791C51.5997 75.691 51.5497 75.601 51.5897 75.461C51.7097 75.051 51.8097 74.631 51.9197 74.221C52.0597 73.731 52.0497 73.681 51.5897 73.341C51.2097 73.721 50.8197 74.101 50.4397 74.481C50.1997 74.231 49.9697 74.001 49.7197 73.741C50.8497 72.611 51.9997 71.461 53.1497 70.301" fill="#BFFFC2"/>
<path d="M34.0496 51.1714C34.2696 51.4014 34.4896 51.6314 34.7296 51.8714C34.6896 51.9214 34.6296 51.9814 34.5696 52.0514C33.9296 52.7014 33.2796 53.3414 32.6396 53.9914C32.5196 54.1114 32.4096 54.2414 32.3196 54.3914C32.1696 54.6314 32.1796 54.8914 32.3496 55.1214C32.4796 55.2914 32.6396 55.4314 32.7896 55.5814C33.0996 55.8814 33.4796 55.7514 33.7296 55.5314C34.2096 55.1014 34.6696 54.6314 35.1296 54.1814C35.4496 53.8714 35.7596 53.5614 36.0596 53.2514C36.2996 53.4914 36.5396 53.7214 36.7896 53.9714C36.7396 54.0214 36.6796 54.1014 36.6096 54.1714C35.9496 54.8314 35.2896 55.4914 34.6296 56.1514C34.3696 56.4114 34.0596 56.6014 33.6996 56.7014C33.1796 56.8414 32.7196 56.6614 32.2896 56.3814C31.6996 55.9914 31.3696 55.4314 31.1996 54.7614C31.1796 54.6614 31.1696 54.5414 31.1996 54.4614C31.3196 54.1514 31.3696 53.8114 31.6296 53.5614C32.4396 52.7714 33.2396 51.9914 34.0596 51.1914" fill="#BFFFC2"/>
<path d="M18.0895 45.251C18.3495 45.491 18.5895 45.711 18.8495 45.961C18.6495 46.171 18.4595 46.361 18.2695 46.551C17.7595 47.071 17.2395 47.581 16.7295 48.101C16.6295 48.201 16.5395 48.301 16.4695 48.411C16.2895 48.691 16.2895 48.971 16.4795 49.241C16.5895 49.381 16.7295 49.511 16.8495 49.641C17.0795 49.881 17.5495 49.891 17.8195 49.671C17.8995 49.611 17.9695 49.541 18.0495 49.471C18.6895 48.841 19.3295 48.201 19.9595 47.561C20.0295 47.491 20.0795 47.401 20.1695 47.281C20.3295 47.441 20.4495 47.561 20.5695 47.671C20.6895 47.791 20.8095 47.911 20.9395 48.031C20.5095 48.471 20.0895 48.881 19.6795 49.301C19.4295 49.551 19.1895 49.801 18.9395 50.041C18.8295 50.151 18.7095 50.261 18.5995 50.371C18.3595 50.591 18.0695 50.681 17.7595 50.771C17.0695 50.961 16.5795 50.631 16.1095 50.221C15.7395 49.911 15.4895 49.501 15.3495 49.031C15.2495 48.671 15.3295 48.311 15.4995 47.991C15.5995 47.811 15.7095 47.641 15.8495 47.491C16.5895 46.731 17.3395 45.991 18.0895 45.251Z" fill="#BFFFC2"/>
<path d="M14.1599 44.6412C14.3299 44.8112 14.4999 45.0012 14.6899 45.1612C15.0199 45.4512 15.3699 45.4412 15.6699 45.1612C16.0099 44.8312 16.0499 44.4812 15.7499 44.1412C15.5799 43.9412 15.3799 43.7812 15.1999 43.6012C14.8599 43.9412 14.5299 44.2812 14.1599 44.6412ZM12.4299 46.4112C12.1299 46.1312 11.8899 45.9012 11.6699 45.6912C12.8299 44.5412 13.9699 43.4012 15.1299 42.2412C15.1599 42.2712 15.2299 42.3212 15.2899 42.3812C15.6399 42.7312 15.9799 43.0812 16.3299 43.4212C16.5999 43.6812 16.7699 43.9912 16.8999 44.3312C16.9999 44.6012 16.9899 44.8912 16.8999 45.1712C16.6599 45.9412 15.8599 46.4812 15.0999 46.3812C14.7199 46.3312 14.3999 46.1412 14.1099 45.8812C13.9699 45.7512 13.8399 45.6112 13.6999 45.4712C13.6399 45.4112 13.5599 45.3612 13.4999 45.3112C13.1399 45.6912 12.7899 46.0412 12.4399 46.4112" fill="#BFFFC2"/>
<path d="M31.1298 49.4913C30.7498 49.8713 30.4098 50.2013 30.0598 50.5513C30.2398 50.7313 30.4198 50.9113 30.6098 51.0913C30.6698 51.1513 30.7598 51.1913 30.8398 51.2313C30.9198 51.2613 31.0198 51.3113 31.0898 51.2913C31.3998 51.2213 31.6698 51.0513 31.7798 50.7513C31.8698 50.4913 31.8298 50.2213 31.6098 50.0013C31.4398 49.8313 31.2798 49.6513 31.1298 49.4813M31.0398 48.1013C31.5098 48.5913 32.0198 49.0913 32.4798 49.6313C32.8598 50.0813 32.9598 50.6313 32.7398 51.1913C32.5598 51.6513 32.2098 52.0013 31.7498 52.1713C31.3598 52.3213 30.9398 52.3313 30.5598 52.1313C30.3098 52.0013 30.0898 51.8213 29.8698 51.6413C29.6998 51.5013 29.5598 51.3413 29.3898 51.1713C29.0098 51.5513 28.6498 51.9013 28.2598 52.2913C28.0098 52.0413 27.7698 51.8113 27.5298 51.5713C28.6998 50.4113 29.8498 49.2613 31.0298 48.0913" fill="#BFFFC2"/>
<path d="M31.5596 60.0013C31.2396 59.9413 30.9996 59.9013 30.7596 59.8613C30.6196 59.8413 30.5596 59.7713 30.5696 59.6413C30.5696 59.5713 30.5696 59.5013 30.5696 59.4413C30.5696 58.8813 30.1596 58.2913 29.5996 58.1913C29.1396 58.1013 28.6796 58.1113 28.2696 58.4313C27.8596 58.7613 27.6096 59.1813 27.4996 59.6713C27.4296 59.9713 27.5796 60.2513 27.7396 60.5013C28.0096 60.9413 28.3996 61.2213 28.9496 61.1713C29.0596 61.1713 29.1796 61.1713 29.2996 61.1713C29.3896 61.4713 29.5096 61.7713 29.4596 62.1313C29.1196 62.1313 28.7896 62.1313 28.4696 62.1313C28.1896 62.1313 27.9696 61.9513 27.7396 61.8113C27.0796 61.3813 26.6596 60.7613 26.5396 59.9913C26.4196 59.2213 26.6796 58.5413 27.2096 57.9613C27.7996 57.3213 28.5296 57.0213 29.3896 57.1613C30.3896 57.3213 31.0996 57.8913 31.4796 58.8413C31.4796 58.8513 31.4896 58.8613 31.4896 58.8713C31.5096 59.2413 31.5296 59.6013 31.5596 60.0113" fill="#BFFFC2"/>
<path d="M47.3899 65.8713C47.0599 65.8913 46.7699 65.8213 46.4799 65.7113C46.5599 65.0813 46.3599 64.5713 45.8399 64.2413C45.3399 63.9213 44.8099 63.9313 44.2999 64.2513C43.7399 64.6113 43.4099 65.0913 43.4399 65.7713C43.4399 65.9313 43.4899 66.1113 43.5699 66.2613C43.7599 66.6413 44.0299 66.9513 44.4599 67.0713C44.6299 67.1213 44.8199 67.1013 44.9999 67.1013C45.2299 67.1013 45.2399 67.1013 45.2899 67.3313C45.3399 67.5413 45.3799 67.7513 45.4199 67.9613C44.6999 68.2013 44.0899 68.0113 43.5199 67.6113C42.8899 67.1713 42.5599 66.5313 42.4199 65.8013C42.3299 65.3613 42.4799 64.9213 42.6699 64.5213C42.9099 63.9913 43.2999 63.5813 43.8199 63.3013C44.1099 63.1413 44.4199 63.0313 44.7699 63.0713C44.8899 63.0813 45.0199 63.0813 45.1499 63.0713C45.5099 63.0313 45.8299 63.1313 46.1299 63.3013C46.6199 63.5913 47.0499 63.9513 47.2999 64.4913C47.4599 64.8413 47.5199 65.2013 47.4899 65.5813C47.4899 65.6813 47.4399 65.7713 47.4099 65.8713" fill="#BFFFC2"/>
<path d="M25.8198 47.7113C25.9298 47.4513 26.0398 47.2213 26.1198 46.9913C26.1998 46.7713 26.3598 46.5713 26.3998 46.2913C25.9198 46.5013 25.4798 46.6913 25.0698 46.8713C25.3198 47.1413 25.5598 47.4113 25.8198 47.7013M23.5198 47.5113C23.2798 47.2813 23.0498 47.0613 22.7798 46.8013C24.4698 46.1413 26.1198 45.5013 27.7698 44.8613C27.7898 44.8613 27.8298 44.8813 27.8898 44.9013C27.2498 46.6013 26.6098 48.2913 25.9698 50.0013C25.6998 49.7413 25.4498 49.5113 25.1998 49.2613C25.2898 49.0313 25.3698 48.8213 25.4598 48.5813C25.2898 48.4113 25.1198 48.2313 24.9498 48.0613C24.7298 47.8413 24.5098 47.6313 24.2998 47.4113C24.1998 47.3113 24.0998 47.2813 23.9598 47.3313C23.8198 47.4013 23.6698 47.4513 23.5198 47.5213" fill="#BFFFC2"/>
<path d="M49.1097 70.9714C49.2097 70.7214 49.2997 70.4814 49.3997 70.2614C49.4997 70.0314 49.6097 69.8114 49.7197 69.5814C49.2597 69.8214 48.7597 69.9414 48.3097 70.1914C48.5797 70.4614 48.8297 70.7014 49.1097 70.9714ZM48.7397 71.8614C48.3497 71.4714 47.9697 71.1114 47.5997 70.7314C47.4697 70.5914 47.3397 70.5714 47.1797 70.6514C47.0597 70.7114 46.9297 70.7514 46.7797 70.8114C46.5797 70.5714 46.3697 70.3314 46.1597 70.0814C46.1797 70.0714 46.2597 70.0214 46.3497 69.9914C47.1297 69.6814 47.9097 69.3914 48.6897 69.0814C49.4597 68.7814 50.2297 68.4614 50.9997 68.1514C51.0197 68.1514 51.0397 68.1514 51.0997 68.1514C51.0997 68.2514 51.0997 68.3414 51.0797 68.4414C51.0697 68.5114 51.0397 68.5714 51.0097 68.6314C50.6797 69.5114 50.3397 70.3814 50.0097 71.2614C49.7797 71.8714 49.5497 72.4914 49.3197 73.1014C49.2997 73.1514 49.2697 73.2014 49.2297 73.2814C48.9797 73.0314 48.7397 72.7914 48.4797 72.5414C48.5597 72.3214 48.6497 72.1114 48.7397 71.8614Z" fill="#BFFFC2"/>
<path d="M42.8198 74.6711C43.0298 74.1911 43.2298 73.7311 43.4498 73.2311C43.1898 73.3511 42.9598 73.4511 42.7398 73.5611C42.5198 73.6811 42.2498 73.7111 42.0698 73.8711C42.3198 74.1411 42.5598 74.3911 42.8198 74.6711ZM44.8398 71.9411C44.6998 72.5211 44.4298 73.0511 44.2398 73.6111C44.0498 74.1711 43.8298 74.7111 43.6298 75.2611C43.4198 75.8211 43.1998 76.3811 42.9698 76.9911C42.6998 76.7311 42.4598 76.4811 42.1998 76.2311C42.2598 76.0811 42.3098 75.9311 42.3798 75.7911C42.4498 75.6511 42.4298 75.5411 42.3198 75.4211C41.9298 75.0411 41.5498 74.6511 41.1598 74.2511C40.9398 74.3411 40.7298 74.4211 40.4998 74.5111C40.2898 74.2811 40.0698 74.0511 39.8398 73.8011C40.6398 73.4711 41.4498 73.1211 42.2698 72.8011C43.0998 72.4811 43.9298 72.1811 44.7598 71.8711C44.7898 71.8911 44.8098 71.9211 44.8398 71.9411Z" fill="#BFFFC2"/>
<path d="M50.9799 80.8811C50.9099 80.8811 50.8799 80.8611 50.8499 80.8811C50.4799 81.0411 50.0999 81.2111 49.7299 81.3811C49.6799 81.4111 49.6299 81.4511 49.5799 81.4911C49.8499 81.7411 50.1099 81.9811 50.3799 82.2411C50.5799 81.7711 50.7699 81.3512 50.9699 80.8912M48.0499 82.0911C47.8399 81.8611 47.6199 81.6311 47.3799 81.3811C47.6099 81.2811 47.8399 81.1911 48.0799 81.0911C48.7299 80.8311 49.3899 80.5812 50.0499 80.3212C50.7599 80.0412 51.4699 79.7511 52.1699 79.4811C52.2299 79.4611 52.2999 79.4512 52.3999 79.4312C52.3499 79.9112 52.0999 80.2912 51.9699 80.7112C51.8399 81.1512 51.6499 81.5811 51.4899 82.0111C51.3299 82.4311 51.1699 82.8511 51.0099 83.2711C50.8499 83.6911 50.6899 84.1011 50.5099 84.5511C50.2599 84.2811 50.0299 84.0312 49.7699 83.7512C49.8299 83.5912 49.9099 83.3811 49.9999 83.1511C49.6099 82.7611 49.2199 82.3612 48.8299 81.9612C48.7399 81.8612 48.6399 81.8512 48.5199 81.8912C48.3599 81.9512 48.1999 82.0211 48.0399 82.0811" fill="#BFFFC2"/>
<path d="M2.94971 34.811C3.22971 35.091 3.46971 35.351 3.74971 35.601C3.96971 35.111 4.15971 34.661 4.37971 34.171C3.88971 34.391 3.43971 34.591 2.94971 34.811ZM0.699707 34.731C1.15971 34.551 1.57971 34.391 1.98971 34.231C3.11971 33.791 4.24971 33.341 5.37971 32.901C5.49971 32.851 5.63971 32.841 5.82971 32.791C5.16971 34.531 4.53971 36.211 3.90971 37.891C3.63971 37.631 3.38971 37.391 3.12971 37.151C3.21971 36.941 3.28971 36.741 3.38971 36.501C2.95971 36.061 2.51971 35.621 2.07971 35.181C1.85971 35.271 1.65971 35.351 1.42971 35.441C1.20971 35.221 0.979707 35.001 0.699707 34.731Z" fill="#BFFFC2"/>
<path d="M18.8895 38.6913C18.3895 38.9113 17.9295 39.1213 17.4795 39.3213C17.7395 39.6013 17.9895 39.8513 18.2495 40.1313C18.4695 39.6413 18.6695 39.1913 18.8895 38.6913ZM20.3395 37.3013C19.6795 39.0513 19.0495 40.7213 18.4295 42.3813C18.1795 42.1313 17.9395 41.8813 17.6695 41.6013C17.7295 41.4513 17.8095 41.2413 17.8795 41.0613C17.4295 40.6113 16.9995 40.1713 16.5495 39.7213C16.3695 39.7913 16.1595 39.8713 15.9295 39.9713C15.7195 39.7413 15.5095 39.5013 15.2695 39.2513C15.7995 39.0413 16.3495 38.8213 16.9095 38.6013C17.4695 38.3813 18.0195 38.1413 18.5795 37.9413C19.1395 37.7413 19.6695 37.4413 20.3395 37.3113" fill="#BFFFC2"/>
<path d="M13.6396 37.671C14.5896 36.731 15.5096 35.811 16.4596 34.871C16.1496 34.551 15.8296 34.231 15.4996 33.891C15.7296 33.681 15.9396 33.491 16.1396 33.311C16.9996 34.171 17.8896 35.061 18.8096 35.981C18.6196 36.151 18.3996 36.341 18.1596 36.551C17.8796 36.271 17.5496 35.951 17.2196 35.621C16.2896 36.551 15.3596 37.481 14.4196 38.421C14.1396 38.201 13.9096 37.971 13.6596 37.681" fill="#BFFFC2"/>
<path d="M56.1497 73.2812C57.0397 74.1712 57.9197 75.0513 58.7897 75.9313C58.5897 76.1313 58.3897 76.3412 58.1597 76.5612C57.8697 76.2512 57.5797 75.9313 57.2497 75.5713C56.2697 76.5513 55.3397 77.4813 54.3897 78.4313C54.1397 78.1813 53.8997 77.9512 53.6597 77.7012C54.6097 76.7612 55.5397 75.8412 56.4897 74.9012C56.1397 74.5512 55.8197 74.2313 55.5197 73.9313C55.7297 73.7113 55.9397 73.5012 56.1497 73.2812Z" fill="#BFFFC2"/>
<path d="M13.4298 31.8011C13.0598 31.4511 12.7398 31.1511 12.3998 30.8211C12.5898 30.6311 12.7598 30.4611 12.9298 30.2911C13.0198 30.2011 13.1098 30.2011 13.1998 30.2911C13.2298 30.3211 13.2698 30.3511 13.2998 30.3911C14.0798 31.1711 14.8598 31.9511 15.6398 32.7311C15.6798 32.7711 15.7098 32.8211 15.7598 32.8811C15.5298 33.0811 15.3098 33.2811 15.0798 33.4811C14.7898 33.1911 14.4798 32.8911 14.1398 32.5511C13.8698 32.7811 13.6498 33.0211 13.4198 33.2511C13.1798 33.4811 12.9498 33.7211 12.7198 33.9511C12.4998 34.1811 12.2698 34.4011 12.0398 34.6311C11.8098 34.8711 11.5898 35.1111 11.3598 35.3611C11.0198 35.1511 10.8598 34.8411 10.5698 34.6411C11.5298 33.6911 12.4498 32.7711 13.4298 31.8011Z" fill="#BFFFC2"/>
<path d="M38.9697 72.9913C38.7097 72.7213 38.4897 72.4913 38.2397 72.2313C39.1397 71.3113 40.0797 70.4013 41.0297 69.4313C40.6997 69.1013 40.3897 68.7813 40.0497 68.4413C40.2797 68.2313 40.4997 68.0413 40.6997 67.8613C41.5697 68.7313 42.4597 69.6313 43.3697 70.5313C43.1697 70.7113 42.9497 70.9113 42.7097 71.1213C42.4197 70.8213 42.0997 70.4913 41.7697 70.1413C40.8297 71.0913 39.9097 72.0213 38.9697 72.9813" fill="#BFFFC2"/>
<path d="M9.04957 43.0314C8.78957 42.7814 8.55957 42.5514 8.30957 42.3014C9.23957 41.3714 10.1596 40.4514 11.0996 39.5014C10.7796 39.1814 10.4796 38.8714 10.1396 38.5214C10.3496 38.3014 10.5496 38.1014 10.7396 37.9014C11.6296 38.8014 12.5196 39.7014 13.3896 40.5814C13.2296 40.7414 13.0196 40.9514 12.7996 41.1714C12.5096 40.8814 12.1896 40.5714 11.8496 40.2314C10.9196 41.1614 9.98957 42.0914 9.05957 43.0214" fill="#BFFFC2"/>
<path d="M35.1899 69.1012C36.0799 68.2212 36.9999 67.3012 37.9599 66.3512C37.6299 66.0112 37.3099 65.6912 36.9799 65.3612C37.1599 65.1812 37.3299 65.0011 37.4999 64.8411C37.5899 64.7511 37.6799 64.7611 37.7699 64.8411C37.7899 64.8611 37.8199 64.8911 37.8399 64.9111C38.6299 65.7011 39.4199 66.4912 40.1999 67.2812C40.2399 67.3212 40.2699 67.3711 40.3099 67.4111C40.0899 67.6111 39.8899 67.8112 39.6499 68.0312C39.3499 67.7312 39.0199 67.4112 38.6799 67.0612C37.7399 68.0012 36.8199 68.9311 35.8799 69.8811C35.6499 69.6211 35.4299 69.3611 35.1899 69.0911" fill="#BFFFC2"/>
<path d="M40.7798 57.9111C40.9998 58.1311 41.2298 58.3511 41.4898 58.6011C40.5698 59.5511 39.6298 60.4611 38.6798 61.4311C39.1998 61.9511 39.7098 62.4611 40.2298 62.9911C40.0098 63.2011 39.7898 63.4011 39.5598 63.6211C38.8198 62.8811 38.0598 62.1211 37.3198 61.3811C38.4898 60.2111 39.6298 59.0711 40.7898 57.9211" fill="#BFFFC2"/>
<path d="M22.7499 55.5412C23.2999 56.0712 23.8099 56.5512 24.3099 57.0312C24.0899 57.2512 23.8899 57.4512 23.6599 57.6712C22.9199 56.9712 22.1899 56.2012 21.3999 55.4312C22.5499 54.2712 23.6999 53.1312 24.8599 51.9712C25.0999 52.2312 25.3199 52.4812 25.5599 52.7412C24.6599 53.6412 23.7299 54.5712 22.7599 55.5512" fill="#BFFFC2"/>
<path d="M43.5398 60.6611C43.8098 60.8911 44.0298 61.1511 44.2598 61.3611C43.0998 62.5211 41.9398 63.6711 40.7798 64.8311C40.5798 64.6411 40.3498 64.4111 40.0898 64.1611C40.6398 63.5711 41.2398 63.0111 41.8098 62.4211C42.3698 61.8411 42.9498 61.2711 43.5398 60.6611Z" fill="#BFFFC2"/>
<path d="M28.4195 55.5112C27.2595 56.6712 26.1195 57.8112 24.9695 58.9612C24.6695 58.7512 24.4795 58.4712 24.2295 58.2712C24.3695 58.0412 27.0995 55.2812 27.6795 54.7812C27.9195 55.0113 28.1495 55.2512 28.4195 55.5112Z" fill="#BFFFC2"/>
<path d="M86.0796 48.501C86.0796 48.501 86.1696 48.501 86.2196 48.511C86.1796 48.531 86.1396 48.561 86.0996 48.581C86.0996 48.551 86.0796 48.521 86.0796 48.501Z" fill="#BFFFC2"/>
<path d="M86.2096 1.08123H86.0796C86.0796 1.08123 86.0996 1.03123 86.0996 1.01123C86.1396 1.03123 86.1696 1.06123 86.2096 1.08123Z" fill="#BFFFC2"/>
<path d="M22.3596 13.671C22.3596 13.671 22.3096 13.611 22.2896 13.591C22.3096 13.581 22.3296 13.571 22.3596 13.561C22.3596 13.601 22.3596 13.641 22.3596 13.681" fill="#BFFFC2"/>
<path d="M86.1596 26.1113C86.1596 26.1113 86.1096 26.1213 86.0796 26.1313C86.0796 26.1113 86.0796 26.0913 86.0896 26.0713C86.1096 26.0813 86.1396 26.0913 86.1596 26.1113Z" fill="#BFFFC2"/>
<path d="M49.2595 37.8413C49.2595 37.8413 49.2595 37.8813 49.2595 37.8913C49.2395 37.8813 49.2295 37.8613 49.2095 37.8513C49.2295 37.8513 49.2395 37.8513 49.2595 37.8413Z" fill="#BFFFC2"/>
<path d="M24.2099 37.8413C24.2099 37.8413 24.1999 37.8913 24.1899 37.9213C24.1799 37.9013 24.1599 37.8713 24.1499 37.8513C24.1699 37.8513 24.1899 37.8513 24.2099 37.8513" fill="#BFFFC2"/>
</g>
<defs>
<clipPath id="clip0_477_11563">
<rect width="96.7" height="83.59" fill="white" transform="translate(0.699707 0.951172)"/>
</clipPath>
</defs>
</svg>
